<svg xmlns="http://www.w3.org/2000/svg" viewBox="0 0 30 30"><defs><style>.cls-1{fill:#a6acb1;}.cls-2{fill:#fff;}</style></defs><g id="圖層_2" data-name="圖層 2"><g id="內容"><circle class="cls-1" cx="15" cy="15" r="15"/><path class="cls-2" d="M14.6,17.54l3-2.95a.5.5,0,0,1,.51-.11,4.06,4.06,0,0,0,4-.88,4,4,0,0,0,1.25-2.82.49.49,0,0,0-.83-.37l-1.34,1.34c-.34.34-.65.34-.84.15L18.1,9.68a.49.49,0,0,1,0-.69L19.59,7.5a.49.49,0,0,0-.37-.83,4,4,0,0,0-3.71,5.27.5.5,0,0,1-.11.52l-3,2.95a.5.5,0,0,1-.51.11,4.06,4.06,0,0,0-4,.88,4,4,0,0,0-1.25,2.82.49.49,0,0,0,.83.37L9,18.1a.49.49,0,0,1,.69,0l2.22,2.22a.49.49,0,0,1,0,.69L10.41,22.5a.49.49,0,0,0,.37.83,4,4,0,0,0,3.71-5.27A.5.5,0,0,1,14.6,17.54Z"/></g></g></svg>