<svg xmlns="http://www.w3.org/2000/svg" viewBox="0 0 26.56 31.38"><defs><style>.cls-1{fill:#231815;}</style></defs><g id="圖層_2" data-name="圖層 2"><g id="內容"><g id="Layer_2" data-name="Layer 2"><g id="Layer_86" data-name="Layer 86"><path id="_64" data-name=" 64" class="cls-1" d="M20.36,17.52c-1.1-1.15-4.12-.68-4.84-.6a12.28,12.28,0,0,1-2-2.68,12.62,12.62,0,0,0,.68-3.52c0-1.07-.43-2.21-1.62-2.21a1.23,1.23,0,0,0-1,.59c-.51.89-.3,2.68.51,4.51A31.07,31.07,0,0,1,10,18.45c-1.23.51-3.83,1.7-4,3a1.14,1.14,0,0,0,.34,1.06,1.61,1.61,0,0,0,1.06.38c1.58,0,3.11-2.16,4.17-4a26.7,26.7,0,0,1,3.7-1A5.84,5.84,0,0,0,19,19.56c1,0,1.41-.43,1.53-.81A1.08,1.08,0,0,0,20.36,17.52Zm-1.06.72c0,.3-.43.6-1.11.42A5.75,5.75,0,0,1,16,17.56a8.94,8.94,0,0,1,2.67,0C19,17.6,19.38,17.81,19.3,18.24ZM12.2,9.48a.45.45,0,0,1,.34-.21c.38,0,.47.47.47.85a9.22,9.22,0,0,1-.51,2.64A4.65,4.65,0,0,1,12.2,9.48Zm-.08,8.25a23.53,23.53,0,0,0,1-2.38,11.12,11.12,0,0,0,1.36,1.74S13.14,17.39,12.12,17.73Zm-2.51,1.7c-1,1.62-2,2.64-2.55,2.64A.67.67,0,0,1,6.8,22a.31.31,0,0,1-.12-.38C6.8,21,7.91,20.2,9.61,19.43Z"/></g></g><path class="cls-1" d="M26.44,8,18.57.12a.42.42,0,0,0-.3-.12H.43A.43.43,0,0,0,0,.43V31a.43.43,0,0,0,.43.43H26.14a.42.42,0,0,0,.42-.43V8.3A.43.43,0,0,0,26.44,8Zm-7.61-6.4L25,7.79h-6.2Zm6.88,28.94H.85V.85H18V8.22a.42.42,0,0,0,.43.42h7.3Z"/></g></g></svg>