<svg xmlns="http://www.w3.org/2000/svg" viewBox="0 0 29.17 29.17"><defs><style>.cls-1{fill:#007934;}</style></defs><g id="圖層_2" data-name="圖層 2"><g id="內容"><path class="cls-1" d="M27.29,18.82a.75.75,0,0,0-.75.75v8.1H1.5v-25H10a.75.75,0,0,0,0-1.5H.75A.75.75,0,0,0,0,1.88V28.42a.76.76,0,0,0,.75.75H27.29a.76.76,0,0,0,.75-.75V19.57A.76.76,0,0,0,27.29,18.82Z"/><path class="cls-1" d="M29.11.46a.73.73,0,0,0-.41-.4A.71.71,0,0,0,28.42,0h-9a.76.76,0,0,0-.75.75.76.76,0,0,0,.75.75h7.23L12.08,16a.74.74,0,0,0,0,1.06.73.73,0,0,0,.53.22.74.74,0,0,0,.53-.22L27.67,2.56V9.78a.75.75,0,1,0,1.5,0v-9A.75.75,0,0,0,29.11.46Z"/></g></g></svg>