<svg xmlns="http://www.w3.org/2000/svg" viewBox="0 0 60.74 60.74"><defs><style>.cls-1{fill:#97ca3f;}</style></defs><g id="圖層_2" data-name="圖層 2"><g id="內容"><circle class="cls-1" cx="30.36" cy="30.38" r="25"/><path class="cls-1" d="M29.49,60.74a31.15,31.15,0,0,1-4.31-.43l.13-.74a29.58,29.58,0,0,0,4.2.42Zm2.6,0,0-.75a31.11,31.11,0,0,0,4.2-.53l.14.73A29.4,29.4,0,0,1,32.09,60.7Zm-9.45-.94a31.08,31.08,0,0,1-4.11-1.4l.29-.69a28.68,28.68,0,0,0,4,1.36Zm16.28-.23-.21-.72a29.46,29.46,0,0,0,4-1.48L43,58A31,31,0,0,1,38.92,59.53ZM16.18,57.24A30.49,30.49,0,0,1,12.5,55l.44-.61a30.31,30.31,0,0,0,3.59,2.24Zm29.12-.41-.37-.65a30.28,30.28,0,0,0,3.52-2.34l.46.59A29.76,29.76,0,0,1,45.3,56.83Zm-34.83-3.5A31.77,31.77,0,0,1,7.4,50.26L8,49.77a30.14,30.14,0,0,0,3,3Zm40.43-.57-.51-.55a30.28,30.28,0,0,0,2.91-3.08l.58.48A32.84,32.84,0,0,1,50.9,52.76ZM5.78,48.22a29.61,29.61,0,0,1-2.29-3.67l.66-.35a30.19,30.19,0,0,0,2.24,3.58Zm49.66-.7-.62-.42A30.22,30.22,0,0,0,57,43.45l.68.33A31,31,0,0,1,55.44,47.52ZM2.38,42.2A28.43,28.43,0,0,1,1,38.09l.72-.19a30.09,30.09,0,0,0,1.37,4Zm56.3-.8-.7-.27a30,30,0,0,0,1.25-4l.73.17A31.45,31.45,0,0,1,58.68,41.4ZM.43,35.55A29.69,29.69,0,0,1,0,31.24l.75,0a29.44,29.44,0,0,0,.42,4.2Zm60-.85-.74-.11a29.59,29.59,0,0,0,.3-4.21A31.61,31.61,0,0,0,59.8,27l.74-.08a30.6,30.6,0,0,1,.2,3.46A29.69,29.69,0,0,1,60.43,34.7Zm-59.64-6-.75,0a29.4,29.4,0,0,1,.55-4.3l.73.15A30.76,30.76,0,0,0,.79,28.68ZM59.4,24.49a28.86,28.86,0,0,0-1.12-4.07l.7-.25a28.76,28.76,0,0,1,1.16,4.18ZM1.93,22l-.72-.21a31,31,0,0,1,1.52-4.06l.68.31A30.88,30.88,0,0,0,1.93,22Zm55.39-3.95a29.11,29.11,0,0,0-2-3.71l.63-.4A28,28,0,0,1,58,17.76ZM4.57,15.8l-.66-.37a31,31,0,0,1,2.4-3.61l.6.46A29.45,29.45,0,0,0,4.57,15.8Zm49.26-3.51A30,30,0,0,0,51,9.14l.52-.54a30.47,30.47,0,0,1,2.88,3.23ZM8.54,10.34,8,9.83a32.84,32.84,0,0,1,3.15-3l.48.58A30.28,30.28,0,0,0,8.54,10.34ZM49.12,7.45A28.72,28.72,0,0,0,45.67,5l.39-.64A31.07,31.07,0,0,1,49.6,6.87ZM13.65,5.91l-.43-.62A31.14,31.14,0,0,1,17,3.11l.34.67A30.22,30.22,0,0,0,13.65,5.91ZM43.44,3.79a29,29,0,0,0-3.92-1.6l.24-.71a31.76,31.76,0,0,1,4,1.63Zm-23.82-1-.27-.7A31,31,0,0,1,23.49.78l.17.73A30,30,0,0,0,19.62,2.76ZM37.08,1.51A30.8,30.8,0,0,0,32.9.86L33,.11a30.74,30.74,0,0,1,4.28.67ZM26.15,1.05,26.05.3A31,31,0,0,1,30.36,0V.75A29.63,29.63,0,0,0,26.15,1.05Z"/></g></g></svg>