<svg xmlns="http://www.w3.org/2000/svg" viewBox="0 0 33.9 36.5"><defs><style>.cls-1{fill:none;stroke:#a6acb1;stroke-linecap:round;stroke-linejoin:round;stroke-width:1.5px;}</style></defs><g id="圖層_2" data-name="圖層 2"><g id="內容"><path class="cls-1" d="M11.6,12.47c1.78-1,2.11-1.22,2.16-1.25l.08-.05a.47.47,0,0,0,.18-.65L9,1.8a.48.48,0,0,0-.66-.17A22.55,22.55,0,0,0,3.44,4.74a8,8,0,0,0-.64.66,8.86,8.86,0,0,0-2,7C1.24,15.88,6,23.69,6,23.69s4.38,8,7.16,10.1a8.73,8.73,0,0,0,8,1.58,22.58,22.58,0,0,0,5.14-2.68.48.48,0,0,0,.18-.65l-5-8.72a.48.48,0,0,0-.65-.18l-.08.07s-.42.19-2.17,1.23C16.28,25.76,16.22,27,16.22,27c-1-.64-4.37-6.69-4.37-6.69s-3.58-5.92-3.61-7.13C8.24,13.18,9.39,13.71,11.6,12.47Z"/><path class="cls-1" d="M18.79,9.05a10,10,0,0,1,4.37,8.51"/><path class="cls-1" d="M21.85,5.23s7,4.36,6.11,12.44"/><path class="cls-1" d="M24.14.75s9.83,4.8,9,17.79"/></g></g></svg>