<svg xmlns="http://www.w3.org/2000/svg" viewBox="0 0 45 45"><defs><style>.cls-1{fill:#a6acb1;}.cls-2{fill:#fff;}</style></defs><g id="圖層_2" data-name="圖層 2"><g id="內容"><circle class="cls-1" cx="22.5" cy="22.5" r="22.5"/><path class="cls-2" d="M28.68,18.08a1.56,1.56,0,0,0-2.21,0l-2.41,2.41v-7a1.56,1.56,0,0,0-3.12,0v7l-2.41-2.41a1.56,1.56,0,0,0-2.21,2.21l5.08,5.07.11.11,0,0,.07.06.07,0,.06,0,.07,0,.07,0,.07,0,.08,0,.07,0,.08,0h.6l.08,0,.07,0,.08,0,.07,0,.07,0,.07,0,.06,0,.07,0,.07-.06,0,0,.11-.11,5.08-5.07A1.56,1.56,0,0,0,28.68,18.08Z"/><polygon class="cls-2" points="31.43 30.7 13.57 30.7 13.57 25.14 15.52 25.14 15.52 28.75 29.48 28.75 29.48 25.14 31.43 25.14 31.43 30.7"/></g></g></svg>