<svg xmlns="http://www.w3.org/2000/svg" viewBox="0 0 38.09 45"><defs><style>.cls-1{fill:#007934;}</style></defs><g id="圖層_2" data-name="圖層 2"><g id="內容"><g id="Layer_2" data-name="Layer 2"><g id="Layer_86" data-name="Layer 86"><path id="_64" data-name=" 64" class="cls-1" d="M29.2,25.12c-1.59-1.64-5.91-1-6.95-.85a19,19,0,0,1-2.93-3.84,17.67,17.67,0,0,0,1-5.06c0-1.52-.61-3.17-2.32-3.17a1.79,1.79,0,0,0-1.46.85c-.73,1.28-.43,3.84.73,6.46a44.42,44.42,0,0,1-3,7c-1.77.73-5.49,2.44-5.79,4.27A1.61,1.61,0,0,0,9,32.25a2.34,2.34,0,0,0,1.53.55c2.25,0,4.45-3.11,6-5.73a40.66,40.66,0,0,1,5.3-1.4,8.46,8.46,0,0,0,5.55,2.38c1.46,0,2-.61,2.19-1.16A1.59,1.59,0,0,0,29.2,25.12Zm-1.53,1c-.06.42-.61.85-1.58.61A8.51,8.51,0,0,1,23,25.18a13.32,13.32,0,0,1,3.84-.06C27.31,25.24,27.8,25.55,27.67,26.16ZM17.5,13.6a.61.61,0,0,1,.48-.3c.55,0,.67.67.67,1.22a13.12,13.12,0,0,1-.73,3.77C17,15.86,17.19,14.15,17.5,13.6Zm-.13,11.83A35.9,35.9,0,0,0,18.78,22a14.82,14.82,0,0,0,1.95,2.5C20.73,24.57,18.84,24.94,17.37,25.43Zm-3.59,2.43c-1.4,2.32-2.87,3.78-3.66,3.78a.85.85,0,0,1-.36-.12A.46.46,0,0,1,9.57,31C9.76,30.12,11.34,29,13.78,27.86Z"/></g></g><path class="cls-1" d="M37.91,11.47,26.63.18A.6.6,0,0,0,26.2,0H.61A.61.61,0,0,0,0,.61V44.39A.61.61,0,0,0,.61,45H37.48a.61.61,0,0,0,.61-.61V11.9A.57.57,0,0,0,37.91,11.47ZM27,2.28l8.89,8.89H27Zm9.86,41.5H1.22V1.22H25.79V11.78a.61.61,0,0,0,.61.61H36.87Z"/></g></g></svg>