<svg xmlns="http://www.w3.org/2000/svg" viewBox="0 0 108 87.68"><defs><style>.cls-1{fill:#fff;}</style></defs><g id="圖層_2" data-name="圖層 2"><g id="說明"><path class="cls-1" d="M87.6,31.43a.62.62,0,0,1-.14-.28V29.69a.58.58,0,0,1,.14-.27L89,28a.39.39,0,0,0,.08-.36l-.56-1.74a.42.42,0,0,0-.28-.24l-2-.34a.54.54,0,0,1-.27-.14l-.44-.59L85.13,24a.55.55,0,0,1,0-.3l.3-2a.4.4,0,0,0-.15-.34l-1.48-1.07a.38.38,0,0,0-.37,0l-1.81.91a.59.59,0,0,1-.3,0l-.7-.22-.7-.23a.6.6,0,0,1-.21-.21l-.94-1.8a.38.38,0,0,0-.32-.19H76.58a.4.4,0,0,0-.33.19l-.93,1.8a.64.64,0,0,1-.22.21l-.69.23-.7.22a.58.58,0,0,1-.3,0l-1.82-.91a.38.38,0,0,0-.37,0l-1.47,1.07a.38.38,0,0,0-.15.34l.3,2a.65.65,0,0,1-.05.3l-.43.59-.43.59a.54.54,0,0,1-.27.14l-2,.34a.4.4,0,0,0-.28.24l-.57,1.74A.39.39,0,0,0,66,28l1.42,1.45a.57.57,0,0,1,.13.27v1.46a.61.61,0,0,1-.13.28L66,32.87a.41.41,0,0,0-.09.37L66.44,35a.39.39,0,0,0,.28.25l2,.33a.64.64,0,0,1,.27.14l.43.59.43.6a.63.63,0,0,1,.05.3l-.3,2a.38.38,0,0,0,.15.34l1.47,1.08a.41.41,0,0,0,.37,0l1.82-.9a.58.58,0,0,1,.3,0l.7.22.69.24a.56.56,0,0,1,.22.21l.93,1.79a.41.41,0,0,0,.33.2H78.4a.39.39,0,0,0,.32-.2l.94-1.79a.53.53,0,0,1,.21-.21l.7-.24.7-.22a.6.6,0,0,1,.3,0l1.81.9a.4.4,0,0,0,.37,0l1.48-1.08a.4.4,0,0,0,.15-.34l-.3-2a.53.53,0,0,1,0-.3l.42-.6.44-.59a.64.64,0,0,1,.27-.14l2-.33a.41.41,0,0,0,.28-.25l.56-1.73a.41.41,0,0,0-.08-.37ZM77.49,34.79a4.37,4.37,0,1,1,4.37-4.37,4.37,4.37,0,0,1-4.37,4.37"/><path class="cls-1" d="M93,33.35A15.82,15.82,0,1,1,80.42,14.87,15.81,15.81,0,0,1,93,33.35M77.49,11.22a19.2,19.2,0,1,0,19.2,19.2,19.2,19.2,0,0,0-19.2-19.2"/><path class="cls-1" d="M46.06,33.35A15.82,15.82,0,1,1,33.44,14.87,15.82,15.82,0,0,1,46.06,33.35M30.51,11.22a19.2,19.2,0,1,0,19.2,19.2,19.2,19.2,0,0,0-19.2-19.2"/><path class="cls-1" d="M107.49,24.5a.75.75,0,0,0-.68-.65l-3.72-.3a.93.93,0,0,1-.77-.63c-.24-.78-.51-1.55-.81-2.3a.93.93,0,0,1,.21-1l2.72-2.55a.79.79,0,0,0,.13-.94l-2-3.34a.78.78,0,0,0-.89-.32l-3.52,1.25a1,1,0,0,1-1-.26,23.31,23.31,0,0,0-1.67-1.78,1,1,0,0,1-.21-1l1.46-3.44a.78.78,0,0,0-.27-.91L93.24,4.15a.77.77,0,0,0-.94.07L89.59,6.79a.92.92,0,0,1-1,.15c-.74-.34-1.49-.66-2.26-.94a.93.93,0,0,1-.58-.8l-.08-3.74a.77.77,0,0,0-.61-.72L81.23,0a.79.79,0,0,0-.83.45L79,3.92a1,1,0,0,1-.84.54c-.82,0-1.64,0-2.45,0a1,1,0,0,1-.86-.5L73.24.63a.77.77,0,0,0-.85-.41l-3.81.9a.78.78,0,0,0-.57.75l.1,3.73a1,1,0,0,1-.55.84c-.75.31-1.49.66-2.21,1a.94.94,0,0,1-1-.1L61.53,4.93a.78.78,0,0,0-.94,0L57.48,7.28a.79.79,0,0,0-.23.92l1.61,3.36a.94.94,0,0,1-.16,1c-.56.59-1.09,1.21-1.59,1.85a.89.89,0,0,1-.47.3,30,30,0,0,1,2.49,5.17A21.18,21.18,0,1,1,77.49,51.61l-2.1-.1a21.2,21.2,0,0,1-18.9-21.06h0a25.78,25.78,0,0,0-6.28-16.89l0-.08c-.53-.62-1.09-1.21-1.67-1.78a.94.94,0,0,1-.21-1l1.45-3.44a.79.79,0,0,0-.26-.91L46.27,4.15a.77.77,0,0,0-.94.07L42.62,6.79a.94.94,0,0,1-1,.15c-.73-.34-1.48-.66-2.25-.94a.94.94,0,0,1-.59-.8l-.07-3.74a.78.78,0,0,0-.61-.72L34.26,0a.79.79,0,0,0-.83.45L32,3.92a1,1,0,0,1-.84.54c-.82,0-1.63,0-2.44,0a1,1,0,0,1-.87-.5L26.27.63a.77.77,0,0,0-.85-.41l-3.81.9a.78.78,0,0,0-.58.75l.1,3.73a1,1,0,0,1-.55.84c-.75.31-1.48.66-2.2,1a.93.93,0,0,1-1-.1L14.56,4.93a.8.8,0,0,0-1,0L10.5,7.28a.77.77,0,0,0-.22.92l1.61,3.36a1,1,0,0,1-.16,1c-.56.59-1.09,1.21-1.6,1.85a.93.93,0,0,1-1,.31L5.61,13.63a.77.77,0,0,0-.87.35L2.86,17.42a.78.78,0,0,0,.17.93l2.84,2.43a.93.93,0,0,1,.26,1c-.27.76-.5,1.54-.7,2.34a1,1,0,0,1-.74.67L1,25.21a.79.79,0,0,0-.65.68L0,29.8a.76.76,0,0,0,.54.77l3.58,1.06a1,1,0,0,1,.62.78c.07.82.17,1.63.31,2.43a1,1,0,0,1-.4.91l-3.2,1.93a.78.78,0,0,0-.32.89l1.3,3.69a.78.78,0,0,0,.8.5l3.71-.49a.94.94,0,0,1,.89.45A23.09,23.09,0,0,0,9.1,44.8a1,1,0,0,1,0,1L7,48.87a.8.8,0,0,0,.07,1l2.69,2.84a.79.79,0,0,0,.94.13l3.18-1.95a1,1,0,0,1,1,0,24,24,0,0,0,2,1.4.94.94,0,0,1,.4.91l-.7,3.66a.78.78,0,0,0,.44.84l3.62,1.5a.78.78,0,0,0,.9-.26l2.12-3.09a1,1,0,0,1,.93-.35c.4.1,2,.4,2.4.45a.94.94,0,0,1,.74.67l.85,3.64a.78.78,0,0,0,.75.58l3.91-.09a.78.78,0,0,0,.72-.61l.68-3.67a.94.94,0,0,1,.71-.7,24.23,24.23,0,0,0,2.38-.57,1,1,0,0,1,1,.31l2.25,3a.77.77,0,0,0,.92.22L45.35,57a.81.81,0,0,0,.41-.85l-.88-3.64a1,1,0,0,1,.36-.93c.67-.47,1.32-1,1.94-1.48a.92.92,0,0,1,1-.1l3.28,1.8a.77.77,0,0,0,.93-.16L54,49.83A30.46,30.46,0,0,1,48.87,41,21.18,21.18,0,1,1,30.51,9.24h.08v0c.68,0,1.36,0,2,.09l.45.05.73.1c.43.06.86.14,1.28.24l.19,0A21.27,21.27,0,0,1,49.74,21.54h.08a21,21,0,0,1,2,8.9h0a25.9,25.9,0,0,0,10,20.45h0c.64.49,1.31,1,2,1.39a.94.94,0,0,1,.41.91l-.71,3.66a.8.8,0,0,0,.45.84l3.61,1.5a.79.79,0,0,0,.91-.26l2.12-3.09a.94.94,0,0,1,.93-.35c.39.1,2,.4,2.4.45a1,1,0,0,1,.74.67l.85,3.64a.77.77,0,0,0,.74.58l3.92-.09a.78.78,0,0,0,.72-.61l.67-3.67a1,1,0,0,1,.71-.7,23.56,23.56,0,0,0,2.38-.57.94.94,0,0,1,1,.31l2.26,3a.76.76,0,0,0,.91.22L92.32,57a.78.78,0,0,0,.41-.85l-.87-3.64a.93.93,0,0,1,.36-.93c.67-.47,1.31-1,1.94-1.48a.92.92,0,0,1,1-.1l3.28,1.8a.78.78,0,0,0,.93-.16l2.55-3a.77.77,0,0,0,0-.94l-2.27-3a1,1,0,0,1,0-1c.42-.69.82-1.41,1.17-2.14a1,1,0,0,1,.87-.5l3.72.32a.79.79,0,0,0,.78-.53l1.12-3.76a.77.77,0,0,0-.36-.87l-3.29-1.78a1,1,0,0,1-.45-.89c.11-.82.18-1.63.21-2.44a.94.94,0,0,1,.58-.8l3.54-1.23a.77.77,0,0,0,.49-.8Z"/><path class="cls-1" d="M33.37,18.71a1.11,1.11,0,0,1,.35-.12h.09a.4.4,0,0,1,.29.18l.35.46c0,.09.24.18.36.18l1,.35a.46.46,0,0,1,.3.18l.32.56c.12,0,0,.18,0,.26l-.65.68a2,2,0,0,1-.2.32l-.12.59v.41l.12.27a.72.72,0,0,1,.12.41l0,.18a2,2,0,0,1,0,.41l-.33.73c0,.09-.14.24-.17.36l-.68,1.7a.79.79,0,0,0-.09.44,1.36,1.36,0,0,1,0,.35c-.17,1.09-.64,3.74-.73,4l-.53,1.52a1,1,0,0,0-.15.42c-.09.32,0,.41-.2.64l-1,1.68a.68.68,0,0,1-.24.26l-.76.86c0,.09-.15.2-.18.32L30,39.08a2,2,0,0,0,0,.39v1.88a2,2,0,0,1-.08.38l-.12.41a.21.21,0,0,1-.27.09l-.35-.17c-.06-.06-.23-.12-.32-.24l-.15-.09a1.41,1.41,0,0,1-.09-.38l.09-.5a1.58,1.58,0,0,0,0-.38l-.41-.89a.77.77,0,0,0-.26-.35L27,38.44a.52.52,0,0,0-.38-.15h0a.4.4,0,0,1-.29-.2l-.65-.92c-.06-.09-.09-.23-.15-.35l-.17-.65c0-.09-.06-.29-.06-.38v-.68c0-.11,0-.23-.15-.26l-.5-.41c-.12,0-.15-.24-.15-.32l0-.33c0-.12.09-.26.09-.38l.09-.47c0-.09.12-.24.12-.33l.09,0c.08-.12.14-.24.08-.36l-.08-2a.49.49,0,0,1,.08-.32l3.42-6a1.28,1.28,0,0,1,.26-.35l.76-.88a1.29,1.29,0,0,0,.27-.3l.85-1.91a.43.43,0,0,1,.27-.2l.88-.33a1.88,1.88,0,0,1,.44-.15l.53-.08c.11-.06.23-.18.23-.27A.7.7,0,0,1,33,19Z"/><path class="cls-1" d="M.66,75.16v-.88H3.88V70.56H4.8v3.72H9.06V69.52H10v1.8h6.62v.84H10v2.12h8.4v.88Zm15.62,12.5v-.94H2.8v.92H1.88V75.9H2.8V80H16.28v-4h.92V87.66ZM2.8,85.88H16.28v-5.1H2.8Zm1.3-6.12a2.61,2.61,0,0,0-.68-.54,6.29,6.29,0,0,0,3.16-3.76l.82.14a7.55,7.55,0,0,1-.56,1.34,15.44,15.44,0,0,1,2.24,1.8l-.54.58a16.32,16.32,0,0,0-2.1-1.76A8.39,8.39,0,0,1,4.1,79.76Zm0,5.78,0,0a5.93,5.93,0,0,0-.64-.5,6.46,6.46,0,0,0,3.1-3.9l.82.14a6.39,6.39,0,0,1-.54,1.38,16.16,16.16,0,0,1,2.3,1.86L8.62,85A22.72,22.72,0,0,0,6.5,83.28,7.72,7.72,0,0,1,4.14,85.54Zm10.74.14A28.74,28.74,0,0,0,12,83.52a7.79,7.79,0,0,1-2.14,2c-.27-.23-.49-.41-.68-.54a6,6,0,0,0,3-3.82l.82.14a7,7,0,0,1-.64,1.56,22.5,22.5,0,0,1,3.06,2.2Zm-.08-5.84a19.23,19.23,0,0,0-2.86-2,8.08,8.08,0,0,1-2.08,1.9c-.27-.23-.49-.41-.68-.54a5.83,5.83,0,0,0,3-3.68l.82.14a6.51,6.51,0,0,1-.66,1.54,22.83,22.83,0,0,1,3,2Z"/><path class="cls-1" d="M25.94,87.68V84H22.42v-.88h3.52V81.2H23.08V74.44h2.86v-1.7H22.68v-.9h3.26V69.52h.86v2.32H30v.9H26.8v1.7h3V81.2H26.82v1.88h3.32V84H26.82v3.72ZM23.88,77.42H26V75.24H23.88Zm0,3H26V78.2H23.88Zm2.88-3h2.18V75.24H26.76Zm0,3h2.18V78.2H26.76Zm3.68-4.76a4.28,4.28,0,0,0-.54-.78,13.85,13.85,0,0,0,2.8-2.38,12.56,12.56,0,0,0,2-2.88h.92A15.45,15.45,0,0,0,38,72.5a15,15,0,0,0,2.78,2.2,5.92,5.92,0,0,0-.58.84,19,19,0,0,1-2.72-2.3,16.12,16.12,0,0,1-2.22-2.7,15.7,15.7,0,0,1-2,2.7A16,16,0,0,1,30.44,75.64Zm.36,12V77.92h9.12V86.6c0,.45-.13.75-.4.88a6,6,0,0,1-1.64.14,2.2,2.2,0,0,0-.28-.82l1.24,0a.21.21,0,0,0,.22-.24V82.82H37v4.52h-.76V82.82h-2v4.52h-.76V82.82H31.64v4.82ZM31.64,82h1.92V78.78H31.64Zm.26-6v-.86h6.84v.86Zm2.42,6h2V78.78h-2ZM37,82h2V78.78H37Z"/><path class="cls-1" d="M47.08,87.62V75.86H44.44v-.92h2.64V69.52H48v5.42h2.52v.92H48V87.62Zm9,0a3.17,3.17,0,0,0-.32-.86l2.42,0a.58.58,0,0,0,.31-.08.3.3,0,0,0,.07-.24v-3.8H49.68V81.8h8.86V80.16H51.28v-6h4.64V72.74H50.2v-.88h5.72V69.5h.94v2.36h4.06a15.84,15.84,0,0,0-2.86-1.7l.52-.6a13.73,13.73,0,0,1,3,1.74l-.44.56h1.42v.88H56.86V74.2h4.8v6h-2.2V81.8H62.7v.86H59.46v3.8a1.48,1.48,0,0,1-.12.68.77.77,0,0,1-.48.34A15.74,15.74,0,0,1,56.06,87.62Zm-1.52-1.26a11.76,11.76,0,0,0-2.66-2.72l.68-.5a18,18,0,0,1,1.54,1.3,8.25,8.25,0,0,1,1.16,1.34Zm-2.36-9.6h3.74V75H52.18Zm0,2.62h3.74V77.54H52.18Zm4.68-2.62h3.9V75h-3.9Zm0,2.62h3.9V77.54h-3.9Z"/><path class="cls-1" d="M70.14,87.64V80.52l-3.5,1.12-.3-.92c1.44-.41,2.71-.79,3.8-1.14v-4.9H68a19.38,19.38,0,0,1-1,3.24,5,5,0,0,0-.8-.44,22.05,22.05,0,0,0,1.52-6.8l.9.16c-.15,1.19-.3,2.16-.46,2.92h1.94V69.54h.92v4.22h2.3v.92h-2.3v4.6l2.58-.8.14.86-2.72.88v7.42Zm8.76-.28a2.05,2.05,0,0,0-.26-.94c.67,0,1.42.08,2.26.08a1,1,0,0,0,.78-.3,7.38,7.38,0,0,0,.92-3.28c.27-1.92.51-4.91.74-9H81.86A32.56,32.56,0,0,1,79.4,81.7a15.13,15.13,0,0,1-4.22,5.68,3.2,3.2,0,0,0-.84-.6,14.42,14.42,0,0,0,4.18-5.36A30.14,30.14,0,0,0,81,73.94H78.92a25,25,0,0,1-2.08,5.26,13.81,13.81,0,0,1-3.06,4,2.36,2.36,0,0,0-.8-.56,12.35,12.35,0,0,0,3-3.74,22.27,22.27,0,0,0,2-5H75.9a15.82,15.82,0,0,1-2.4,3.94,4.09,4.09,0,0,0-.78-.58,16.68,16.68,0,0,0,3.66-7.76l.92.16a26.56,26.56,0,0,1-1,3.32h8c0,.19,0,.37,0,.56q-.36,6.78-.76,9.7a7.7,7.7,0,0,1-1,3.52,1.84,1.84,0,0,1-1.32.62A15.54,15.54,0,0,1,78.9,87.36Z"/><path class="cls-1" d="M88.64,75.42a2.23,2.23,0,0,0-.66-.58,14.24,14.24,0,0,0,4.18-5.32h1a23.17,23.17,0,0,1,1.88,1.84,12.81,12.81,0,0,1,1.42,1.78l-.68.68a14.6,14.6,0,0,0-1.3-1.7,17,17,0,0,0-1.7-1.76A17.49,17.49,0,0,1,88.64,75.42Zm7.1,11.4A12.06,12.06,0,0,0,94.88,85l-2,.56c-2,.57-3.37,1-4.16,1.18l-.36-.94.4-.08,1.08-.26V74.68h2.6v-2h.86v2h2.36v6.24H90.74v4.3l2.6-.68,1.1-.3a19.31,19.31,0,0,0-1.32-1.88l.78-.4a17.75,17.75,0,0,1,1.6,2.28,13.13,13.13,0,0,1,1.06,2.16Zm-5-9.42h4V75.48h-4Zm0,2.72h4v-2h-4Zm6-5.24V71.72H101V69.5h.94v2.22h4.5v3.16h-.92v-2.3H97.62v2.3ZM98,87.62V74.84h7.08v4.72H98.9V81.5h7v6H105v-.92H98.9v1.08Zm.92-8.92h5.26v-3H98.9Zm0,7H105v-3.3H98.9Z"/></g></g></svg>