<svg xmlns="http://www.w3.org/2000/svg" viewBox="0 0 45 45"><defs><style>.cls-1{fill:#a6acb1;}.cls-2{fill:#fff;}</style></defs><g id="圖層_2" data-name="圖層 2"><g id="內容"><circle class="cls-1" cx="22.5" cy="22.5" r="22.5"/><path class="cls-2" d="M22.5,9A13.5,13.5,0,1,0,36,22.5,13.52,13.52,0,0,0,22.5,9Zm11.71,8.85H30A14.43,14.43,0,0,0,24,10,12.62,12.62,0,0,1,34.21,17.85ZM29.86,22.8a15.32,15.32,0,0,1-.4,3.47H22.94V18.73h6.37A15.26,15.26,0,0,1,29.86,22.8ZM23.23,35.08h-.29V27.15h6.29A13.67,13.67,0,0,1,23.29,35S23.25,35.06,23.23,35.08ZM21.68,35a13.62,13.62,0,0,1-5.89-7.8h6.27v7.94h-.24A.44.44,0,0,0,21.68,35ZM15.14,22.73a15.14,15.14,0,0,1,.53-4h6.39v7.54H15.55A15.37,15.37,0,0,1,15.14,22.73Zm.8-4.88a13.46,13.46,0,0,1,6.12-7.55v7.55Zm7,0V10.39A13.38,13.38,0,0,1,29,17.85ZM20.83,10A14.56,14.56,0,0,0,15,17.85H10.79A12.62,12.62,0,0,1,20.83,10ZM10.46,18.73h4.3a15.91,15.91,0,0,0-.11,7.54H10.71a.38.38,0,0,0-.22.07,12.5,12.5,0,0,1-.61-3.84A12.7,12.7,0,0,1,10.46,18.73Zm.33,8.42h4.08A14.83,14.83,0,0,0,20,34.87,12.63,12.63,0,0,1,10.79,27.15ZM25.1,34.84a14.74,14.74,0,0,0,5-7.69h4.06A12.6,12.6,0,0,1,25.1,34.84Zm9.41-8.5a.38.38,0,0,0-.22-.07H30.37a16.54,16.54,0,0,0,.38-3.47,16.1,16.1,0,0,0-.53-4.07h4.32a12.7,12.7,0,0,1,.58,3.77A12.5,12.5,0,0,1,34.51,26.34Z"/></g></g></svg>