<svg xmlns="http://www.w3.org/2000/svg" viewBox="0 0 37.38 36.02"><defs><style>.cls-1{fill:none;stroke:#a6acb1;stroke-linecap:round;stroke-linejoin:round;stroke-width:1.5px;}</style></defs><g id="圖層_2" data-name="圖層 2"><g id="內容"><path class="cls-1" d="M16.57,1.68,1.63,17.74A3.33,3.33,0,0,0,.75,20V33.12a2.16,2.16,0,0,0,2.16,2.15h8.78a2.16,2.16,0,0,0,2.16-2.15V21.58A5.11,5.11,0,0,1,18,16.41a4.85,4.85,0,0,1,5.55,4.8V33.12a2.15,2.15,0,0,0,2.15,2.15h8.79a2.15,2.15,0,0,0,2.15-2.15V20a3.28,3.28,0,0,0-.88-2.25L20.81,1.68A2.88,2.88,0,0,0,16.57,1.68Z"/></g></g></svg>