<svg xmlns="http://www.w3.org/2000/svg" viewBox="0 0 30 30"><defs><style>.cls-1{fill:#a6acb1;}.cls-2{fill:#fff;}</style></defs><g id="圖層_2" data-name="圖層 2"><g id="內容"><circle class="cls-1" cx="15" cy="15" r="15"/><path class="cls-2" d="M22.73,16.54l-1.21-.69a.21.21,0,0,1-.1-.21c0-.21,0-.42,0-.64a6.78,6.78,0,0,0-.11-1.2.23.23,0,0,1,.1-.22l1-.59a.87.87,0,0,0,.32-1.19L21.39,9.4a.87.87,0,0,0-1.19-.32l-1.11.64a.21.21,0,0,1-.23,0,6.69,6.69,0,0,0-1.73-1,.2.2,0,0,1-.14-.2v-1a.87.87,0,0,0-.87-.86H13.34a.87.87,0,0,0-.87.86v1a.21.21,0,0,1-.13.2,6.48,6.48,0,0,0-1.95,1.15.2.2,0,0,1-.24,0l-.62-.36a.88.88,0,0,0-1.19.32L7,12.27a.88.88,0,0,0,.32,1.19l.71.4a.23.23,0,0,1,.1.22A7,7,0,0,0,8,15a6.43,6.43,0,0,0,.17,1.47.21.21,0,0,1-.1.23L7.54,17a.87.87,0,0,0-.32,1.19l1.39,2.4a.87.87,0,0,0,1.19.32l.81-.47a.2.2,0,0,1,.22,0,6.94,6.94,0,0,0,2,1,.2.2,0,0,1,.15.2v.82a.87.87,0,0,0,.87.86h2.78a.87.87,0,0,0,.87-.86V21.24a.2.2,0,0,1,.12-.19,6.53,6.53,0,0,0,1.63-1.11.21.21,0,0,1,.25,0l.94.55a.88.88,0,0,0,1.19-.32l1.39-2.41A.88.88,0,0,0,22.73,16.54ZM15,18.29A3.29,3.29,0,1,1,18.29,15,3.29,3.29,0,0,1,15,18.29Z"/></g></g></svg>