<svg xmlns="http://www.w3.org/2000/svg" viewBox="0 0 203.37 118.98"><defs><style>.cls-1{fill:#007934;}</style></defs><g id="圖層_2" data-name="圖層 2"><g id="內容"><path class="cls-1" d="M200.93,46.51H151.74V72.14h28.12c-9.6,19.61-41,34-78.17,34-44.85,0-76.94-20.87-76.94-46.63s32.09-46.62,76.94-46.62c29.6,0,55.49,9.09,69.67,22.68h23.42C179,14.62,143.29,0,101.68,0,45.52,0,0,26.64,0,59.49S45.52,119,101.68,119,203.37,92.34,203.37,59.49A36.36,36.36,0,0,0,200.93,46.51Z"/><polygon class="cls-1" points="84.78 72.52 84.78 45.96 79.39 45.96 79.39 53.94 74.02 53.94 74.02 45.96 68.62 45.96 68.62 53.94 66.21 53.94 63.25 59.34 68.62 59.34 68.62 72.52 74.02 72.52 74.02 59.34 79.39 59.34 79.39 72.52 84.78 72.52"/><path class="cls-1" d="M122.87,72.52V51.35h4.6l3-5.39H100.24a13.26,13.26,0,1,0,10.69,5.39h6.54V72.52Zm-22.63-5.39a7.89,7.89,0,1,1,7.89-7.89A7.88,7.88,0,0,1,100.24,67.13Z"/><path class="cls-1" d="M146.85,72.52V53.9A7.93,7.93,0,0,0,138.92,46h-.07a7.93,7.93,0,0,0-7.93,7.94V64.29h-2.57l-2.95,5.4h5.52v2.83h5.39V69.69h5.16v2.83Zm-10.54-8.23V53.9a2.55,2.55,0,0,1,2.54-2.55h.07a2.55,2.55,0,0,1,2.55,2.55V64.29Z"/></g></g></svg>