<svg xmlns="http://www.w3.org/2000/svg" viewBox="0 0 298.95 70"><defs><style>.cls-1{fill:#007934;}</style></defs><g id="圖層_2" data-name="圖層 2"><g id="內容"><path class="cls-1" d="M118.21,27.36H89.27V42.44h16.55c-5.65,11.54-24.11,20-46,20C33.44,62.43,14.56,50.16,14.56,35S33.44,7.57,59.82,7.57c17.42,0,32.66,5.35,41,13.34H114.6C105.33,8.6,84.3,0,59.82,0,26.78,0,0,15.67,0,35S26.78,70,59.82,70s59.83-15.67,59.83-35A21.31,21.31,0,0,0,118.21,27.36Z"/><polygon class="cls-1" points="49.88 42.66 49.88 27.04 46.71 27.04 46.71 31.73 43.55 31.73 43.55 27.04 40.37 27.04 40.37 31.73 38.95 31.73 37.21 34.91 40.37 34.91 40.37 42.66 43.55 42.66 43.55 34.91 46.71 34.91 46.71 42.66 49.88 42.66"/><path class="cls-1" d="M72.29,42.66V30.21H75L76.73,27H59a7.79,7.79,0,1,0,6.29,3.17h3.85V42.66ZM59,39.49a4.64,4.64,0,1,1,4.64-4.64A4.63,4.63,0,0,1,59,39.49Z"/><path class="cls-1" d="M86.4,42.66V31.71A4.66,4.66,0,0,0,81.73,27h0A4.67,4.67,0,0,0,77,31.71v6.11H75.51L73.78,41H77v1.66h3.17V41h3v1.66Zm-6.21-4.84V31.71a1.5,1.5,0,0,1,1.5-1.5h0a1.5,1.5,0,0,1,1.5,1.5v6.11Z"/><polygon class="cls-1" points="136.85 51.92 133.12 51.92 133.12 48.13 131.18 48.13 131.18 57.6 133.12 57.6 133.12 53.63 136.85 53.63 136.85 57.6 138.8 57.6 138.8 48.13 136.85 48.13 136.85 51.92"/><path class="cls-1" d="M146.65,48a5.21,5.21,0,0,0-5.45,5,5.48,5.48,0,0,0,10.9,0A5.21,5.21,0,0,0,146.65,48Zm0,8.18a3.44,3.44,0,0,1-3.51-3.26,3.52,3.52,0,0,1,7,0A3.44,3.44,0,0,1,146.65,56.13Z"/><polygon class="cls-1" points="153.49 49.84 155.41 49.84 155.41 57.6 157.35 57.6 157.35 49.84 159.31 49.84 159.31 48.13 153.49 48.13 153.49 49.84"/><path class="cls-1" d="M164.37,48.14,160,57.6h2.14l1.16-2.45H167l1.14,2.45h2.13l-4.4-9.46ZM164,53.45l1.12-2.87,1.12,2.87Z"/><rect class="cls-1" x="177.16" y="48.14" width="1.94" height="9.46"/><polygon class="cls-1" points="188.59 55.05 184.23 48.13 182.05 48.13 182.05 57.6 183.99 57.6 183.99 50.71 188.38 57.6 190.53 57.6 190.53 48.13 188.59 48.13 188.59 55.05"/><path class="cls-1" d="M200,49.24a7.07,7.07,0,0,0-4.39-1.1h-2.19V57.6h2.24A6.71,6.71,0,0,0,200,56.51a4.65,4.65,0,0,0,1.8-3.6A4.73,4.73,0,0,0,200,49.24Zm-1.4,6a5.12,5.12,0,0,1-3,.64h-.24v-6h.14a5.56,5.56,0,0,1,3,.56,2.92,2.92,0,0,1,1.39,2.51A2.83,2.83,0,0,1,198.64,55.25Z"/><path class="cls-1" d="M209.43,54a2.41,2.41,0,0,1-.28,1.42,1.66,1.66,0,0,1-1.32.67,1.59,1.59,0,0,1-1.39-.81,2.46,2.46,0,0,1-.2-1.28v-5.9H204.3V54a3.35,3.35,0,0,0,.85,2.63,3.71,3.71,0,0,0,5.45-.07,3.52,3.52,0,0,0,.77-2.56v-5.9h-1.94Z"/><path class="cls-1" d="M219.2,52.68a6.36,6.36,0,0,0-2-.87c-.63-.19-1.33-.46-1.32-1.15a1,1,0,0,1,1-1,1.11,1.11,0,0,1,1.18,1h2A2.94,2.94,0,0,0,217,48a2.89,2.89,0,0,0-3.09,2.69,2.55,2.55,0,0,0,.82,1.82,4.13,4.13,0,0,0,1.81.87c.87.26,1.83.57,1.83,1.6a1.27,1.27,0,0,1-1.36,1.2,1.3,1.3,0,0,1-1.46-1.2h-2a3.42,3.42,0,0,0,6.78-.1A2.46,2.46,0,0,0,219.2,52.68Z"/><polygon class="cls-1" points="221.72 49.84 223.64 49.84 223.64 57.6 225.58 57.6 225.58 49.84 227.54 49.84 227.54 48.13 221.72 48.13 221.72 49.84"/><path class="cls-1" d="M235.55,53.19a3.14,3.14,0,0,0,.87-2.06,3,3,0,0,0-1.22-2.33,4.32,4.32,0,0,0-2.72-.66h-3V57.6h1.94V54h0l2.72,3.63h2.4l-2.84-3.5A3.49,3.49,0,0,0,235.55,53.19Zm-4.16-.55v-2.8h1.08a2.31,2.31,0,0,1,1.44.32,1.26,1.26,0,0,1,.57,1.06,1.31,1.31,0,0,1-.48,1,2.4,2.4,0,0,1-1.54.4Z"/><rect class="cls-1" x="238.59" y="48.14" width="1.94" height="9.46"/><path class="cls-1" d="M247,48.14l-4.36,9.46h2.14l1.16-2.45h3.71l1.13,2.45h2.14l-4.41-9.46Zm-.36,5.31,1.12-2.87,1.12,2.87Z"/><polygon class="cls-1" points="256.83 48.13 254.89 48.13 254.89 57.6 260.03 57.6 260.03 55.89 256.83 55.89 256.83 48.13"/><polygon class="cls-1" points="272.39 55.37 269.58 48.13 266.93 48.13 266.93 57.6 268.88 57.6 268.88 50.5 271.58 57.6 273.22 57.6 275.93 50.5 275.93 57.6 277.86 57.6 277.86 48.13 275.23 48.13 272.39 55.37"/><polygon class="cls-1" points="280.61 57.6 282.55 57.6 282.55 53.72 285.78 53.72 285.78 52.01 282.55 52.01 282.55 49.84 285.93 49.84 285.93 48.13 280.61 48.13 280.61 57.6"/><path class="cls-1" d="M292.13,52.77v1.65h4.37a3.61,3.61,0,0,1-3.06,1.71,3.94,3.94,0,0,1-2.7-1.07,3.11,3.11,0,0,1-1-2.2,3.19,3.19,0,0,1,1.2-2.38,3.89,3.89,0,0,1,2.42-.82,3.57,3.57,0,0,1,2.74,1.25h2.33a5.56,5.56,0,0,0-5.07-3c-3,0-5.57,2.18-5.57,5s2.58,4.91,5.6,4.91S299,55.74,299,53v-.2Z"/><polygon class="cls-1" points="237.79 19.65 252.27 19.65 252.27 16.12 217.2 16.12 217.2 19.65 231.68 19.65 231.68 36.99 215.97 36.99 215.97 40.52 253.5 40.52 253.5 36.99 237.79 36.99 237.79 19.65"/><polygon class="cls-1" points="150.24 25.2 150.24 21.67 144 21.67 144 18.65 149.42 18.65 149.42 15.12 131.84 16.42 131.84 18.65 137.7 18.65 137.7 21.67 131.1 21.67 131.1 25.2 137.7 25.2 137.7 40.99 144 40.99 144 25.2 150.24 25.2"/><polygon class="cls-1" points="129.98 39.28 134.9 39.28 137.03 26.21 132.12 26.21 129.98 39.28"/><polygon class="cls-1" points="144.75 27.42 145.44 36.28 150.36 36.28 149.67 27.42 144.75 27.42"/><path class="cls-1" d="M160.1,16.12h-8.8V41h15.1V16.12h-6.3Zm-2.5,21.34V19.65h2.5V37.46Z"/><path class="cls-1" d="M298.31,22V18.45h-3.89l1.24-2.71h-6.3l-1.24,2.71h-1.66V14.81h-6.3v3.64h-2.42V14.81h-6.3v3.64h-1.66l-1.23-2.71h-6.31l1.24,2.71H259.6V22h7.48l.72,1.58h-8.2v3.53h16v1h-13v3.53h13v1h-16v3.53h16V41.3h6.63V36.08h16V32.55h-16v-1h13V28.05h-13v-1h16V23.56h-8L291,22ZM284,23.56h-9.88L273.38,22h11.34Z"/><polygon class="cls-1" points="266.49 37.99 260.64 37.99 260.64 41.19 263.6 41.19 269.52 41.19 270.92 41.19 274.67 37.04 267.35 37.04 266.49 37.99"/><polygon class="cls-1" points="290.56 37.04 283.23 37.04 286.98 41.19 288.39 41.19 294.31 41.19 297.27 41.19 297.27 37.99 291.41 37.99 290.56 37.04"/><path class="cls-1" d="M194.46,22.85h15.2V19.32H193.23V13.91h-5.11v5.41H172.7v3.53h15.24c-1,5.33-6.63,10.59-15.44,14.36l3.56,4c8.79-4.06,13.13-8.81,15.25-12.83,2.24,3.9,6.6,8.38,15,12.24l3.56-4C201.35,33,195.81,28,194.46,22.85Z"/></g></g></svg>