<?xml version="1.0" encoding="UTF-8"?><svg id="_圖層_2" xmlns="http://www.w3.org/2000/svg" xmlns:xlink="http://www.w3.org/1999/xlink" viewBox="0 0 373.51 202.75"><defs><style>.cls-1{fill:none;}.cls-2{fill:#007934;}.cls-3{fill:#fff;}.cls-4{fill:url(#_未命名漸層_12);}.cls-5{fill:url(#_未命名漸層_43);}.cls-6{fill:url(#_未命名漸層_66);}.cls-7{fill:url(#_未命名漸層_64);}.cls-8{fill:url(#_未命名漸層_12-2);}.cls-9{fill:url(#_未命名漸層_12-3);}.cls-10{fill:url(#_未命名漸層_12-8);}.cls-11{fill:url(#_未命名漸層_12-4);}.cls-12{fill:url(#_未命名漸層_12-5);}.cls-13{fill:url(#_未命名漸層_12-6);}.cls-14{fill:url(#_未命名漸層_12-7);}.cls-15{fill:url(#_未命名漸層_43-4);}.cls-16{fill:url(#_未命名漸層_43-2);}.cls-17{fill:url(#_未命名漸層_43-3);}.cls-18{fill:url(#_未命名漸層_66-2);}</style><linearGradient id="_未命名漸層_43" x1="1.05" y1="58.83" x2="51.05" y2="58.83" gradientUnits="userSpaceOnUse"><stop offset="0" stop-color="#323e48"/><stop offset="1" stop-color="#485563"/></linearGradient><linearGradient id="_未命名漸層_12" x1="40.76" y1="72.49" x2="40.76" y2="89.43" gradientUnits="userSpaceOnUse"><stop offset="0" stop-color="#4ed354"/><stop offset=".43" stop-color="#45c650"/><stop offset="1" stop-color="#37b04a"/></linearGradient><linearGradient id="_未命名漸層_12-2" y1="83.1" y2="74.43" xlink:href="#_未命名漸層_12"/><linearGradient id="_未命名漸層_43-2" x1="34.11" y1="19.85" x2="84.11" y2="19.85" xlink:href="#_未命名漸層_43"/><linearGradient id="_未命名漸層_12-3" x1="59.11" y1="33.53" x2="59.11" y2="50.46" xlink:href="#_未命名漸層_12"/><linearGradient id="_未命名漸層_12-4" x1="59.11" y1="44.13" x2="59.11" y2="35.47" xlink:href="#_未命名漸層_12"/><linearGradient id="_未命名漸層_43-3" x1="266.99" y1="14.35" x2="316.99" y2="14.35" xlink:href="#_未命名漸層_43"/><linearGradient id="_未命名漸層_12-5" x1="292.22" y1="27.32" x2="292.22" y2="44.26" xlink:href="#_未命名漸層_12"/><linearGradient id="_未命名漸層_12-6" x1="292.22" y1="37.93" x2="292.22" y2="29.26" xlink:href="#_未命名漸層_12"/><linearGradient id="_未命名漸層_12-7" x1="336.86" y1="54.19" x2="336.86" y2="71.13" xlink:href="#_未命名漸層_12"/><linearGradient id="_未命名漸層_12-8" x1="336.86" y1="64.8" x2="336.86" y2="56.14" xlink:href="#_未命名漸層_12"/><linearGradient id="_未命名漸層_43-4" x1="323.38" y1="40.4" x2="373.38" y2="40.4" xlink:href="#_未命名漸層_43"/><linearGradient id="_未命名漸層_66" x1="313.58" y1="78.69" x2="323.44" y2="68.83" gradientUnits="userSpaceOnUse"><stop offset="0" stop-color="#006934"/><stop offset="1" stop-color="#228038"/></linearGradient><linearGradient id="_未命名漸層_64" x1="315.45" y1="75.84" x2="321.57" y2="69.71" gradientUnits="userSpaceOnUse"><stop offset="0" stop-color="#228038"/><stop offset="1" stop-color="#006934"/></linearGradient><linearGradient id="_未命名漸層_66-2" x1="264.37" y1="91.15" x2="314.37" y2="91.15" xlink:href="#_未命名漸層_66"/></defs><g id="_內容"><g><rect class="cls-1" width="373.51" height="202.75"/><g><g><g><rect class="cls-5" x="1.05" y="48.15" width="50" height="21.36" rx="10.68" ry="10.68"/><g><path class="cls-3" d="M18.95,63.02v.48H8.7v-.48h4.84v-1.15h-3.63v-.47h3.63v-.78h.53v.78h3.66v.47h-3.66v1.15h4.88Zm-.25-3.93H8.94v-.44h4.6v-.91h-3.74v-.44h3.74v-.82h-3.62v-2.65h7.8v2.65h-3.64v.82h3.84v.44h-3.84v.91h4.63v.44Zm-9.63,1.71c.51-.35,.99-.97,1.27-1.57l.47,.13c-.31,.61-.77,1.32-1.33,1.75l-.41-.31Zm4.46-4.75v-1.81h-3.09v1.81h3.09Zm-1.81-1.67c.28,.44,.58,1.03,.67,1.42l-.41,.17c-.09-.39-.37-.99-.66-1.43l.4-.16Zm.75,6.4c-.06-.35-.25-.91-.44-1.33l.48-.1c.2,.41,.39,.94,.45,1.31l-.49,.13Zm4.7-6.54h-3.11v1.81h3.11v-1.81Zm-1.96,6.53c-.17-.36-.53-.91-.87-1.32l.42-.16c.36,.37,.73,.9,.91,1.26l-.45,.22Zm-.12-4.97c.24-.37,.53-1.01,.68-1.42l.45,.19c-.24,.5-.52,1.04-.76,1.41l-.37-.18Zm1.96,3.39c.57,.42,1.26,1.05,1.59,1.45l-.42,.28c-.32-.41-1.01-1.04-1.58-1.5l.41-.24Z"/><path class="cls-3" d="M27.19,54.77v1.87h2.9v6.96h-.55v-.68h-7.55v.74h-.52v-7.02h2.78v-1.87h-3.42v-.53h9.82v.53h-3.46Zm2.35,7.63v-2.27c-.06,.01-.12,.01-.19,.01h-1.71c-.77,0-.98-.16-.98-.84v-2.13h-1.91c-.06,1.21-.49,2.55-2.23,3.47-.06-.12-.23-.33-.33-.41,1.62-.84,1.99-2,2.04-3.07h-2.25v5.23h7.55Zm-2.88-7.63h-1.9v1.87h1.9v-1.87Zm.53,2.4v2.13c0,.25,.05,.3,.48,.3h1.62c.14,0,.22,0,.25-.01v-2.43h-2.35Z"/><path class="cls-3" d="M42.68,58.9h-1.46v4.1c0,.37-.09,.52-.39,.62-.3,.09-.82,.09-1.69,.09-.02-.16-.13-.36-.2-.51,.72,.01,1.32,.01,1.49,0,.18-.01,.23-.06,.23-.2v-4.1h-7.94v-.5h7.83v-3.85h-7.58v-.5h9.49v.5h-1.36v3.85h1.59v.5Zm-3.77,3.43h-4.16v.55h-.55v-2.89h4.7v2.35Zm.17-6.95v2.18h-4.8v-2.18h4.8Zm-4.33,5.06v1.42h3.62v-1.42h-3.62Zm3.81-4.63h-3.79v1.31h3.79v-1.31Z"/></g></g><g><path class="cls-4" d="M47.04,78.77c0,4.46-4.69,9.3-5.96,10.53-.18,.17-.46,.17-.63,0-1.27-1.23-5.96-6.07-5.96-10.53,0-3.47,2.81-6.28,6.28-6.28s6.28,2.81,6.28,6.28Z"/><path class="cls-8" d="M45.1,78.77c0,2.39-1.94,4.33-4.33,4.33s-4.33-1.94-4.33-4.33,1.94-4.33,4.33-4.33,4.33,1.94,4.33,4.33Z"/><g><path class="cls-3" d="M43.33,78.42l.58-.53q-.16-.38-.32-.77l-.78,.04c-.19-.19-.28-.28-.46-.46l.04-.79q-.38-.16-.77-.32l-.53,.58h-.66l-.53-.58q-.38,.16-.77,.32l.04,.79c-.19,.19-.28,.28-.46,.46l-.78-.04q-.16,.38-.32,.77l.58,.53v.66l-.58,.53q.16,.38,.32,.77l.78-.04c.19,.19,.28,.28,.46,.46l-.04,.78q.38,.16,.77,.32l.53-.58h.66l.53,.58q.38-.16,.77-.32l-.04-.78c.19-.19,.28-.28,.46-.46l.78,.04q.16-.38,.32-.77l-.58-.53v-.66Zm-2.57,2.38c-1.13,0-2.05-.92-2.05-2.05s.92-2.05,2.05-2.05,2.05,.92,2.05,2.05-.92,2.05-2.05,2.05Z"/><circle class="cls-3" cx="40.76" cy="78.75" r="1.53"/></g></g></g><g><g><rect class="cls-16" x="34.11" y="9.17" width="50" height="21.36" rx="10.68" ry="10.68"/><g><path class="cls-3" d="M57.87,19.45v.5h-4.79c-.05,.37-.1,.73-.18,1.06h4.87v.5h-5.01c-.56,1.67-1.77,2.68-4.75,3.19-.06-.14-.19-.36-.28-.49,2.76-.43,3.91-1.31,4.44-2.7h-4.05v-.5h4.2c.08-.33,.15-.67,.19-1.06h-4.64v-.5h4.68v-1.18h-3.62v-.49h3.62v-1.13h-4.24v-.51h2.53c-.2-.43-.61-1.04-1.02-1.5l.47-.22c.43,.47,.87,1.09,1.07,1.51l-.4,.2h3.25c.36-.49,.83-1.2,1.08-1.71l.53,.23c-.3,.49-.68,1.04-1.01,1.49h2.59v.51h-4.29v1.13h3.74v.49h-3.74v1.18h4.77Zm-4.71,2.34c1.65,.67,3.66,1.75,4.68,2.53l-.26,.47c-1-.79-3.03-1.9-4.67-2.59l.25-.41Z"/><path class="cls-3" d="M69.44,14.98v9.78h-.53v-.57h-8.27v.57h-.52V14.98h9.32Zm-.53,8.7V15.49h-8.27v8.19h8.27Zm-4.05-1.98c-1.24,.26-2.5,.56-3.45,.75l-.11-.45c.9-.16,2.21-.43,3.54-.7l.02,.41Zm2.76-3.3c-.29,1.14-.74,2.1-1.32,2.92,.31,.76,.69,1.24,1.18,1.31,.18,.03,.32-.47,.39-1.25,.1,.1,.28,.2,.4,.25-.14,1.15-.41,1.6-.92,1.46-.59-.1-1.03-.58-1.37-1.33-.49,.59-1.06,1.09-1.69,1.51-.08-.1-.25-.28-.35-.37,.72-.43,1.34-.98,1.84-1.65-.33-.95-.54-2.22-.68-3.59h-3.69v-.47h3.64c-.05-.44-.07-.9-.1-1.35h.49c.02,.45,.06,.91,.09,1.35h2.69v.47h-2.65c.12,1.17,.3,2.25,.56,3.1,.44-.7,.8-1.53,1.02-2.45l.48,.09Zm-3.24,.12v2.23h-2.52v-2.23h2.52Zm-.45,.41h-1.62v1.4h1.62v-1.4Zm3.61-2.02c-.28-.26-.84-.61-1.33-.82l.28-.31c.48,.21,1.03,.52,1.33,.79l-.28,.33Z"/></g></g><g><path class="cls-9" d="M65.38,39.8c0,4.46-4.69,9.3-5.96,10.53-.18,.17-.46,.17-.63,0-1.27-1.23-5.96-6.07-5.96-10.53,0-3.47,2.81-6.28,6.28-6.28s6.28,2.81,6.28,6.28Z"/><path class="cls-11" d="M63.44,39.8c0,2.39-1.94,4.33-4.33,4.33s-4.33-1.94-4.33-4.33,1.94-4.33,4.33-4.33,4.33,1.94,4.33,4.33Z"/><g><path class="cls-3" d="M61.67,39.45l.58-.53q-.16-.38-.32-.77l-.78,.04c-.19-.19-.28-.28-.46-.46l.04-.79q-.38-.16-.77-.32l-.53,.58h-.66l-.53-.58q-.38,.16-.77,.32l.04,.79c-.19,.19-.28,.28-.46,.46l-.78-.04q-.16,.38-.32,.77l.58,.53v.66l-.58,.53q.16,.38,.32,.77l.78-.04c.19,.19,.28,.28,.46,.46l-.04,.78q.38,.16,.77,.32l.53-.58h.66l.53,.58q.38-.16,.77-.32l-.04-.78c.19-.19,.28-.28,.46-.46l.78,.04q.16-.38,.32-.77l-.58-.53v-.66Zm-2.57,2.38c-1.13,0-2.05-.92-2.05-2.05s.92-2.05,2.05-2.05,2.05,.92,2.05,2.05-.92,2.05-2.05,2.05Z"/><circle class="cls-3" cx="59.11" cy="39.78" r="1.53"/></g></g></g><g><g><rect class="cls-17" x="266.99" y="3.67" width="50" height="21.36" rx="10.68" ry="10.68"/><g><path class="cls-3" d="M290.2,11v5.11h-.56v-.69h-3.67v3.79h-.56v-3.79h-3.67v.75h-.54v-5.17h4.2v-2.05h.56v2.05h4.22Zm-4.78,3.88v-3.35h-3.67v3.35h3.67Zm4.22,0v-3.35h-3.67v3.35h3.67Z"/><path class="cls-3" d="M302.32,9.48v9.78h-.53v-.57h-8.27v.57h-.52V9.48h9.32Zm-.53,8.7V9.99h-8.27v8.19h8.27Zm-4.06-1.98c-1.24,.26-2.5,.56-3.45,.75l-.12-.45c.9-.16,2.22-.43,3.54-.7l.02,.41Zm2.76-3.3c-.29,1.14-.74,2.1-1.32,2.92,.31,.76,.69,1.24,1.18,1.31,.18,.03,.32-.47,.39-1.25,.1,.1,.28,.2,.4,.25-.14,1.15-.41,1.6-.92,1.46-.59-.1-1.03-.58-1.37-1.33-.49,.59-1.06,1.09-1.69,1.51-.08-.1-.25-.28-.35-.37,.72-.43,1.34-.98,1.84-1.65-.33-.95-.55-2.22-.68-3.59h-3.69v-.47h3.64c-.05-.44-.07-.9-.1-1.35h.49c.02,.45,.06,.91,.09,1.35h2.69v.47h-2.65c.13,1.17,.3,2.25,.56,3.1,.44-.7,.8-1.53,1.02-2.45l.48,.09Zm-3.23,.12v2.23h-2.52v-2.23h2.52Zm-.45,.41h-1.62v1.4h1.62v-1.4Zm3.61-2.02c-.28-.26-.84-.61-1.33-.82l.28-.31c.48,.21,1.03,.52,1.33,.79l-.28,.33Z"/></g></g><g><path class="cls-12" d="M298.5,33.6c0,4.46-4.69,9.3-5.96,10.53-.18,.17-.46,.17-.63,0-1.27-1.23-5.96-6.07-5.96-10.53,0-3.47,2.81-6.28,6.28-6.28s6.28,2.81,6.28,6.28Z"/><path class="cls-13" d="M296.56,33.6c0,2.39-1.94,4.33-4.33,4.33s-4.33-1.94-4.33-4.33,1.94-4.33,4.33-4.33,4.33,1.94,4.33,4.33Z"/><g><path class="cls-3" d="M294.79,33.25l.58-.53q-.16-.38-.32-.77l-.78,.04c-.19-.19-.28-.28-.46-.46l.04-.79q-.38-.16-.77-.32l-.53,.58h-.66l-.53-.58q-.38,.16-.77,.32l.04,.79c-.19,.19-.28,.28-.46,.46l-.78-.04q-.16,.38-.32,.77l.58,.53v.66l-.58,.53q.16,.38,.32,.77l.78-.04c.19,.19,.28,.28,.46,.46l-.04,.78q.38,.16,.77,.32l.53-.58h.66l.53,.58q.38-.16,.77-.32l-.04-.78c.19-.19,.28-.28,.46-.46l.78,.04q.16-.38,.32-.77l-.58-.53v-.66Zm-2.57,2.38c-1.13,0-2.05-.92-2.05-2.05s.92-2.05,2.05-2.05,2.05,.92,2.05,2.05-.92,2.05-2.05,2.05Z"/><circle class="cls-3" cx="292.22" cy="33.58" r="1.53"/></g></g></g><g><g><path class="cls-14" d="M343.14,60.47c0,4.46-4.69,9.3-5.96,10.53-.18,.17-.46,.17-.63,0-1.27-1.23-5.96-6.07-5.96-10.53,0-3.47,2.81-6.28,6.28-6.28s6.28,2.81,6.28,6.28Z"/><path class="cls-10" d="M341.2,60.47c0,2.39-1.94,4.33-4.33,4.33s-4.33-1.94-4.33-4.33,1.94-4.33,4.33-4.33,4.33,1.94,4.33,4.33Z"/><g><path class="cls-3" d="M339.43,60.12l.58-.53q-.16-.38-.32-.77l-.78,.04c-.19-.19-.28-.28-.46-.46l.04-.79q-.38-.16-.77-.32l-.53,.58h-.66l-.53-.58q-.38,.16-.77,.32l.04,.79c-.19,.19-.28,.28-.46,.46l-.78-.04q-.16,.38-.32,.77l.58,.53v.66l-.58,.53q.16,.38,.32,.77l.78-.04c.19,.19,.28,.28,.46,.46l-.04,.78q.38,.16,.77,.32l.53-.58h.66l.53,.58q.38-.16,.77-.32l-.04-.78c.19-.19,.28-.28,.46-.46l.78,.04q.16-.38,.32-.77l-.58-.53v-.66Zm-2.57,2.38c-1.13,0-2.05-.92-2.05-2.05s.92-2.05,2.05-2.05,2.05,.92,2.05,2.05-.92,2.05-2.05,2.05Z"/><circle class="cls-3" cx="336.86" cy="60.45" r="1.53"/></g></g><g><rect class="cls-15" x="323.38" y="29.72" width="50" height="21.36" rx="10.68" ry="10.68"/><g><path class="cls-3" d="M345.73,35.81v9.27h-.56v-.67h-6.02v.74h-.55v-9.33h7.12Zm-6.58,.55v3.45h6.02v-3.45h-6.02Zm6.02,7.52v-3.53h-6.02v3.53h6.02Z"/><path class="cls-3" d="M355.07,38.04c.87,2.08,2.48,4.02,4.19,4.89-.14,.12-.3,.32-.41,.45-1.77-1.01-3.41-3.09-4.31-5.35h-.22v4.45h2.83v.55h-2.83v2.24h-.56v-2.24h-2.81v-.55h2.81v-4.45h-.24c-.92,2.24-2.54,4.29-4.22,5.37-.09-.14-.26-.33-.39-.43,1.61-.93,3.17-2.89,4.05-4.94h-3.8v-.55h4.6v-2.5h.56v2.5h4.64v.55h-3.89Z"/></g></g></g><g><g><path class="cls-2" d="M308.32,76.57c-.49-.23-1.01-.48-1.56-.73l.18-.39c.55,.25,1.07,.5,1.57,.73l-.18,.39Zm-2.54-1.17c-.5-.23-1.03-.46-1.57-.71l.18-.39c.55,.24,1.07,.48,1.58,.71l-.18,.39Zm-248.78-1.11l-.18-.39c.4-.18,.81-.36,1.21-.54l.17,.39c-.4,.18-.8,.36-1.21,.54Zm246.22-.03c-.51-.22-1.04-.45-1.58-.69l.17-.4c.54,.23,1.07,.46,1.58,.69l-.17,.39Zm-244.03-.94l-.17-.39c.53-.23,1.05-.46,1.58-.69l.17,.39c-.52,.23-1.05,.46-1.57,.69Zm241.46-.17c-.52-.22-1.05-.44-1.59-.67l.17-.4c.54,.23,1.08,.45,1.59,.67l-.17,.4Zm-238.89-.95l-.17-.4c.53-.23,1.06-.45,1.59-.68l.17,.4c-.53,.22-1.06,.45-1.59,.68Zm236.31-.14c-.52-.21-1.05-.43-1.6-.65l.16-.4c.54,.22,1.08,.44,1.6,.65l-.16,.4Zm-233.73-.96l-.17-.4c.53-.22,1.06-.44,1.59-.66l.16,.4c-.53,.22-1.06,.44-1.59,.66Zm231.14-.1c-.52-.21-1.06-.42-1.6-.64l.16-.4c.55,.22,1.08,.43,1.61,.64l-.16,.4Zm-228.55-.97l-.16-.4c.53-.22,1.07-.43,1.6-.65l.16,.4c-.53,.21-1.07,.43-1.6,.65Zm225.94-.06c-.53-.21-1.06-.41-1.61-.62l.15-.4c.54,.21,1.08,.42,1.61,.62l-.16,.4Zm-223.34-.99l-.16-.4c.54-.21,1.07-.42,1.61-.63l.16,.4c-.53,.21-1.07,.42-1.6,.63Zm220.73-.02c-.53-.2-1.07-.4-1.61-.61l.15-.4c.55,.2,1.09,.41,1.62,.61l-.15,.4Zm-2.62-.98c-.53-.2-1.07-.39-1.62-.59l.15-.41c.55,.2,1.09,.4,1.62,.59l-.15,.4Zm-215.49-.03l-.16-.4c.54-.21,1.08-.41,1.61-.62l.15,.4c-.54,.2-1.07,.41-1.61,.62Zm212.86-.93c-.54-.19-1.08-.38-1.63-.58l.14-.41c.55,.19,1.09,.38,1.63,.58l-.14,.41Zm-210.24-.07l-.15-.4c.54-.2,1.08-.4,1.62-.6l.15,.4c-.54,.2-1.08,.4-1.62,.6Zm207.6-.86c-.54-.19-1.08-.37-1.63-.56l.14-.41c.55,.19,1.09,.37,1.63,.56l-.14,.41Zm-204.97-.11l-.15-.4c.54-.2,1.08-.39,1.62-.59l.15,.41c-.54,.19-1.08,.39-1.62,.58Zm202.32-.79c-.54-.18-1.09-.36-1.64-.54l.13-.41c.55,.18,1.1,.37,1.64,.55l-.14,.41Zm-199.68-.15l-.14-.41c.54-.19,1.09-.38,1.63-.57l.14,.41c-.54,.19-1.08,.38-1.63,.57Zm197.02-.73c-.54-.18-1.09-.35-1.64-.53l.13-.41c.55,.18,1.1,.35,1.64,.53l-.13,.41Zm-194.38-.19l-.14-.41c.55-.19,1.09-.37,1.63-.55l.14,.41c-.54,.18-1.09,.37-1.63,.55Zm191.71-.67c-.54-.17-1.09-.34-1.65-.52l.13-.41c.55,.17,1.1,.34,1.65,.52l-.13,.41Zm-189.06-.23l-.14-.41c.55-.18,1.09-.36,1.64-.54l.13,.41c-.55,.18-1.09,.36-1.64,.54Zm186.38-.61c-.55-.17-1.09-.33-1.65-.5l.12-.41c.55,.17,1.11,.33,1.65,.5l-.13,.41Zm-183.72-.26l-.13-.41c.55-.18,1.1-.35,1.64-.52l.13,.41c-.55,.17-1.09,.35-1.64,.52Zm181.04-.55c-.55-.16-1.1-.33-1.65-.49l.12-.41c.56,.16,1.11,.33,1.66,.49l-.12,.41Zm-178.37-.3l-.13-.41c.55-.17,1.1-.34,1.65-.51l.12,.41c-.55,.17-1.1,.34-1.65,.51Zm175.68-.49c-.55-.16-1.1-.32-1.66-.47l.12-.42c.56,.16,1.11,.32,1.66,.47l-.12,.41Zm-173-.33l-.12-.41c.55-.17,1.1-.33,1.65-.49l.12,.41c-.55,.16-1.1,.33-1.65,.49Zm170.31-.44c-.55-.15-1.11-.31-1.66-.46l.11-.42c.56,.15,1.11,.31,1.66,.46l-.12,.42Zm-167.62-.36l-.12-.41c.55-.16,1.11-.32,1.66-.48l.12,.41c-.55,.16-1.1,.31-1.66,.48Zm164.92-.38c-.55-.15-1.11-.3-1.67-.45l.11-.42c.56,.15,1.12,.3,1.67,.45l-.11,.42Zm-162.22-.38l-.12-.42c.56-.16,1.11-.31,1.66-.46l.11,.42c-.55,.15-1.11,.3-1.66,.46Zm159.51-.34c-.55-.14-1.11-.29-1.67-.43l.11-.42c.56,.14,1.12,.29,1.67,.43l-.11,.42Zm-156.81-.41l-.11-.42c.56-.15,1.11-.3,1.67-.44l.11,.42c-.55,.14-1.11,.29-1.67,.44Zm154.1-.29c-.55-.14-1.11-.28-1.67-.42l.1-.42c.56,.14,1.12,.28,1.68,.42l-.11,.42Zm-151.39-.42l-.11-.42c.56-.14,1.12-.29,1.67-.43l.11,.42c-.56,.14-1.11,.28-1.67,.43Zm148.67-.25c-.56-.13-1.12-.27-1.68-.4l.1-.42c.56,.13,1.12,.27,1.68,.4l-.1,.42Zm-145.96-.44l-.1-.42c.56-.14,1.12-.28,1.68-.41l.1,.42c-.56,.13-1.12,.27-1.67,.41Zm143.23-.21c-.56-.13-1.12-.26-1.68-.39l.1-.42c.56,.13,1.12,.26,1.68,.39l-.1,.42Zm-140.51-.46l-.1-.42c.56-.13,1.12-.27,1.68-.4l.1,.42c-.56,.13-1.12,.26-1.68,.4Zm137.78-.17c-.56-.12-1.12-.25-1.68-.37l.09-.42c.57,.12,1.13,.25,1.69,.37l-.09,.42Zm-135.05-.47l-.1-.42c.56-.13,1.12-.25,1.68-.38l.09,.42c-.56,.12-1.12,.25-1.68,.38Zm132.31-.13c-.56-.12-1.12-.24-1.69-.36l.09-.42c.57,.12,1.13,.24,1.69,.36l-.09,.42Zm-129.58-.48l-.09-.42c.56-.12,1.13-.24,1.69-.36l.09,.42c-.56,.12-1.12,.24-1.69,.36Zm126.84-.1c-.56-.12-1.12-.23-1.69-.34l.08-.42c.57,.11,1.13,.23,1.69,.35l-.09,.42Zm-124.1-.48l-.09-.42c.56-.12,1.13-.23,1.69-.35l.08,.42c-.56,.11-1.12,.23-1.69,.35Zm121.35-.07c-.56-.11-1.12-.22-1.69-.33l.08-.42c.57,.11,1.13,.22,1.7,.33l-.08,.42Zm-118.61-.48l-.08-.42c.56-.11,1.13-.22,1.69-.33l.08,.42c-.56,.11-1.13,.22-1.69,.33Zm115.86-.05c-.56-.11-1.13-.21-1.69-.32l.08-.42c.57,.1,1.13,.21,1.7,.32l-.08,.42Zm-113.11-.48l-.08-.42c.57-.11,1.13-.21,1.7-.31l.08,.42c-.56,.1-1.13,.21-1.69,.31Zm110.35-.03c-.56-.1-1.13-.2-1.7-.3l.07-.43c.57,.1,1.14,.2,1.7,.3l-.08,.42Zm-107.6-.48l-.08-.42c.57-.1,1.13-.2,1.7-.3l.07,.43c-.57,.1-1.13,.2-1.7,.3Zm104.84,0c-.56-.1-1.13-.19-1.7-.29l.07-.43c.57,.09,1.14,.19,1.7,.29l-.07,.43Zm-2.76-.46c-.57-.09-1.13-.18-1.7-.27l.07-.43c.57,.09,1.14,.18,1.71,.27l-.07,.43Zm-99.31-.01l-.07-.43c.57-.1,1.14-.19,1.7-.28l.07,.43c-.57,.09-1.13,.19-1.7,.28Zm96.55-.42c-.57-.09-1.13-.17-1.71-.25l.06-.43c.57,.08,1.14,.17,1.71,.26l-.06,.43Zm-93.78-.03l-.07-.43c.57-.09,1.14-.18,1.71-.26l.06,.43c-.57,.09-1.13,.17-1.7,.26Zm91.01-.38c-.57-.08-1.14-.16-1.71-.24l.06-.43c.57,.08,1.14,.16,1.71,.24l-.06,.43Zm-88.24-.04l-.06-.43c.57-.08,1.14-.17,1.71-.25l.06,.43c-.57,.08-1.14,.16-1.71,.25Zm85.47-.35c-.57-.08-1.14-.15-1.71-.23l.05-.43c.57,.07,1.14,.15,1.71,.23l-.06,.43Zm-82.69-.05l-.06-.43c.57-.08,1.14-.16,1.71-.23l.06,.43c-.57,.08-1.14,.15-1.71,.23Zm79.92-.31c-.57-.07-1.14-.14-1.71-.21l.05-.43c.57,.07,1.14,.14,1.71,.21l-.05,.43Zm-77.14-.06l-.06-.43c.57-.07,1.14-.15,1.71-.22l.05,.43c-.57,.07-1.14,.14-1.71,.22Zm74.36-.28c-.57-.07-1.14-.13-1.71-.2l.05-.43c.57,.06,1.15,.13,1.71,.2l-.05,.43Zm-71.58-.06l-.05-.43c.57-.07,1.14-.13,1.71-.2l.05,.43c-.57,.06-1.14,.13-1.71,.2Zm68.8-.25c-.57-.06-1.14-.12-1.71-.18l.04-.43c.57,.06,1.14,.12,1.72,.18l-.05,.43Zm-66.01-.07l-.05-.43c.57-.06,1.15-.12,1.72-.18l.04,.43c-.57,.06-1.14,.12-1.71,.18Zm63.23-.22c-.57-.06-1.14-.11-1.72-.17l.04-.43c.57,.05,1.15,.11,1.72,.17l-.04,.43Zm-60.44-.07l-.04-.43c.57-.06,1.15-.11,1.72-.17l.04,.43c-.57,.05-1.14,.11-1.72,.17Zm57.65-.2c-.57-.05-1.14-.1-1.72-.15l.04-.43c.57,.05,1.15,.1,1.72,.15l-.04,.43Zm-54.86-.07l-.04-.43c.57-.05,1.15-.1,1.72-.15l.04,.43c-.57,.05-1.14,.1-1.72,.15Zm52.07-.17c-.57-.05-1.14-.09-1.72-.14l.03-.43c.58,.04,1.15,.09,1.72,.14l-.04,.43Zm-49.28-.07l-.03-.43c.58-.05,1.15-.09,1.72-.13l.03,.43c-.57,.04-1.15,.09-1.72,.13Zm46.49-.15c-.57-.04-1.14-.08-1.72-.12l.03-.43c.58,.04,1.15,.08,1.72,.12l-.03,.43Zm-43.7-.06l-.03-.43c.58-.04,1.15-.08,1.72-.12l.03,.43c-.57,.04-1.15,.08-1.72,.12Zm40.9-.13c-.57-.04-1.15-.07-1.72-.1l.03-.43c.58,.03,1.15,.07,1.72,.1l-.03,.43Zm-38.08-.06l-.05-.43c.59-.04,1.16-.07,1.72-.1l.02,.43c-.56,.03-1.13,.07-1.7,.1Zm35.29-.11c-.57-.03-1.15-.06-1.72-.09l.02-.43c.58,.03,1.15,.06,1.72,.09l-.02,.43Zm-32.51-.05l-.02-.43c.58-.03,1.15-.06,1.72-.09l.02,.43c-.57,.03-1.15,.05-1.72,.08Zm29.72-.09c-.57-.03-1.15-.05-1.72-.07l.02-.43c.58,.02,1.15,.05,1.72,.07l-.02,.43Zm-26.9-.04l-.04-.43c.59-.02,1.16-.05,1.72-.07l.02,.43c-.57,.02-1.14,.04-1.71,.07Zm24.1-.07c-.57-.02-1.15-.04-1.72-.06v-.43c.59,.02,1.17,.04,1.74,.06l-.02,.43Zm-21.32-.04v-.43c.56-.02,1.14-.04,1.71-.05v.43c-.56,.02-1.14,.03-1.71,.05Zm18.52-.05c-.57-.02-1.15-.03-1.72-.04v-.43c.59,.01,1.16,.03,1.73,.04v.43Zm-15.73-.03v-.43c.57-.01,1.14-.03,1.72-.04v.43c-.57,.01-1.14,.02-1.72,.04Zm12.92-.04c-.57-.01-1.15-.02-1.72-.03v-.43c.58,0,1.16,.02,1.73,.03v.43Zm-10.13-.02v-.43c.57,0,1.15-.02,1.72-.02v.43c-.57,0-1.14,.01-1.72,.02Zm7.32-.02c-.57,0-1.15,0-1.72-.01v-.43c.58,0,1.15,0,1.73,.01v.43Zm-4.53,0v-.43c.57,0,1.15,0,1.72,0v.43c-.57,0-1.15,0-1.72,0Z"/><polygon class="cls-2" points="57.39 72.18 57.41 73.92 58.67 75.11 54.56 75.16 57.39 72.18"/></g><g><path class="cls-2" d="M309.49,71.62c-.43-.35-.87-.72-1.33-1.09l.27-.33c.46,.37,.91,.74,1.34,1.09l-.28,.33Zm-2.17-1.77c-.44-.35-.89-.71-1.35-1.07l.27-.34c.46,.36,.92,.72,1.35,1.07l-.27,.34Zm-2.2-1.73c-.45-.34-.9-.69-1.37-1.05l.26-.34c.47,.36,.93,.71,1.37,1.05l-.26,.34Zm-2.23-1.7c-.45-.34-.91-.68-1.39-1.03l.26-.35c.47,.35,.93,.69,1.39,1.03l-.26,.35Zm-2.25-1.66c-.46-.33-.93-.67-1.4-1.01l.25-.35c.48,.34,.94,.68,1.4,1.01l-.25,.35Zm-2.28-1.63c-.46-.33-.93-.66-1.41-.99l.24-.36c.48,.33,.95,.66,1.42,.99l-.25,.35Zm-2.3-1.59c-.47-.32-.95-.64-1.43-.96l.24-.36c.48,.32,.96,.65,1.43,.97l-.24,.36Zm-2.33-1.56c-.47-.31-.95-.63-1.44-.94l.23-.36c.49,.32,.97,.63,1.45,.95l-.24,.36Zm-2.35-1.53c-.48-.31-.96-.61-1.46-.92l.23-.37c.49,.31,.98,.62,1.46,.93l-.23,.36Zm-2.37-1.49c-.48-.3-.97-.6-1.47-.91l.22-.37c.5,.3,.99,.6,1.47,.91l-.23,.37Zm-2.39-1.46c-.49-.29-.98-.59-1.48-.88l.22-.37c.5,.3,.99,.59,1.48,.89l-.22,.37Zm-2.41-1.43c-.49-.29-.99-.58-1.49-.87l.21-.37c.5,.29,1,.58,1.5,.87l-.22,.37Zm-2.43-1.4c-.5-.28-1-.56-1.5-.84l.21-.38c.51,.28,1.01,.57,1.5,.85l-.21,.38Zm-2.45-1.37c-.5-.27-1-.55-1.51-.83l.21-.38c.51,.28,1.02,.55,1.52,.83l-.21,.38Zm-2.46-1.33c-.5-.27-1.01-.54-1.52-.8l.2-.38c.51,.27,1.02,.54,1.53,.81l-.2,.38Zm-2.48-1.3c-.51-.26-1.02-.52-1.54-.79l.2-.38c.52,.26,1.03,.52,1.54,.79l-.2,.38Zm-2.5-1.27c-.51-.25-1.03-.51-1.54-.77l.19-.39c.52,.25,1.04,.51,1.55,.77l-.19,.38Zm-2.51-1.24c-.51-.25-1.03-.5-1.55-.75l.19-.39c.52,.25,1.04,.5,1.56,.75l-.19,.39Zm-2.53-1.21c-.52-.24-1.04-.49-1.56-.73l.18-.39c.53,.24,1.05,.48,1.57,.73l-.18,.39Zm-2.54-1.17c-.52-.24-1.04-.47-1.57-.71l.18-.39c.53,.24,1.05,.47,1.58,.71l-.18,.39Zm-2.56-1.14c-.52-.23-1.05-.46-1.58-.69l.17-.4c.53,.23,1.06,.46,1.58,.69l-.17,.39Zm-2.57-1.11c-.53-.22-1.06-.45-1.59-.67l.17-.4c.53,.22,1.07,.45,1.59,.67l-.17,.4Zm-2.59-1.08c-.53-.22-1.06-.43-1.6-.65l.16-.4c.54,.21,1.07,.43,1.6,.65l-.16,.4Zm-2.6-1.04c-.53-.21-1.07-.42-1.6-.63l.15-.4c.54,.21,1.08,.42,1.61,.63l-.16,.4Zm-2.61-1.01c-.53-.2-1.07-.41-1.61-.61l.15-.4c.54,.2,1.08,.4,1.62,.61l-.15,.4Zm-2.62-.98c-.54-.2-1.08-.39-1.62-.59l.15-.41c.54,.2,1.09,.39,1.62,.59l-.15,.4Zm-2.63-.95c-.54-.19-1.08-.38-1.63-.57l.14-.41c.55,.19,1.09,.38,1.63,.57l-.14,.41Zm-2.65-.92c-.54-.18-1.09-.37-1.63-.55l.13-.41c.55,.18,1.09,.37,1.64,.55l-.14,.41Zm-164.45-.6l-.12-.42c.56-.16,1.11-.31,1.66-.46l.11,.42c-.55,.15-1.11,.31-1.66,.46Zm161.79-.29c-.54-.18-1.09-.35-1.64-.53l.13-.41c.55,.17,1.1,.35,1.64,.53l-.13,.41Zm-159.09-.46l-.11-.42c.56-.15,1.11-.3,1.67-.45l.11,.42c-.55,.15-1.11,.3-1.66,.45Zm156.42-.39c-.55-.17-1.1-.34-1.65-.51l.12-.41c.55,.17,1.1,.34,1.65,.51l-.13,.41Zm-153.72-.33l-.11-.42c.56-.15,1.11-.29,1.67-.44l.11,.42c-.56,.14-1.11,.29-1.67,.44Zm151.04-.49c-.55-.16-1.1-.33-1.65-.49l.12-.41c.55,.16,1.11,.32,1.66,.49l-.12,.41Zm-148.33-.21l-.11-.42c.56-.14,1.12-.28,1.67-.42l.11,.42c-.56,.14-1.11,.28-1.67,.42Zm145.64-.58c-.55-.16-1.1-.31-1.66-.47l.12-.42c.56,.16,1.11,.31,1.66,.47l-.12,.41Zm-142.92-.11l-.1-.42c.56-.14,1.12-.28,1.68-.41l.1,.42c-.56,.13-1.12,.27-1.67,.41Zm140.23-.65c-.55-.15-1.11-.3-1.66-.45l.11-.42c.56,.15,1.11,.3,1.67,.45l-.12,.42Zm-137.5-.01l-.1-.42c.56-.13,1.12-.27,1.68-.4l.1,.42c-.56,.13-1.12,.26-1.68,.4Zm2.73-.64l-.1-.42,1.68-.38,.1,.42-1.68,.38Zm132.07-.07c-.55-.14-1.11-.29-1.67-.43l.11-.42c.56,.14,1.12,.29,1.67,.43l-.11,.42Zm-129.34-.54l-.09-.42c.56-.12,1.13-.25,1.69-.37l.09,.42c-.56,.12-1.12,.24-1.68,.37Zm126.63-.15c-.56-.14-1.11-.27-1.67-.41l.1-.42c.56,.13,1.12,.27,1.68,.41l-.1,.42Zm-123.89-.44l-.09-.42c.56-.12,1.13-.24,1.69-.35l.09,.42c-.56,.12-1.12,.23-1.69,.35Zm121.17-.22c-.56-.13-1.12-.26-1.68-.39l.1-.42c.56,.13,1.12,.26,1.68,.39l-.1,.42Zm-118.42-.36l-.09-.42c.56-.12,1.13-.23,1.69-.34l.08,.42c-.56,.11-1.12,.22-1.69,.34Zm115.69-.27c-.56-.12-1.12-.25-1.68-.37l.09-.42c.56,.12,1.13,.25,1.69,.37l-.09,.42Zm-112.95-.28l-.08-.42c.57-.11,1.13-.22,1.69-.33l.08,.42c-.56,.11-1.13,.22-1.69,.33Zm110.21-.32c-.56-.12-1.12-.24-1.69-.35l.09-.42c.57,.12,1.13,.23,1.69,.35l-.09,.42Zm-107.46-.21l-.08-.42,1.7-.31,.08,.42-1.7,.31Zm104.72-.36c-.56-.11-1.12-.22-1.69-.33l.08-.42c.57,.11,1.13,.22,1.69,.33l-.08,.42Zm-101.96-.14l-.08-.42,1.7-.3,.07,.43-1.7,.3Zm99.21-.39c-.56-.1-1.13-.21-1.7-.31l.08-.42c.57,.1,1.13,.21,1.7,.31l-.08,.42Zm-96.45-.09l-.07-.43,1.7-.28,.07,.43-1.7,.28Zm93.69-.41c-.56-.1-1.13-.2-1.7-.29l.07-.43c.57,.1,1.14,.19,1.7,.29l-.07,.42Zm-90.93-.04l-.07-.43c.57-.09,1.14-.18,1.71-.27l.07,.43c-.57,.09-1.13,.18-1.7,.27Zm88.17-.42c-.57-.09-1.13-.18-1.7-.27l.07-.43c.57,.09,1.14,.18,1.71,.27l-.07,.43Zm-85.4,0l-.06-.43c.57-.09,1.14-.17,1.71-.25l.06,.43c-.57,.08-1.14,.17-1.71,.25Zm2.77-.4l-.06-.43c.57-.08,1.14-.16,1.71-.24l.06,.43c-.57,.08-1.14,.16-1.71,.24Zm79.87-.03c-.57-.09-1.13-.17-1.71-.25l.06-.43c.57,.08,1.14,.17,1.71,.25l-.06,.43Zm-77.09-.35l-.06-.43c.57-.08,1.14-.15,1.71-.22l.05,.43c-.57,.07-1.14,.15-1.71,.22Zm74.32-.06c-.57-.08-1.14-.16-1.71-.23l.06-.43c.57,.08,1.14,.15,1.71,.23l-.06,.43Zm-71.54-.3l-.05-.43c.57-.07,1.14-.14,1.71-.21l.05,.43c-.57,.07-1.14,.13-1.71,.21Zm68.76-.08c-.57-.07-1.14-.14-1.71-.21l.05-.43c.57,.07,1.14,.14,1.71,.21l-.05,.43Zm-65.98-.25l-.05-.43c.57-.07,1.15-.13,1.72-.19l.05,.43c-.57,.06-1.14,.12-1.71,.19Zm63.2-.09c-.57-.07-1.14-.13-1.71-.2l.05-.43c.57,.06,1.15,.13,1.72,.2l-.05,.43Zm-60.42-.21l-.04-.43c.57-.06,1.15-.12,1.72-.17l.04,.43c-.57,.06-1.14,.11-1.72,.17Zm57.64-.1c-.57-.06-1.14-.12-1.71-.18l.04-.43c.57,.06,1.15,.12,1.72,.18l-.04,.43Zm-54.85-.18l-.04-.43c.57-.05,1.15-.11,1.72-.16l.04,.43c-.57,.05-1.14,.1-1.72,.16Zm52.06-.1c-.57-.05-1.14-.11-1.72-.16l.04-.43c.57,.05,1.15,.1,1.72,.16l-.04,.43Zm-49.27-.15l-.04-.43c.57-.05,1.15-.1,1.72-.14l.03,.43c-.57,.05-1.14,.09-1.72,.14Zm46.48-.1c-.57-.05-1.14-.1-1.72-.14l.03-.43c.58,.04,1.15,.09,1.72,.14l-.04,.43Zm-43.69-.12l-.03-.43c.58-.04,1.15-.09,1.72-.12l.03,.43c-.57,.04-1.15,.08-1.72,.12Zm40.9-.1c-.57-.04-1.14-.08-1.72-.12l.03-.43c.58,.04,1.15,.08,1.72,.12l-.03,.43Zm-38.11-.1l-.03-.43c.58-.04,1.15-.07,1.72-.11l.03,.43c-.57,.03-1.15,.07-1.72,.11Zm35.31-.09c-.57-.04-1.14-.07-1.72-.1l.02-.43c.58,.03,1.15,.07,1.72,.1l-.03,.43Zm-32.52-.08l-.02-.43c.58-.03,1.15-.06,1.72-.09l.02,.43c-.57,.03-1.15,.06-1.72,.09Zm29.72-.08c-.57-.03-1.15-.06-1.72-.08l.02-.43c.58,.03,1.15,.05,1.72,.08l-.02,.43Zm-26.92-.06l-.02-.43c.58-.03,1.15-.05,1.72-.07l.02,.43c-.57,.02-1.15,.05-1.72,.07Zm24.13-.07c-.57-.02-1.15-.05-1.72-.07l.02-.43c.58,.02,1.15,.04,1.72,.07l-.02,.43Zm-21.33-.05l-.02-.43c.58-.02,1.15-.04,1.73-.06v.43c-.56,.02-1.13,.04-1.71,.06Zm18.53-.06c-.57-.02-1.15-.03-1.72-.05v-.43c.59,.01,1.16,.03,1.74,.05v.43Zm-15.74-.03v-.43c.56-.02,1.14-.03,1.71-.04v.43c-.57,.01-1.14,.02-1.71,.04Zm12.93-.04c-.57-.01-1.15-.02-1.72-.03v-.43c.58,0,1.16,.02,1.73,.03v.43Zm-10.14-.02v-.43c.57,0,1.15-.02,1.72-.02v.43c-.57,0-1.14,.01-1.72,.02Zm7.33-.02c-.57,0-1.15-.01-1.72-.01v-.43c.58,0,1.15,0,1.73,.01v.43Zm-4.53,0v-.43c.57,0,1.15,0,1.72,0v.43c-.58,0-1.15,0-1.72,0Z"/><polygon class="cls-2" points="80.58 36 79.51 34.63 79.75 32.91 76.51 35.44 80.58 36"/></g><g><path class="cls-2" d="M313.14,65.04s-.14-.63-.44-1.67l.41-.12c.3,1.05,.44,1.68,.44,1.69l-.42,.1Zm-.74-2.7c-.15-.5-.33-1.04-.52-1.64l.41-.14c.2,.6,.38,1.15,.53,1.65l-.41,.12Zm-.88-2.66c-.18-.51-.38-1.05-.6-1.61l.4-.16c.22,.56,.42,1.11,.6,1.62l-.41,.14Zm-1-2.61c-.21-.52-.44-1.04-.68-1.58l.39-.18c.24,.54,.47,1.07,.68,1.59l-.4,.16Zm-1.12-2.56c-.24-.51-.49-1.03-.76-1.54l.38-.2c.27,.52,.52,1.04,.76,1.56l-.39,.18Zm-1.26-2.49c-.27-.5-.55-1-.85-1.49l.37-.22c.3,.5,.58,1,.86,1.51l-.38,.21Zm-1.41-2.41c-.31-.49-.63-.97-.95-1.43l.35-.25c.32,.46,.65,.95,.96,1.44l-.37,.23Zm-1.58-2.29c-.34-.46-.7-.91-1.07-1.34l.33-.28c.37,.44,.73,.9,1.08,1.36l-.35,.26Zm-1.77-2.15c-.39-.42-.79-.83-1.2-1.22l.3-.31c.41,.4,.82,.82,1.22,1.25l-.32,.29Zm-1.99-1.94l-.33-.28,.28-.33,.33,.28-.28,.33Z"/><polygon class="cls-2" points="303.1 42.28 301.6 43.15 301.18 44.83 299.12 41.28 303.1 42.28"/></g><g><path class="cls-2" d="M317.01,63.7h-.43s0-.67,.12-1.75l.43,.04c-.11,1.05-.11,1.7-.11,1.7Zm.25-2.76l-.43-.06c.08-.56,.19-1.14,.31-1.71l.42,.09c-.12,.57-.22,1.14-.3,1.69Zm.54-2.73l-.42-.11c.14-.57,.3-1.13,.47-1.67l.41,.13c-.17,.53-.33,1.09-.47,1.65Zm.81-2.66l-.41-.15c.2-.55,.42-1.09,.65-1.62l.39,.17c-.23,.52-.44,1.05-.64,1.59Zm1.09-2.56l-.39-.19c.26-.53,.54-1.04,.83-1.53l.37,.22c-.28,.48-.56,.99-.81,1.5Zm1.38-2.41l-.36-.24c.11-.16,.22-.33,.33-.49l.35,.25c-.11,.16-.22,.32-.32,.48Z"/><polygon class="cls-2" points="321.78 51.93 320.93 50.42 319.26 49.98 322.84 47.96 321.78 51.93"/></g></g><g><g><path class="cls-6" d="M324.79,72.77c0,4.46-4.69,9.3-5.96,10.53-.18,.17-.46,.17-.63,0-1.27-1.23-5.96-6.07-5.96-10.53,0-3.47,2.81-6.28,6.28-6.28s6.28,2.81,6.28,6.28Z"/><path class="cls-7" d="M322.84,72.77c0,2.39-1.94,4.33-4.33,4.33s-4.33-1.94-4.33-4.33,1.94-4.33,4.33-4.33,4.33,1.94,4.33,4.33Z"/><g><path class="cls-3" d="M321.08,72.42l.58-.53q-.16-.38-.32-.77l-.78,.04c-.19-.19-.28-.28-.46-.46l.04-.79q-.38-.16-.77-.32l-.53,.58h-.66l-.53-.58q-.38,.16-.77,.32l.04,.79c-.19,.19-.28,.28-.46,.46l-.78-.04q-.16,.38-.32,.77l.58,.53v.66l-.58,.53q.16,.38,.32,.77l.78-.04c.19,.19,.28,.28,.46,.46l-.04,.78q.38,.16,.77,.32l.53-.58h.66l.53,.58q.38-.16,.77-.32l-.04-.78c.19-.19,.28-.28,.46-.46l.78,.04q.16-.38,.32-.77l-.58-.53v-.66Zm-2.57,2.38c-1.13,0-2.05-.92-2.05-2.05s.92-2.05,2.05-2.05,2.05,.92,2.05,2.05-.92,2.05-2.05,2.05Z"/><circle class="cls-3" cx="318.51" cy="72.75" r="1.53"/></g></g><g><rect class="cls-18" x="264.37" y="80.46" width="50" height="21.36" rx="10.68" ry="10.68"/><g><path class="cls-3" d="M288.11,95.29v.45h-9.98v-.45h4.7v-.74h-3.61v-.43h3.61v-.7c-2.41,.06-2.72,.09-2.92,.16-.03-.11-.09-.36-.14-.49,.16-.01,.37-.06,.61-.15,.19-.09,.75-.35,1.31-.69h-2.18v-.41h7.19v.41h-1.58c.68,.39,1.41,.9,1.81,1.26l-.35,.32c-.14-.14-.34-.31-.56-.48l-2.65,.06v.72h3.68v.43h-3.68v.74h4.73Zm-5.28-8.39h-4.64v-.43h4.64v-.75h.55v.75h4.68v.43h-4.68v.73h3.89v.42h-8.29v-.42h3.85v-.73Zm4.43,5.48v-1.14h-8.29v1.14h-.51v-1.57h9.31v1.57h-.51Zm-.56-3.76v1.61h-7.15v-1.61h7.15Zm-.54,.4h-6.1v.82h6.1v-.82Zm-3.7,3.22c-.5,.33-.99,.59-1.46,.8l4.47-.07c-.33-.23-.69-.43-1.01-.6l.15-.13h-2.15Z"/><path class="cls-3" d="M291.52,90.5c-.34-.38-1.04-.89-1.65-1.23l.33-.36c.6,.31,1.31,.79,1.65,1.18l-.33,.41Zm-1.45,5.08c.42-.89,1.02-2.36,1.43-3.61l.44,.29c-.38,1.17-.93,2.61-1.37,3.61l-.5-.29Zm1.63-8.05c-.32-.4-.99-.93-1.55-1.29l.32-.35c.58,.34,1.26,.86,1.59,1.25l-.35,.4Zm1.15,2.29c-.11,.57-.28,1.2-.51,1.61-.07-.06-.26-.16-.35-.2,.23-.43,.37-.97,.47-1.49l.4,.08Zm1.6-.45c-.03-.1-.08-.23-.15-.35-1.61,.23-1.86,.27-2.01,.35-.03-.09-.1-.28-.16-.38,.17-.01,.33-.16,.52-.39,.14-.12,.45-.5,.79-.94-.86,.08-1.04,.12-1.16,.16-.02-.08-.09-.28-.15-.36,.13-.02,.23-.12,.33-.27,.12-.16,.54-.79,.72-1.39l.42,.15c-.22,.52-.51,1.02-.79,1.4l.9-.07c.11-.17,.23-.34,.33-.52l.41,.18c-.45,.69-.98,1.37-1.49,1.91l1.18-.15c-.07-.15-.16-.3-.25-.43l.34-.13c.25,.35,.49,.81,.58,1.08l-.36,.16Zm5.14,4.49s-.01,.18-.05,.26c-.24,1.01-.48,1.51-.78,1.74-.22,.14-.41,.17-.75,.17-.31,0-.99,0-1.73-.06-.01-.14-.08-.33-.17-.47,.76,.08,1.52,.09,1.78,.09s.38,0,.49-.08c.21-.16,.4-.51,.58-1.22h-6.13c.17-.44,.35-1.03,.49-1.54h5.29v-.74h-5.76v-.42h6.27v1.57h-5.4c-.07,.25-.14,.48-.2,.7h6.07Zm-6.15-2.61c-.01-.37-.13-.99-.28-1.45l.36-.08c.16,.47,.28,1.04,.29,1.41l-.37,.13Zm.9-1.7c.2,.41,.4,.94,.45,1.26l-.35,.16c-.06-.34-.25-.89-.45-1.32l.35-.1Zm3.07-2.25h-2.75v-.41h2.75v.41Zm-2.44,2.15h2.12v1.67h-2.12v-1.67Zm2.11-1.29h-2.08v-.39h2.08v.39Zm-2.08,.43h2.08v.39h-2.08v-.39Zm.38,2.15h1.27v-.9h-1.27v.9Zm.56-3.86c-.1-.26-.3-.67-.51-.94l.41-.13c.22,.27,.44,.68,.52,.91l-.42,.16Zm2.15,2.92c-.11,.56-.31,1.17-.52,1.6-.08-.06-.25-.17-.35-.23,.24-.41,.36-.95,.47-1.46l.41,.09Zm1.67-.34c-.05-.14-.12-.31-.21-.47-1.62,.22-1.88,.27-2.03,.35-.02-.09-.09-.29-.15-.38,.16-.02,.33-.17,.52-.39,.14-.12,.45-.5,.78-.94-.84,.08-1.03,.11-1.15,.17-.02-.09-.1-.29-.15-.38,.13-.01,.22-.11,.33-.27,.11-.15,.53-.78,.71-1.37l.43,.15c-.23,.51-.51,1.01-.79,1.39l.87-.06c.13-.18,.23-.35,.33-.53l.42,.18c-.45,.69-.96,1.37-1.5,1.9l1.19-.14c-.08-.15-.17-.28-.26-.42l.34-.13c.27,.36,.55,.86,.65,1.18l-.35,.17Zm-1.07,1.88c0-.41-.14-1.07-.31-1.58l.36-.08c.18,.51,.31,1.15,.32,1.53l-.37,.13Zm.86-1.84c.27,.49,.49,1.1,.56,1.48l-.36,.16c-.07-.4-.29-1.03-.52-1.51l.33-.12Z"/></g></g></g></g></g></g></svg>