<?xml version="1.0" encoding="UTF-8"?><svg id="_圖層_2" xmlns="http://www.w3.org/2000/svg" xmlns:xlink="http://www.w3.org/1999/xlink" viewBox="0 0 1920 963.91"><defs><style>.cls-1,.cls-2{fill:none;}.cls-3{clip-path:url(#clippath);}.cls-4{fill:#026a34;}.cls-5{fill:#046c34;}.cls-6{fill:#016a34;}.cls-7{fill:#006934;}.cls-8{fill:#036b34;}.cls-9{fill:#007934;}.cls-10{fill:#fff;}.cls-11{fill:#137636;}.cls-12{fill:#127536;}.cls-13{fill:#107436;}.cls-14{fill:#0f7336;}.cls-15{fill:#207f38;}.cls-16{fill:#177837;}.cls-17{fill:#167837;}.cls-18{fill:#157736;}.cls-19{fill:#1f7e38;}.cls-20{fill:#1e7d38;}.cls-21{fill:#1d7d37;}.cls-22{fill:#228038;}.cls-23{fill:#217f38;}.cls-24{fill:#086f35;}.cls-25{fill:#076e35;}.cls-26{fill:#056c35;}.cls-27{fill:#066d35;}.cls-28{fill:#147636;}.cls-29{fill:#096f35;}.cls-30{fill:#0e7336;}.cls-31{fill:#187937;}.cls-32{fill:#0d7236;}.cls-33{fill:#1c7c37;}.cls-34{fill:#0a7035;}.cls-35{fill:#1a7a37;}.cls-36{fill:#197a37;}.cls-37{fill:#0c7135;}.cls-38{fill:#0b7135;}.cls-39{fill:#1b7b37;}.cls-40{fill:url(#_未命名漸層_12);}.cls-41{fill:url(#_未命名漸層_43);}.cls-42{fill:url(#_未命名漸層_66);}.cls-43{fill:url(#_未命名漸層_64);}.cls-2{stroke:#007934;stroke-dasharray:0 0 8 5;stroke-miterlimit:10;stroke-width:2px;}.cls-44{fill:url(#_未命名漸層_12-2);}.cls-45{fill:url(#_未命名漸層_12-3);}.cls-46{fill:url(#_未命名漸層_12-8);}.cls-47{fill:url(#_未命名漸層_12-4);}.cls-48{fill:url(#_未命名漸層_12-5);}.cls-49{fill:url(#_未命名漸層_12-6);}.cls-50{fill:url(#_未命名漸層_12-7);}.cls-51{fill:url(#_未命名漸層_43-4);}.cls-52{fill:url(#_未命名漸層_43-2);}.cls-53{fill:url(#_未命名漸層_43-3);}</style><linearGradient id="_未命名漸層_43" x1="227.84" y1="305.38" x2="337.84" y2="305.38" gradientUnits="userSpaceOnUse"><stop offset="0" stop-color="#323e48"/><stop offset="1" stop-color="#485563"/></linearGradient><linearGradient id="_未命名漸層_12" x1="282.84" y1="337.17" x2="282.84" y2="415.7" gradientUnits="userSpaceOnUse"><stop offset="0" stop-color="#4ed354"/><stop offset=".43" stop-color="#45c650"/><stop offset="1" stop-color="#37b04a"/></linearGradient><linearGradient id="_未命名漸層_12-2" y1="386.37" y2="346.18" xlink:href="#_未命名漸層_12"/><linearGradient id="_未命名漸層_43-2" x1="312.9" y1="124.67" x2="422.9" y2="124.67" xlink:href="#_未命名漸層_43"/><linearGradient id="_未命名漸層_12-3" x1="367.9" y1="156.46" x2="367.9" y2="234.99" xlink:href="#_未命名漸層_12"/><linearGradient id="_未命名漸層_12-4" x1="367.9" y1="205.66" x2="367.9" y2="165.47" xlink:href="#_未命名漸層_12"/><linearGradient id="_未命名漸層_43-3" x1="1394.03" y1="95.9" x2="1504.03" y2="95.9" xlink:href="#_未命名漸層_43"/><linearGradient id="_未命名漸層_12-5" x1="1449.03" y1="127.69" x2="1449.03" y2="206.22" xlink:href="#_未命名漸層_12"/><linearGradient id="_未命名漸層_12-6" x1="1449.03" y1="176.89" x2="1449.03" y2="136.7" xlink:href="#_未命名漸層_12"/><linearGradient id="_未命名漸層_12-7" x1="1644.09" y1="221.56" x2="1644.09" y2="300.09" xlink:href="#_未命名漸層_12"/><linearGradient id="_未命名漸層_12-8" x1="1644.09" y1="270.76" x2="1644.09" y2="230.57" xlink:href="#_未命名漸層_12"/><linearGradient id="_未命名漸層_43-4" x1="1589.09" y1="189.77" x2="1699.09" y2="189.77" xlink:href="#_未命名漸層_43"/><linearGradient id="_未命名漸層_66" x1="1548.07" y1="365.93" x2="1593.81" y2="320.19" gradientUnits="userSpaceOnUse"><stop offset="0" stop-color="#006934"/><stop offset="1" stop-color="#228038"/></linearGradient><linearGradient id="_未命名漸層_64" x1="1556.73" y1="352.69" x2="1585.15" y2="324.27" gradientUnits="userSpaceOnUse"><stop offset="0" stop-color="#228038"/><stop offset="1" stop-color="#006934"/></linearGradient><clipPath id="clippath"><rect class="cls-1" x="1440.44" y="363.58" width="110" height="47" rx="23.5" ry="23.5"/></clipPath></defs><g id="_內容"><g><rect class="cls-1" y="0" width="1920" height="963.91"/><g><g><g><rect class="cls-41" x="227.84" y="281.88" width="110" height="47" rx="23.5" ry="23.5"/><g><path class="cls-10" d="M267.24,314.6v1.05h-22.57v-1.05h10.65v-2.52h-8v-1.03h8v-1.72h1.17v1.72h8.05v1.03h-8.05v2.52h10.75Zm-.55-8.65h-21.49v-.97h10.12v-2h-8.22v-.98h8.22v-1.8h-7.97v-5.82h17.17v5.82h-8.02v1.8h8.45v.98h-8.45v2h10.2v.97Zm-21.19,3.78c1.12-.78,2.17-2.12,2.8-3.45l1.02,.28c-.67,1.35-1.7,2.9-2.92,3.85l-.9-.67Zm9.82-10.45v-3.97h-6.8v3.97h6.8Zm-3.97-3.68c.62,.98,1.27,2.28,1.47,3.12l-.9,.38c-.2-.85-.83-2.17-1.45-3.15l.87-.35Zm1.65,14.1c-.12-.78-.55-2-.98-2.92l1.05-.22c.45,.9,.85,2.07,1,2.87l-1.07,.28Zm10.35-14.4h-6.85v3.97h6.85v-3.97Zm-4.32,14.37c-.38-.8-1.17-2-1.92-2.9l.92-.35c.8,.82,1.6,1.97,2,2.77l-1,.47Zm-.27-10.95c.52-.82,1.17-2.22,1.5-3.12l1,.43c-.52,1.1-1.15,2.3-1.67,3.1l-.82-.4Zm4.32,7.47c1.25,.93,2.77,2.3,3.5,3.2l-.92,.62c-.7-.9-2.22-2.3-3.47-3.3l.9-.53Z"/><path class="cls-10" d="M285.37,296.43v4.12h6.37v15.32h-1.2v-1.5h-16.62v1.62h-1.15v-15.45h6.12v-4.12h-7.52v-1.18h21.62v1.18h-7.62Zm5.17,16.79v-5c-.12,.03-.27,.03-.42,.03h-3.77c-1.7,0-2.15-.35-2.15-1.85v-4.7h-4.2c-.12,2.67-1.07,5.62-4.9,7.65-.12-.28-.5-.72-.72-.9,3.57-1.85,4.37-4.4,4.5-6.75h-4.95v11.52h16.62Zm-6.35-16.79h-4.17v4.12h4.17v-4.12Zm1.17,5.27v4.7c0,.55,.1,.67,1.05,.67h3.57c.3,0,.48,0,.55-.03v-5.35h-5.17Z"/><path class="cls-10" d="M319.44,305.52h-3.22v9.02c0,.82-.2,1.15-.85,1.37-.65,.2-1.8,.2-3.72,.2-.05-.35-.27-.8-.45-1.12,1.57,.03,2.9,.03,3.27,0,.4-.03,.5-.12,.5-.45v-9.02h-17.47v-1.1h17.25v-8.47h-16.7v-1.1h20.89v1.1h-3v8.47h3.5v1.1Zm-8.3,7.55h-9.15v1.2h-1.2v-6.37h10.35v5.17Zm.38-15.3v4.8h-10.57v-4.8h10.57Zm-9.52,11.15v3.12h7.97v-3.12h-7.97Zm8.4-10.2h-8.35v2.88h8.35v-2.88Z"/></g></g><g><path class="cls-40" d="M311.94,366.27c0,20.7-21.74,43.13-27.64,48.84-.82,.79-2.11,.79-2.93,0-5.9-5.71-27.64-28.13-27.64-48.84,0-16.07,13.03-29.11,29.11-29.11s29.11,13.03,29.11,29.11Z"/><path class="cls-44" d="M302.93,366.27c0,11.1-9,20.1-20.1,20.1s-20.1-9-20.1-20.1,9-20.1,20.1-20.1,20.1,9,20.1,20.1Z"/><g><path class="cls-10" d="M294.75,364.65l2.71-2.44q-.74-1.78-1.48-3.57l-3.64,.19c-.86-.86-1.29-1.29-2.15-2.15l.19-3.64q-1.78-.74-3.57-1.48l-2.44,2.71h-3.04l-2.44-2.71q-1.78,.74-3.57,1.48l.19,3.64c-.86,.86-1.29,1.29-2.15,2.15l-3.64-.19q-.74,1.78-1.48,3.57l2.71,2.44v3.04l-2.71,2.44q.74,1.78,1.48,3.57l3.64-.19c.86,.86,1.29,1.29,2.15,2.15l-.19,3.64q1.78,.74,3.57,1.48l2.44-2.71h3.04l2.44,2.71q1.78-.74,3.57-1.48l-.19-3.64c.86-.86,1.29-1.29,2.15-2.15l3.64,.19q.74-1.78,1.48-3.57l-2.71-2.44v-3.04Zm-11.91,11.04c-5.25,0-9.51-4.26-9.51-9.51s4.26-9.51,9.51-9.51,9.51,4.26,9.51,9.51-4.26,9.51-9.51,9.51Z"/><circle class="cls-10" cx="282.84" cy="366.17" r="7.09"/></g></g></g><g><g><rect class="cls-52" x="312.9" y="101.17" width="110" height="47" rx="23.5" ry="23.5"/><g><path class="cls-10" d="M365.2,123.76v1.1h-10.55c-.1,.83-.23,1.6-.4,2.33h10.72v1.1h-11.02c-1.22,3.67-3.9,5.9-10.45,7.02-.12-.3-.42-.8-.62-1.08,6.07-.95,8.6-2.87,9.77-5.95h-8.92v-1.1h9.25c.17-.73,.33-1.47,.42-2.33h-10.22v-1.1h10.3v-2.6h-7.97v-1.08h7.97v-2.5h-9.32v-1.12h5.57c-.45-.95-1.35-2.3-2.25-3.3l1.02-.48c.95,1.03,1.92,2.4,2.35,3.32l-.87,.45h7.15c.8-1.08,1.82-2.65,2.37-3.77l1.17,.5c-.65,1.08-1.5,2.3-2.22,3.27h5.7v1.12h-9.45v2.5h8.22v1.08h-8.22v2.6h10.5Zm-10.37,5.15c3.62,1.47,8.05,3.85,10.3,5.57l-.57,1.02c-2.2-1.75-6.67-4.17-10.27-5.7l.55-.9Z"/><path class="cls-10" d="M390.65,113.94v21.52h-1.17v-1.25h-18.2v1.25h-1.15v-21.52h20.52Zm-1.17,19.15v-18.02h-18.2v18.02h18.2Zm-8.92-4.35c-2.72,.58-5.5,1.22-7.6,1.65l-.25-1c1.97-.35,4.87-.95,7.8-1.55l.05,.9Zm6.07-7.27c-.65,2.5-1.62,4.62-2.9,6.42,.67,1.67,1.52,2.72,2.6,2.88,.4,.07,.7-1.03,.85-2.75,.22,.23,.62,.45,.87,.55-.3,2.52-.9,3.52-2.02,3.22-1.3-.23-2.27-1.27-3.02-2.92-1.07,1.3-2.32,2.4-3.72,3.32-.18-.22-.55-.62-.77-.82,1.57-.95,2.95-2.15,4.05-3.62-.72-2.1-1.2-4.87-1.5-7.9h-8.12v-1.02h8.02c-.1-.97-.15-1.97-.23-2.97h1.07c.05,1,.12,2,.2,2.97h5.92v1.02h-5.82c.27,2.57,.65,4.95,1.22,6.82,.97-1.55,1.75-3.37,2.25-5.4l1.05,.2Zm-7.12,.25v4.9h-5.55v-4.9h5.55Zm-1,.9h-3.57v3.07h3.57v-3.07Zm7.95-4.45c-.62-.57-1.85-1.35-2.92-1.8l.62-.68c1.05,.45,2.27,1.15,2.92,1.75l-.62,.72Z"/></g></g><g><path class="cls-45" d="M397.01,185.56c0,20.7-21.74,43.13-27.64,48.84-.82,.79-2.11,.79-2.93,0-5.9-5.71-27.64-28.13-27.64-48.84,0-16.07,13.03-29.11,29.11-29.11s29.11,13.03,29.11,29.11Z"/><path class="cls-47" d="M388,185.56c0,11.1-9,20.1-20.1,20.1s-20.1-9-20.1-20.1,9-20.1,20.1-20.1,20.1,9,20.1,20.1Z"/><g><path class="cls-10" d="M379.82,183.94l2.71-2.44q-.74-1.78-1.48-3.57l-3.64,.19c-.86-.86-1.29-1.29-2.15-2.15l.19-3.64q-1.78-.74-3.57-1.48l-2.44,2.71h-3.04l-2.44-2.71q-1.78,.74-3.57,1.48l.19,3.64c-.86,.86-1.29,1.29-2.15,2.15l-3.64-.19q-.74,1.78-1.48,3.57l2.71,2.44v3.04l-2.71,2.44q.74,1.78,1.48,3.57l3.64-.19c.86,.86,1.29,1.29,2.15,2.15l-.19,3.64q1.78,.74,3.57,1.48l2.44-2.71h3.04l2.44,2.71q1.78-.74,3.57-1.48l-.19-3.64c.86-.86,1.29-1.29,2.15-2.15l3.64,.19q.74-1.78,1.48-3.57l-2.71-2.44v-3.04Zm-11.91,11.04c-5.25,0-9.51-4.26-9.51-9.51s4.26-9.51,9.51-9.51,9.51,4.26,9.51,9.51-4.26,9.51-9.51,9.51Z"/><circle class="cls-10" cx="367.9" cy="185.46" r="7.09"/></g></g></g><g><g><rect class="cls-53" x="1394.03" y="72.4" width="110" height="47" rx="23.5" ry="23.5"/><g><path class="cls-10" d="M1445.11,88.52v11.25h-1.22v-1.53h-8.07v8.35h-1.22v-8.35h-8.07v1.65h-1.17v-11.37h9.25v-4.52h1.22v4.52h9.3Zm-10.52,8.55v-7.37h-8.07v7.37h8.07Zm9.3,0v-7.37h-8.07v7.37h8.07Z"/><path class="cls-10" d="M1471.78,85.17v21.52h-1.17v-1.25h-18.2v1.25h-1.15v-21.52h20.52Zm-1.17,19.14v-18.02h-18.2v18.02h18.2Zm-8.92-4.35c-2.72,.58-5.5,1.22-7.6,1.65l-.25-1c1.97-.35,4.87-.95,7.8-1.55l.05,.9Zm6.07-7.27c-.65,2.5-1.62,4.62-2.9,6.42,.67,1.68,1.52,2.72,2.6,2.88,.4,.07,.7-1.03,.85-2.75,.22,.23,.62,.45,.87,.55-.3,2.52-.9,3.52-2.02,3.22-1.3-.23-2.27-1.28-3.02-2.93-1.07,1.3-2.32,2.4-3.72,3.32-.17-.22-.55-.62-.77-.82,1.57-.95,2.95-2.15,4.05-3.62-.72-2.1-1.2-4.88-1.5-7.9h-8.12v-1.03h8.02c-.1-.97-.15-1.97-.23-2.97h1.08c.05,1,.12,2,.2,2.97h5.92v1.03h-5.82c.28,2.57,.65,4.95,1.22,6.82,.97-1.55,1.75-3.37,2.25-5.4l1.05,.2Zm-7.12,.25v4.9h-5.55v-4.9h5.55Zm-1,.9h-3.57v3.07h3.57v-3.07Zm7.95-4.45c-.62-.57-1.85-1.35-2.92-1.8l.62-.68c1.05,.45,2.27,1.15,2.92,1.75l-.62,.72Z"/></g></g><g><path class="cls-48" d="M1478.14,156.79c0,20.7-21.74,43.13-27.64,48.84-.82,.79-2.11,.79-2.93,0-5.9-5.71-27.64-28.13-27.64-48.84,0-16.07,13.03-29.11,29.11-29.11s29.11,13.03,29.11,29.11Z"/><path class="cls-49" d="M1469.13,156.79c0,11.1-9,20.1-20.1,20.1s-20.1-9-20.1-20.1,9-20.1,20.1-20.1,20.1,9,20.1,20.1Z"/><g><path class="cls-10" d="M1460.95,155.17l2.71-2.44q-.74-1.78-1.48-3.57l-3.64,.19c-.86-.86-1.29-1.29-2.15-2.15l.19-3.64q-1.78-.74-3.57-1.48l-2.44,2.71h-3.04l-2.44-2.71q-1.78,.74-3.57,1.48l.19,3.64c-.86,.86-1.29,1.29-2.15,2.15l-3.64-.19q-.74,1.78-1.48,3.57l2.71,2.44v3.04l-2.71,2.44q.74,1.78,1.48,3.57l3.64-.19c.86,.86,1.29,1.29,2.15,2.15l-.19,3.64q1.78,.74,3.57,1.48l2.44-2.71h3.04l2.44,2.71q1.78-.74,3.57-1.48l-.19-3.64c.86-.86,1.29-1.29,2.15-2.15l3.64,.19q.74-1.78,1.48-3.57l-2.71-2.44v-3.04Zm-11.91,11.04c-5.25,0-9.51-4.26-9.51-9.51s4.26-9.51,9.51-9.51,9.51,4.26,9.51,9.51-4.26,9.51-9.51,9.51Z"/><circle class="cls-10" cx="1449.03" cy="156.69" r="7.09"/></g></g></g><g><path class="cls-50" d="M1673.19,250.66c0,20.7-21.74,43.13-27.64,48.84-.82,.79-2.11,.79-2.93,0-5.9-5.71-27.64-28.13-27.64-48.84,0-16.07,13.03-29.11,29.11-29.11s29.11,13.03,29.11,29.11Z"/><path class="cls-46" d="M1664.18,250.66c0,11.1-9,20.1-20.1,20.1s-20.1-9-20.1-20.1,9-20.1,20.1-20.1,20.1,9,20.1,20.1Z"/><g><path class="cls-10" d="M1656,249.04l2.71-2.44q-.74-1.78-1.48-3.57l-3.64,.19c-.86-.86-1.29-1.29-2.15-2.15l.19-3.64q-1.78-.74-3.57-1.48l-2.44,2.71h-3.04l-2.44-2.71q-1.78,.74-3.57,1.48l.19,3.64c-.86,.86-1.29,1.29-2.15,2.15l-3.64-.19q-.74,1.78-1.48,3.57l2.71,2.44v3.04l-2.71,2.44q.74,1.78,1.48,3.57l3.64-.19c.86,.86,1.29,1.29,2.15,2.15l-.19,3.64q1.78,.74,3.57,1.48l2.44-2.71h3.04l2.44,2.71q1.78-.74,3.57-1.48l-.19-3.64c.86-.86,1.29-1.29,2.15-2.15l3.64,.19q.74-1.78,1.48-3.57l-2.71-2.44v-3.04Zm-11.91,11.04c-5.25,0-9.51-4.26-9.51-9.51s4.26-9.51,9.51-9.51,9.51,4.26,9.51,9.51-4.26,9.51-9.51,9.51Z"/><circle class="cls-10" cx="1644.09" cy="250.56" r="7.09"/></g></g><g><rect class="cls-51" x="1589.09" y="166.27" width="110" height="47" rx="23.5" ry="23.5"/><g><path class="cls-10" d="M1638.26,179.67v20.39h-1.22v-1.47h-13.25v1.62h-1.2v-20.54h15.67Zm-14.47,1.2v7.6h13.25v-7.6h-13.25Zm13.25,16.55v-7.77h-13.25v7.77h13.25Z"/><path class="cls-10" d="M1658.81,184.57c1.92,4.57,5.45,8.85,9.22,10.77-.3,.25-.67,.7-.9,1-3.9-2.22-7.5-6.8-9.5-11.77h-.48v9.8h6.22v1.2h-6.22v4.92h-1.22v-4.92h-6.17v-1.2h6.17v-9.8h-.52c-2.03,4.92-5.6,9.45-9.3,11.82-.2-.3-.57-.72-.85-.95,3.55-2.05,6.97-6.37,8.92-10.87h-8.37v-1.2h10.12v-5.5h1.22v5.5h10.22v1.2h-8.57Z"/></g></g><g><path class="cls-2" d="M1524.11,355.18c-121.87-57.27-618.62-257.37-1166.41-10.58"/><polygon class="cls-9" points="359.82 335.6 359.98 343.65 365.88 349.12 346.83 349.55 359.82 335.6"/></g><g><path class="cls-2" d="M460.1,162.08C1056.43-4.72,1420.46,240.48,1533.21,335.25"/><polygon class="cls-9" points="467.51 167.77 462.5 161.47 463.55 153.5 448.62 165.33 467.51 167.77"/></g><g><path class="cls-2" d="M1547,302.41s-15.56-69.16-56.33-102.99"/><polygon class="cls-9" points="1499.51 196.95 1492.56 201.01 1490.66 208.83 1481 192.41 1499.51 196.95"/></g><g><path class="cls-2" d="M1563,296.41s0-34.19,20.57-63.65"/><polygon class="cls-9" points="1586.11 241.83 1582.18 234.8 1574.4 232.76 1591 223.41 1586.11 241.83"/></g><g><g><path class="cls-42" d="M1600.05,338.48c0,20.7-21.74,43.13-27.64,48.84-.82,.79-2.11,.79-2.93,0-5.9-5.71-27.64-28.13-27.64-48.84,0-16.07,13.03-29.11,29.11-29.11s29.11,13.03,29.11,29.11Z"/><path class="cls-43" d="M1591.03,338.48c0,11.1-9,20.1-20.1,20.1s-20.1-9-20.1-20.1,9-20.1,20.1-20.1,20.1,9,20.1,20.1Z"/><g><path class="cls-10" d="M1582.85,336.85l2.71-2.44q-.74-1.78-1.48-3.57l-3.64,.19c-.86-.86-1.29-1.29-2.15-2.15l.19-3.64q-1.78-.74-3.57-1.48l-2.44,2.71h-3.04l-2.44-2.71q-1.78,.74-3.57,1.48l.19,3.64c-.86,.86-1.29,1.29-2.15,2.15l-3.64-.19q-.74,1.78-1.48,3.57l2.71,2.44v3.04l-2.71,2.44q.74,1.78,1.48,3.57l3.64-.19c.86,.86,1.29,1.29,2.15,2.15l-.19,3.64q1.78,.74,3.57,1.48l2.44-2.71h3.04l2.44,2.71q1.78-.74,3.57-1.48l-.19-3.64c.86-.86,1.29-1.29,2.15-2.15l3.64,.19q.74-1.78,1.48-3.57l-2.71-2.44v-3.04Zm-11.91,11.04c-5.25,0-9.51-4.26-9.51-9.51s4.26-9.51,9.51-9.51,9.51,4.26,9.51,9.51-4.26,9.51-9.51,9.51Z"/><circle class="cls-10" cx="1570.94" cy="338.38" r="7.09"/></g></g><g><g class="cls-3"><rect class="cls-7" x="1440.44" y="363.58" width="3.24" height="47"/><rect class="cls-6" x="1443.67" y="363.58" width="3.24" height="47"/><rect class="cls-4" x="1446.91" y="363.58" width="3.24" height="47"/><rect class="cls-8" x="1450.15" y="363.58" width="3.24" height="47"/><rect class="cls-5" x="1453.38" y="363.58" width="3.24" height="47"/><rect class="cls-26" x="1456.62" y="363.58" width="3.24" height="47"/><rect class="cls-27" x="1459.85" y="363.58" width="3.24" height="47"/><rect class="cls-25" x="1463.09" y="363.58" width="3.24" height="47"/><rect class="cls-24" x="1466.32" y="363.58" width="3.24" height="47"/><rect class="cls-29" x="1469.56" y="363.58" width="3.24" height="47"/><rect class="cls-34" x="1472.79" y="363.58" width="3.24" height="47"/><rect class="cls-38" x="1476.03" y="363.58" width="3.24" height="47"/><rect class="cls-37" x="1479.26" y="363.58" width="3.24" height="47"/><rect class="cls-32" x="1482.5" y="363.58" width="3.24" height="47"/><rect class="cls-30" x="1485.73" y="363.58" width="3.24" height="47"/><rect class="cls-14" x="1488.97" y="363.58" width="3.24" height="47"/><rect class="cls-13" x="1492.2" y="363.58" width="3.24" height="47"/><rect class="cls-12" x="1495.44" y="363.58" width="3.24" height="47"/><rect class="cls-11" x="1498.67" y="363.58" width="3.24" height="47"/><rect class="cls-28" x="1501.91" y="363.58" width="3.24" height="47"/><rect class="cls-18" x="1505.15" y="363.58" width="3.24" height="47"/><rect class="cls-17" x="1508.38" y="363.58" width="3.24" height="47"/><rect class="cls-16" x="1511.62" y="363.58" width="3.24" height="47"/><rect class="cls-31" x="1514.85" y="363.58" width="3.24" height="47"/><rect class="cls-36" x="1518.09" y="363.58" width="3.24" height="47"/><rect class="cls-35" x="1521.32" y="363.58" width="3.24" height="47"/><rect class="cls-39" x="1524.56" y="363.58" width="3.24" height="47"/><rect class="cls-33" x="1527.79" y="363.58" width="3.24" height="47"/><rect class="cls-21" x="1531.03" y="363.58" width="3.24" height="47"/><rect class="cls-20" x="1534.26" y="363.58" width="3.24" height="47"/><rect class="cls-19" x="1537.5" y="363.58" width="3.24" height="47"/><rect class="cls-15" x="1540.73" y="363.58" width="3.24" height="47"/><rect class="cls-23" x="1543.97" y="363.58" width="3.24" height="47"/><rect class="cls-22" x="1547.2" y="363.58" width="3.24" height="47"/></g><g><path class="cls-10" d="M1492.66,396.2v1h-21.97v-1h10.35v-1.62h-7.95v-.95h7.95v-1.55c-5.3,.12-5.97,.2-6.42,.35-.08-.25-.2-.8-.3-1.08,.35-.02,.82-.12,1.35-.33,.42-.2,1.65-.77,2.87-1.52h-4.8v-.9h15.82v.9h-3.47c1.5,.85,3.1,1.97,3.97,2.77l-.78,.7c-.3-.3-.75-.67-1.22-1.05l-5.82,.12v1.57h8.1v.95h-8.1v1.62h10.42Zm-11.62-18.47h-10.22v-.95h10.22v-1.65h1.2v1.65h10.3v.95h-10.3v1.6h8.57v.92h-18.25v-.92h8.47v-1.6Zm9.75,12.07v-2.5h-18.25v2.5h-1.12v-3.45h20.5v3.45h-1.12Zm-1.22-8.27v3.55h-15.75v-3.55h15.75Zm-1.17,.88h-13.42v1.8h13.42v-1.8Zm-8.15,7.1c-1.1,.72-2.17,1.3-3.22,1.75l9.85-.15c-.73-.5-1.53-.95-2.22-1.32l.32-.28h-4.72Z"/><path class="cls-10" d="M1500.17,385.65c-.75-.85-2.3-1.95-3.62-2.7l.72-.8c1.33,.67,2.87,1.75,3.62,2.6l-.72,.9Zm-3.2,11.17c.92-1.95,2.25-5.2,3.15-7.95l.97,.65c-.85,2.57-2.05,5.75-3.02,7.95l-1.1-.65Zm3.6-17.72c-.7-.88-2.17-2.05-3.42-2.85l.7-.78c1.27,.75,2.77,1.9,3.5,2.75l-.77,.88Zm2.52,5.05c-.25,1.25-.62,2.65-1.12,3.55-.15-.12-.58-.35-.78-.45,.5-.95,.83-2.12,1.03-3.27l.88,.17Zm3.52-1c-.08-.22-.17-.5-.32-.77-3.55,.5-4.1,.6-4.42,.77-.07-.2-.22-.62-.35-.85,.38-.02,.72-.35,1.15-.85,.3-.28,1-1.1,1.75-2.07-1.9,.17-2.3,.27-2.55,.35-.05-.17-.2-.62-.32-.8,.27-.05,.5-.27,.72-.6,.25-.35,1.17-1.75,1.57-3.05l.92,.33c-.47,1.15-1.12,2.25-1.75,3.07l1.97-.15c.25-.38,.5-.75,.72-1.15l.9,.4c-1,1.52-2.15,3.02-3.27,4.2l2.6-.33c-.15-.33-.35-.65-.55-.95l.75-.27c.55,.77,1.07,1.77,1.27,2.37l-.8,.35Zm11.32,9.87s-.02,.4-.1,.58c-.53,2.22-1.05,3.32-1.72,3.82-.47,.3-.9,.38-1.65,.38-.67,0-2.17,0-3.8-.12-.02-.3-.17-.72-.37-1.02,1.67,.17,3.35,.2,3.92,.2s.85,0,1.07-.17c.48-.35,.88-1.12,1.28-2.7h-13.5c.38-.97,.77-2.27,1.07-3.4h11.65v-1.62h-12.67v-.92h13.8v3.45h-11.9c-.15,.55-.3,1.05-.45,1.55h13.37Zm-13.55-5.75c-.02-.82-.27-2.17-.62-3.2l.8-.17c.35,1.03,.62,2.3,.65,3.1l-.83,.27Zm1.97-3.75c.45,.9,.88,2.08,1,2.77l-.77,.35c-.12-.75-.55-1.95-1-2.9l.77-.23Zm6.75-4.95h-6.05v-.9h6.05v.9Zm-5.37,4.72h4.67v3.67h-4.67v-3.67Zm4.65-2.85h-4.57v-.85h4.57v.85Zm-4.57,.95h4.57v.85h-4.57v-.85Zm.85,4.72h2.8v-1.97h-2.8v1.97Zm1.22-8.5c-.22-.57-.67-1.47-1.12-2.07l.9-.28c.47,.6,.97,1.5,1.15,2l-.92,.35Zm4.72,6.42c-.25,1.22-.67,2.57-1.15,3.52-.17-.12-.55-.37-.77-.5,.52-.9,.8-2.1,1.02-3.22l.9,.2Zm3.67-.75c-.1-.3-.25-.67-.45-1.02-3.57,.47-4.15,.6-4.47,.77-.05-.2-.2-.65-.33-.85,.35-.05,.72-.38,1.15-.85,.3-.28,1-1.1,1.72-2.08-1.85,.18-2.27,.25-2.52,.38-.05-.2-.22-.65-.33-.85,.28-.02,.48-.25,.73-.6,.25-.33,1.17-1.72,1.57-3.02l.95,.33c-.5,1.12-1.12,2.22-1.75,3.05l1.92-.12c.27-.4,.5-.77,.72-1.17l.92,.4c-1,1.52-2.12,3.02-3.3,4.17l2.62-.3c-.17-.33-.38-.62-.58-.92l.75-.28c.6,.8,1.2,1.9,1.42,2.6l-.77,.38Zm-2.35,4.15c0-.9-.3-2.35-.67-3.47l.8-.17c.4,1.12,.67,2.52,.7,3.37l-.82,.28Zm1.9-4.05c.6,1.08,1.07,2.42,1.22,3.25l-.8,.35c-.15-.88-.65-2.27-1.15-3.32l.72-.28Z"/></g></g></g></g></g></g></svg>