<svg xmlns="http://www.w3.org/2000/svg" xmlns:xlink="http://www.w3.org/1999/xlink" viewBox="0 0 110 133.82"><defs><style>.cls-1{fill:url(#未命名漸層_43);}.cls-2{fill:url(#未命名漸層_12);}.cls-3{fill:url(#未命名漸層_12-2);}.cls-4{fill:#fff;}</style><linearGradient id="未命名漸層_43" y1="23.5" x2="110" y2="23.5" gradientUnits="userSpaceOnUse"><stop offset="0" stop-color="#323e48"/><stop offset="1" stop-color="#485563"/></linearGradient><linearGradient id="未命名漸層_12" x1="55" y1="55.29" x2="55" y2="133.82" gradientUnits="userSpaceOnUse"><stop offset="0" stop-color="#4ed354"/><stop offset="0.43" stop-color="#46c750"/><stop offset="1" stop-color="#37b04a"/></linearGradient><linearGradient id="未命名漸層_12-2" x1="55" y1="104.49" x2="55" y2="64.3" xlink:href="#未命名漸層_12"/></defs><g id="圖層_2" data-name="圖層 2"><g id="BG"><rect class="cls-1" width="110" height="47" rx="23.5"/><path class="cls-2" d="M84.11,84.39c0,20.71-21.74,43.13-27.65,48.84a2.1,2.1,0,0,1-2.92,0c-5.91-5.71-27.65-28.13-27.65-48.84a29.11,29.11,0,0,1,58.22,0Z"/><path class="cls-3" d="M75.1,84.39A20.1,20.1,0,1,1,55,64.3,20.1,20.1,0,0,1,75.1,84.39Z"/><path class="cls-4" d="M66.91,82.77l2.71-2.44-1.48-3.57L64.5,77l-2.15-2.16.18-3.64L59,69.67l-2.44,2.71h-3L51,69.67l-3.57,1.48.18,3.64L45.5,77l-3.64-.19-1.48,3.57,2.71,2.44v3l-2.71,2.44,1.48,3.57,3.64-.19,2.15,2.16-.18,3.64L51,98.92l2.44-2.71h3L59,98.92l3.57-1.48-.18-3.64,2.15-2.16,3.64.19,1.48-3.57-2.71-2.44ZM55,93.81a9.52,9.52,0,1,1,9.51-9.51A9.51,9.51,0,0,1,55,93.81Z"/><circle class="cls-4" cx="55" cy="84.3" r="7.09"/><path class="cls-4" d="M49.18,13.4V33.79H48V32.32H34.7v1.62H33.5V13.4ZM34.7,14.6v7.6H48V14.6ZM48,31.14V23.37H34.7v7.77Z"/><path class="cls-4" d="M69.73,18.3c1.92,4.57,5.45,8.84,9.22,10.77a7.07,7.07,0,0,0-.9,1c-3.9-2.23-7.5-6.8-9.5-11.77h-.47v9.79H74.3v1.2H68.08v4.93H66.85V29.29H60.68v-1.2h6.17V18.3h-.52c-2,4.92-5.6,9.44-9.3,11.82a4.82,4.82,0,0,0-.85-.95c3.55-2.05,7-6.38,8.92-10.87H56.73V17.1H66.85V11.6h1.23v5.5H78.3v1.2Z"/></g></g></svg>