<svg xmlns="http://www.w3.org/2000/svg" xmlns:xlink="http://www.w3.org/1999/xlink" viewBox="0 0 110 133.33"><defs><style>.cls-1{fill:url(#未命名漸層_66);}.cls-2{fill:url(#未命名漸層_64);}.cls-3{fill:#fff;}.cls-4{fill:url(#未命名漸層_66-2);}</style><linearGradient id="未命名漸層_66" x1="32.13" y1="111.35" x2="77.87" y2="65.6" gradientUnits="userSpaceOnUse"><stop offset="0" stop-color="#006934"/><stop offset="1" stop-color="#228038"/></linearGradient><linearGradient id="未命名漸層_64" x1="40.79" y1="98.11" x2="69.21" y2="69.69" gradientUnits="userSpaceOnUse"><stop offset="0" stop-color="#228038"/><stop offset="1" stop-color="#006934"/></linearGradient><linearGradient id="未命名漸層_66-2" x1="0" y1="23.5" x2="110" y2="23.5" xlink:href="#未命名漸層_66"/></defs><g id="圖層_2" data-name="圖層 2"><g id="BG"><path class="cls-1" d="M84.11,83.9c0,20.7-21.74,43.12-27.65,48.83a2.1,2.1,0,0,1-2.92,0C47.63,127,25.89,104.6,25.89,83.9a29.11,29.11,0,1,1,58.22,0Z"/><path class="cls-2" d="M75.1,83.9A20.1,20.1,0,1,1,55,63.8,20.1,20.1,0,0,1,75.1,83.9Z"/><path class="cls-3" d="M66.91,82.27l2.71-2.44-1.48-3.57-3.64.19-2.15-2.16.18-3.64L59,69.18l-2.44,2.7h-3L51,69.18l-3.57,1.47.18,3.64L45.5,76.45l-3.64-.19-1.48,3.57,2.71,2.44v3l-2.71,2.44,1.48,3.57,3.64-.19,2.15,2.16-.18,3.64L51,98.42l2.44-2.71h3L59,98.42l3.57-1.48-.18-3.64,2.15-2.16,3.64.19,1.48-3.57-2.71-2.44ZM55,93.31a9.52,9.52,0,1,1,9.51-9.51A9.51,9.51,0,0,1,55,93.31Z"/><circle class="cls-3" cx="55" cy="83.8" r="7.09"/><rect class="cls-4" width="110" height="47" rx="23.5"/><path class="cls-3" d="M52.22,32.62v1h-22v-1H40.6V31h-8V30h8V28.49c-5.3.13-6,.2-6.42.35-.08-.25-.2-.8-.3-1.07a5.21,5.21,0,0,0,1.35-.33,30,30,0,0,0,2.87-1.52H33.3V25H49.13v.9H45.65a24.92,24.92,0,0,1,4,2.77l-.78.7c-.3-.3-.75-.67-1.22-1.05l-5.83.13V30h8.1V31H41.8v1.63ZM40.6,14.15H30.38v-1H40.6V11.55h1.2V13.2H52.1v1H41.8v1.6h8.58v.92H32.13v-.92H40.6Zm9.75,12.07v-2.5H32.1v2.5H31V22.77h20.5v3.45ZM49.13,18V21.5H33.38V18ZM48,18.82H34.53v1.8H48Zm-8.15,7.1a21,21,0,0,1-3.22,1.75l9.85-.15a25.63,25.63,0,0,0-2.23-1.33l.33-.27Z"/><path class="cls-3" d="M59.73,22.07a16.16,16.16,0,0,0-3.62-2.7l.72-.8a13.93,13.93,0,0,1,3.62,2.6Zm-3.2,11.17a75.31,75.31,0,0,0,3.15-8l1,.65c-.85,2.58-2,5.75-3,8Zm3.6-17.72a16.29,16.29,0,0,0-3.42-2.85l.7-.77a15.73,15.73,0,0,1,3.49,2.75Zm2.52,5.05a13.47,13.47,0,0,1-1.12,3.55,5.31,5.31,0,0,0-.78-.45,11.38,11.38,0,0,0,1-3.27Zm3.53-1a5.23,5.23,0,0,0-.33-.77c-3.55.5-4.1.6-4.42.77-.08-.2-.23-.62-.35-.85.37,0,.72-.35,1.15-.85A21.46,21.46,0,0,0,64,15.8a12.61,12.61,0,0,0-2.55.35,3.22,3.22,0,0,0-.33-.8,1.27,1.27,0,0,0,.73-.6A12.56,12.56,0,0,0,63.4,11.7l.93.32a15,15,0,0,1-1.75,3.08l2-.15c.25-.38.5-.75.73-1.15l.9.4a30.4,30.4,0,0,1-3.28,4.2l2.6-.33a7.55,7.55,0,0,0-.55-.95l.75-.27A10.61,10.61,0,0,1,67,19.22ZM77.5,29.44a2.26,2.26,0,0,1-.1.58c-.52,2.22-1.05,3.32-1.72,3.82a2.75,2.75,0,0,1-1.65.38c-.68,0-2.18,0-3.8-.13a2.5,2.5,0,0,0-.38-1c1.68.17,3.35.2,3.93.2s.85,0,1.07-.18c.48-.35.88-1.12,1.28-2.7H62.63c.37-1,.77-2.27,1.07-3.4H75.35V25.37H62.68v-.93h13.8v3.45H64.58c-.15.55-.3,1.05-.45,1.55ZM64,23.69a12.33,12.33,0,0,0-.62-3.19l.8-.18a12.56,12.56,0,0,1,.65,3.1Zm2-3.74a12.38,12.38,0,0,1,1,2.77l-.78.35a12.69,12.69,0,0,0-1-2.9ZM72.68,15H66.63v-.9h6.05ZM67.3,19.72H72v3.67H67.3ZM72,16.87H67.38V16H72Zm-4.57.95H72v.85H67.38Zm.85,4.73H71v-2h-2.8Zm1.22-8.5A9.66,9.66,0,0,0,68.33,12l.9-.27a8.79,8.79,0,0,1,1.15,2Zm4.73,6.42A15.31,15.31,0,0,1,73,24c-.18-.12-.55-.37-.78-.49a10.92,10.92,0,0,0,1-3.23Zm3.67-.75a5.8,5.8,0,0,0-.45-1c-3.57.47-4.15.6-4.47.77a3.73,3.73,0,0,0-.33-.85,2.24,2.24,0,0,0,1.15-.85,19.38,19.38,0,0,0,1.73-2.07,9.42,9.42,0,0,0-2.53.37,5.88,5.88,0,0,0-.32-.85c.27,0,.47-.25.72-.6a11.6,11.6,0,0,0,1.58-3l.95.32A16,16,0,0,1,74.13,15l1.92-.12c.28-.4.5-.78.73-1.18l.92.4a25.15,25.15,0,0,1-3.3,4.18L77,18c-.18-.33-.38-.63-.58-.93l.75-.27a10.64,10.64,0,0,1,1.43,2.6ZM75.5,23.87a13,13,0,0,0-.67-3.47l.8-.18a13,13,0,0,1,.7,3.37Zm1.9-4.05a12.57,12.57,0,0,1,1.23,3.25l-.8.35a16.26,16.26,0,0,0-1.15-3.32Z"/></g></g></svg>