<svg xmlns="http://www.w3.org/2000/svg" xmlns:xlink="http://www.w3.org/1999/xlink" viewBox="0 0 110 133.82"><defs><style>.cls-1{fill:url(#未命名漸層_43);}.cls-2{fill:#fff;}.cls-3{fill:url(#未命名漸層_12);}.cls-4{fill:url(#未命名漸層_12-2);}</style><linearGradient id="未命名漸層_43" y1="23.5" x2="110" y2="23.5" gradientUnits="userSpaceOnUse"><stop offset="0" stop-color="#323e48"/><stop offset="1" stop-color="#485563"/></linearGradient><linearGradient id="未命名漸層_12" x1="55" y1="55.29" x2="55" y2="133.82" gradientUnits="userSpaceOnUse"><stop offset="0" stop-color="#4ed354"/><stop offset="0.43" stop-color="#46c750"/><stop offset="1" stop-color="#37b04a"/></linearGradient><linearGradient id="未命名漸層_12-2" x1="55" y1="104.49" x2="55" y2="64.3" xlink:href="#未命名漸層_12"/></defs><g id="圖層_2" data-name="圖層 2"><g id="BG"><rect class="cls-1" width="110" height="47" rx="23.5"/><path class="cls-2" d="M39.4,32.72v1.05H16.83V32.72H27.48V30.19h-8v-1h8V27.44h1.17v1.73H36.7v1H28.65v2.53Zm-.55-8.65H17.36v-1H27.48v-2H19.26v-1h8.22v-1.8h-8V12.5H36.68v5.82h-8v1.8H37.1v1H28.65v2h10.2ZM17.66,27.84a9,9,0,0,0,2.79-3.45l1,.28a11.71,11.71,0,0,1-2.92,3.85ZM27.48,17.4v-4h-6.8v4Zm-4-3.68A12,12,0,0,1,25,16.85l-.9.37a12.26,12.26,0,0,0-1.45-3.15Zm1.65,14.1a13.36,13.36,0,0,0-1-2.93l1.05-.22a12.32,12.32,0,0,1,1,2.87ZM35.5,13.42H28.65v4H35.5ZM31.18,27.79a16,16,0,0,0-1.93-2.9l.93-.35a12.74,12.74,0,0,1,2,2.78ZM30.9,16.85a18.32,18.32,0,0,0,1.5-3.13l1,.43a29,29,0,0,1-1.67,3.1Zm4.33,7.47a22.28,22.28,0,0,1,3.5,3.2l-.93.62a24.86,24.86,0,0,0-3.47-3.3Z"/><path class="cls-2" d="M57.53,14.55v4.12H63.9V34H62.7v-1.5H46.08v1.63H44.93V18.67h6.12V14.55H43.53V13.37H65.15v1.18ZM62.7,31.34v-5a1.84,1.84,0,0,1-.42,0H58.5c-1.7,0-2.15-.35-2.15-1.85v-4.7h-4.2a8.48,8.48,0,0,1-4.9,7.65,2.89,2.89,0,0,0-.72-.9A7.46,7.46,0,0,0,51,19.82h-5V31.34ZM56.35,14.55H52.18v4.12h4.17Zm1.18,5.27v4.7c0,.55.1.67,1,.67h3.57a3.22,3.22,0,0,0,.55,0V19.82Z"/><path class="cls-2" d="M91.6,23.64H88.38v9c0,.82-.2,1.15-.85,1.37a16.27,16.27,0,0,1-3.73.2,3.71,3.71,0,0,0-.45-1.12c1.58,0,2.9,0,3.28,0s.5-.13.5-.45v-9H69.66v-1.1H86.9V14.07H70.21V13H91.1v1.1h-3v8.47h3.5Zm-8.3,7.55H74.15v1.2H73V26H83.3Zm.38-15.29v4.8H73.11V15.9ZM74.15,27v3.13h8V27Zm8.4-10.19H74.2v2.87h8.35Z"/><path class="cls-3" d="M84.11,84.39c0,20.71-21.74,43.13-27.65,48.84a2.1,2.1,0,0,1-2.92,0c-5.91-5.71-27.65-28.13-27.65-48.84a29.11,29.11,0,0,1,58.22,0Z"/><path class="cls-4" d="M75.1,84.39A20.1,20.1,0,1,1,55,64.3,20.1,20.1,0,0,1,75.1,84.39Z"/><path class="cls-2" d="M66.91,82.77l2.71-2.44-1.48-3.57L64.5,77l-2.15-2.16.18-3.64L59,69.67l-2.44,2.71h-3L51,69.67l-3.57,1.48.18,3.64L45.5,77l-3.64-.19-1.48,3.57,2.71,2.44v3l-2.71,2.44,1.48,3.57,3.64-.19,2.15,2.16-.18,3.64L51,98.92l2.44-2.71h3L59,98.92l3.57-1.48-.18-3.64,2.15-2.16,3.64.19,1.48-3.57-2.71-2.44ZM55,93.81a9.52,9.52,0,1,1,9.51-9.51A9.51,9.51,0,0,1,55,93.81Z"/><circle class="cls-2" cx="55" cy="84.3" r="7.09"/></g></g></svg>