<svg xmlns="http://www.w3.org/2000/svg" xmlns:xlink="http://www.w3.org/1999/xlink" viewBox="0 0 110 133.82"><defs><style>.cls-1{fill:url(#未命名漸層_43);}.cls-2{fill:#fff;}.cls-3{fill:url(#未命名漸層_12);}.cls-4{fill:url(#未命名漸層_12-2);}</style><linearGradient id="未命名漸層_43" y1="23.5" x2="110" y2="23.5" gradientUnits="userSpaceOnUse"><stop offset="0" stop-color="#323e48"/><stop offset="1" stop-color="#485563"/></linearGradient><linearGradient id="未命名漸層_12" x1="55" y1="55.29" x2="55" y2="133.82" gradientUnits="userSpaceOnUse"><stop offset="0" stop-color="#4ed354"/><stop offset="0.43" stop-color="#46c750"/><stop offset="1" stop-color="#37b04a"/></linearGradient><linearGradient id="未命名漸層_12-2" x1="55" y1="104.49" x2="55" y2="64.3" xlink:href="#未命名漸層_12"/></defs><g id="圖層_2" data-name="圖層 2"><g id="BG"><rect class="cls-1" width="110" height="47" rx="23.5"/><path class="cls-2" d="M52.3,22.59v1.1H41.75a19.46,19.46,0,0,1-.4,2.33H52.08v1.1h-11c-1.22,3.67-3.9,5.9-10.44,7A6.82,6.82,0,0,0,30,33.07c6.07-1,8.6-2.88,9.77-5.95H30.83V26h9.25a20.71,20.71,0,0,0,.42-2.33H30.28v-1.1h10.3V20h-8V18.92h8v-2.5H31.26V15.3h5.57A15.49,15.49,0,0,0,34.58,12l1-.48A14.75,14.75,0,0,1,38,14.85l-.87.45h7.15a27.87,27.87,0,0,0,2.37-3.78l1.18.5c-.65,1.08-1.5,2.3-2.23,3.28h5.7v1.12H41.8v2.5H50V20H41.8v2.59ZM41.93,27.74a52.34,52.34,0,0,1,10.3,5.58l-.58,1a52.65,52.65,0,0,0-10.27-5.7Z"/><path class="cls-2" d="M77.75,12.77V34.29H76.58V33H58.38v1.25H57.23V12.77ZM76.58,31.92v-18H58.38v18Zm-8.93-4.35c-2.72.57-5.5,1.22-7.6,1.65l-.25-1c2-.35,4.88-.95,7.8-1.55Zm6.08-7.27a19.61,19.61,0,0,1-2.9,6.42c.67,1.67,1.52,2.72,2.6,2.87.4.08.7-1,.85-2.75a2.83,2.83,0,0,0,.87.55c-.3,2.53-.9,3.53-2,3.23-1.3-.23-2.28-1.28-3-2.93A16.85,16.85,0,0,1,66.38,31a7.6,7.6,0,0,0-.78-.83,14,14,0,0,0,4.05-3.62,36.78,36.78,0,0,1-1.5-7.9H60v-1h8c-.1-1-.15-2-.22-3H68.9c0,1,.13,2,.2,3H75v1H69.2a38.06,38.06,0,0,0,1.23,6.82,18.59,18.59,0,0,0,2.25-5.39Zm-7.13.25v4.89H61.05V20.55Zm-1,.89H62v3.08H65.6Zm8-4.44a11.32,11.32,0,0,0-2.92-1.8l.62-.68a11.65,11.65,0,0,1,2.93,1.75Z"/><path class="cls-3" d="M84.11,84.39c0,20.71-21.74,43.13-27.65,48.84a2.1,2.1,0,0,1-2.92,0c-5.91-5.71-27.65-28.13-27.65-48.84a29.11,29.11,0,0,1,58.22,0Z"/><path class="cls-4" d="M75.1,84.39A20.1,20.1,0,1,1,55,64.3,20.1,20.1,0,0,1,75.1,84.39Z"/><path class="cls-2" d="M66.91,82.77l2.71-2.44-1.48-3.57L64.5,77l-2.15-2.16.18-3.64L59,69.67l-2.44,2.71h-3L51,69.67l-3.57,1.48.18,3.64L45.5,77l-3.64-.19-1.48,3.57,2.71,2.44v3l-2.71,2.44,1.48,3.57,3.64-.19,2.15,2.16-.18,3.64L51,98.92l2.44-2.71h3L59,98.92l3.57-1.48-.18-3.64,2.15-2.16,3.64.19,1.48-3.57-2.71-2.44ZM55,93.81a9.52,9.52,0,1,1,9.51-9.51A9.51,9.51,0,0,1,55,93.81Z"/><circle class="cls-2" cx="55" cy="84.3" r="7.09"/></g></g></svg>