<?xml version="1.0" encoding="UTF-8"?><svg xmlns="http://www.w3.org/2000/svg" xmlns:xlink="http://www.w3.org/1999/xlink" viewBox="0 0 280.59 315.91"><defs><style>.cls-1{fill:url(#linear-gradient);}.cls-2{fill:url(#_未命名漸層_448);}.cls-3{fill:url(#_未命名漸層_2306);}.cls-4{fill:url(#_未命名漸層_2305);}.cls-5{fill:url(#radial-gradient);mix-blend-mode:multiply;}.cls-6{isolation:isolate;}</style><radialGradient id="radial-gradient" cx="140.3" cy="175.61" fx="140.3" fy="175.61" r="140.3" gradientUnits="userSpaceOnUse"><stop offset=".43" stop-color="#525252"/><stop offset=".49" stop-color="#757575"/><stop offset=".57" stop-color="#9f9f9f"/><stop offset=".65" stop-color="#c1c1c1"/><stop offset=".74" stop-color="#dcdcdc"/><stop offset=".82" stop-color="#efefef"/><stop offset=".91" stop-color="#fbfbfb"/><stop offset="1" stop-color="#fff"/></radialGradient><linearGradient id="linear-gradient" x1="67.58" y1="215.83" x2="213.35" y2="36.47" gradientUnits="userSpaceOnUse"><stop offset="0" stop-color="#b2782a"/><stop offset=".06" stop-color="#b67e2e"/><stop offset=".14" stop-color="#c49139"/><stop offset=".24" stop-color="#d9b04b"/><stop offset=".33" stop-color="#f4d662"/><stop offset=".72" stop-color="#f4de8b"/><stop offset=".86" stop-color="#f4d662"/><stop offset="1" stop-color="#b2782a"/></linearGradient><linearGradient id="_未命名漸層_448" x1="238.86" y1="20.01" x2="47.4" y2="226.35" gradientUnits="userSpaceOnUse"><stop offset="0" stop-color="#a78015"/><stop offset=".09" stop-color="#d7b75f"/><stop offset=".14" stop-color="#ecce7f"/><stop offset=".26" stop-color="#ffffce"/><stop offset=".36" stop-color="#ecce7f"/><stop offset=".61" stop-color="#ecce7f"/><stop offset=".74" stop-color="#ffffce"/><stop offset=".84" stop-color="#ecce7f"/><stop offset="1" stop-color="#a78315"/><stop offset="1" stop-color="#a77515"/></linearGradient><linearGradient id="_未命名漸層_2306" x1="80.7" y1="200.22" x2="201.47" y2="48.02" gradientUnits="userSpaceOnUse"><stop offset=".33" stop-color="#f4d662"/><stop offset=".72" stop-color="#f4de8b"/><stop offset=".86" stop-color="#f4d662"/><stop offset="1" stop-color="#b2782a"/></linearGradient><linearGradient id="_未命名漸層_2305" x1="743.1" y1="-617.61" x2="91.98" y2="184.73" gradientUnits="userSpaceOnUse"><stop offset="0" stop-color="#aa8e00"/><stop offset=".05" stop-color="#af9306"/><stop offset=".11" stop-color="#bda019"/><stop offset=".19" stop-color="#d5b738"/><stop offset=".27" stop-color="#f4d662"/><stop offset=".63" stop-color="#f4de8b"/><stop offset=".84" stop-color="#f4d662"/><stop offset="1" stop-color="#fcf3bb"/></linearGradient></defs><g class="cls-6"><g id="_圖層_2"><g id="_說明"><g><path class="cls-5" d="M280.59,175.61c0,77.49-62.81,140.3-140.29,140.3S0,253.1,0,175.61,62.81,35.32,140.3,35.32s140.29,62.81,140.29,140.29Z"/><path class="cls-1" d="M129.76,2.77c4.17-3.69,10.98-3.69,15.15,0,4.17,3.68,11.62,4.63,16.57,2.09,4.95-2.53,11.54-.84,14.66,3.77,3.11,4.61,10.12,7.38,15.54,6.15,5.42-1.22,11.4,2.07,13.28,7.3,1.87,5.24,7.96,9.66,13.51,9.81,5.57,.18,10.52,4.84,11.04,10.38,.51,5.54,5.31,11.33,10.65,12.88,5.34,1.54,8.98,7.3,8.12,12.8-.88,5.48,2.31,12.29,7.11,15.11,4.79,2.82,6.91,9.31,4.69,14.4-2.23,5.1-.82,12.49,3.12,16.42,3.95,3.92,4.38,10.73,.96,15.12-3.41,4.38-3.89,11.88-1.04,16.66,2.83,4.79,1.55,11.48-2.85,14.89-4.4,3.41-6.72,10.55-5.16,15.89,1.57,5.33-1.34,11.49-6.44,13.69-5.11,2.2-9.13,8.55-8.95,14.11,.17,5.55-4.16,10.8-9.66,11.67-5.49,.86-10.98,6-12.17,11.43-1.2,5.44-6.71,9.45-12.26,8.9-5.53-.54-12.12,3.08-14.63,8.04-2.51,4.96-8.86,7.48-14.09,5.58-5.23-1.9-12.5-.02-16.18,4.15-3.67,4.19-10.42,5.05-15.02,1.91-4.6-3.13-12.12-3.13-16.72,0-4.59,3.14-11.35,2.28-15.02-1.91-3.66-4.17-10.94-6.05-16.18-4.15-5.23,1.9-11.57-.62-14.08-5.58-2.51-4.96-9.11-8.58-14.64-8.04-5.53,.54-11.05-3.47-12.25-8.9-1.2-5.43-6.69-10.57-12.18-11.43-5.49-.87-9.84-6.12-9.65-11.67,.19-5.56-3.85-11.91-8.95-14.11-5.11-2.2-8.02-8.36-6.45-13.69,1.56-5.35-.77-12.49-5.18-15.89-4.4-3.41-5.67-10.11-2.82-14.89,2.84-4.78,2.36-12.28-1.06-16.66-3.41-4.39-2.98-11.2,.95-15.12,3.95-3.93,5.36-11.32,3.14-16.42-2.23-5.09-.11-11.58,4.68-14.4,4.8-2.82,7.99-9.62,7.12-15.11-.89-5.5,2.76-11.25,8.11-12.8,5.35-1.55,10.14-7.33,10.66-12.88,.51-5.54,5.47-10.19,11.03-10.38,5.56-.15,11.65-4.57,13.53-9.81,1.87-5.23,7.84-8.52,13.27-7.3,5.43,1.22,12.42-1.55,15.54-6.15,3.12-4.6,9.72-6.3,14.66-3.77,4.95,2.54,12.41,1.59,16.58-2.09Z"/><path class="cls-2" d="M129.87,4.57c4.11-3.64,10.83-3.64,14.94,0,4.11,3.63,11.45,4.56,16.34,2.06,4.88-2.5,11.38-.82,14.45,3.72,3.06,4.54,9.97,7.27,15.31,6.07,5.35-1.2,11.24,2.04,13.09,7.19,1.84,5.16,7.84,9.52,13.31,9.67,5.49,.18,10.37,4.77,10.88,10.23,.5,5.46,5.23,11.16,10.5,12.69,5.27,1.52,8.86,7.19,8,12.61-.87,5.41,2.28,12.11,7,14.89,4.72,2.78,6.81,9.18,4.62,14.19-2.2,5.02-.81,12.31,3.07,16.18,3.89,3.87,4.31,10.58,.94,14.91-3.36,4.32-3.84,11.71-1.03,16.42,2.79,4.72,1.53,11.32-2.81,14.68-4.34,3.36-6.62,10.4-5.09,15.67,1.55,5.26-1.32,11.33-6.35,13.5-5.04,2.17-9,8.43-8.82,13.91,.17,5.47-4.1,10.65-9.52,11.5-5.41,.85-10.82,5.92-12,11.27-1.18,5.36-6.62,9.31-12.09,8.78-5.45-.53-11.94,3.04-14.43,7.93-2.47,4.89-8.73,7.37-13.88,5.5-5.16-1.88-12.32-.02-15.95,4.09-3.61,4.13-10.27,4.98-14.81,1.88-4.53-3.09-11.95-3.09-16.48,0-4.52,3.09-11.19,2.25-14.81-1.88-3.61-4.11-10.79-5.96-15.95-4.09-5.15,1.87-11.41-.61-13.88-5.5-2.48-4.89-8.98-8.46-14.43-7.93-5.45,.53-10.89-3.42-12.08-8.78-1.18-5.35-6.59-10.42-12.01-11.27-5.41-.85-9.7-6.03-9.51-11.5,.18-5.48-3.8-11.74-8.82-13.91-5.04-2.17-7.9-8.24-6.36-13.5,1.54-5.27-.76-12.31-5.1-15.67-4.34-3.36-5.59-9.96-2.78-14.68,2.8-4.71,2.33-12.1-1.05-16.42-3.36-4.33-2.94-11.04,.94-14.91,3.89-3.87,5.28-11.16,3.09-16.18-2.19-5.02-.11-11.41,4.61-14.19,4.73-2.78,7.88-9.49,7.01-14.89-.87-5.42,2.72-11.09,7.99-12.61,5.28-1.53,10-7.23,10.51-12.69,.5-5.46,5.4-10.05,10.87-10.23,5.48-.15,11.48-4.5,13.33-9.67,1.84-5.16,7.72-8.4,13.08-7.19,5.35,1.21,12.25-1.52,15.32-6.07,3.07-4.54,9.58-6.21,14.45-3.72,4.88,2.51,12.24,1.57,16.34-2.06Z"/><path class="cls-3" d="M244.42,128.84c0,59.15-47.95,107.09-107.09,107.09S30.26,187.98,30.26,128.84,78.2,21.76,137.34,21.76s107.09,47.94,107.09,107.08Z"/><path class="cls-4" d="M237.78,128.84c0,55.47-44.97,100.44-100.44,100.44s-100.43-44.96-100.43-100.44S81.87,28.4,137.34,28.4s100.44,44.96,100.44,100.43Z"/></g></g></g></g></svg>