<?xml version="1.0" encoding="UTF-8"?><svg id="_圖層_2" xmlns="http://www.w3.org/2000/svg" viewBox="0 0 129.1 129.1"><defs><style>.cls-1{fill:#fff;}.cls-2{fill:#4c8b38;}</style></defs><g id="_說明"><g><circle class="cls-2" cx="64.55" cy="64.55" r="64.55"/><g><path class="cls-1" d="M27.21,52.6c3.71,0,5.33-1.97,5.33-5v-3.23c0-2-.87-3.29-2.71-3.71,1.52-.48,2.52-1.71,2.52-3.55v-1.91c0-3.1-1.49-5-4.88-5-3.81,0-5.14,2.26-5.14,5.49v1.94h3.36v-2.23c0-1.36,.42-2.13,1.58-2.13s1.58,.77,1.58,1.97v2.36c0,1.16-.77,1.78-1.97,1.78h-1.39v2.81h1.55c1.29,0,1.81,.61,1.81,1.78v3.62c0,1.16-.52,1.97-1.65,1.97-1.26,0-1.71-.84-1.71-2.13v-3.13h-3.36v2.87c0,3.33,1.32,5.46,5.07,5.46"/><path class="cls-1" d="M102.48,89.17c0-3.06-1.96-5.53-4.93-5.53-1.48,0-3.28,1.63-4.25,2.63-.97-1-2.64-2.63-4.13-2.63-2.97,0-5.05,2.48-5.05,5.53,0,1.53,.6,2.91,1.58,3.91h0l7.61,7.63,7.6-7.62h0c.97-1.01,1.58-2.39,1.58-3.92Z"/><path class="cls-1" d="M70.07,113.16s-.05,0-.08,0c-.58-.04-1.06-.46-1.15-1.04l-3.87-22.52-5.86,10.86c-.26,.48-.79,.73-1.32,.64-.53-.09-.94-.52-1.02-1.05l-2.49-17.38-4.55,10.22c-.2,.45-.65,.74-1.14,.74H30.92c-.69,0-1.25-.56-1.25-1.25s.56-1.25,1.25-1.25h16.87l5.98-13.44c.23-.51,.76-.81,1.31-.73,.55,.08,.99,.51,1.06,1.06l2.56,17.92,5.78-10.71c.25-.47,.78-.73,1.3-.64,.53,.09,.94,.5,1.03,1.02l3.58,20.85,13.05-43.34c.15-.49,.59-.85,1.1-.89,.52-.04,1,.24,1.22,.7l6.87,14.23c.3,.62,.04,1.37-.58,1.67-.62,.3-1.37,.04-1.67-.58l-5.47-11.34-13.65,45.35c-.16,.53-.65,.89-1.2,.89Z"/><g><path class="cls-1" d="M51.79,40.1c-1.25-.26-2.26-.73-3.04-1.4-.74-.64-1.33-1.52-1.77-2.65h-1.3v2.39c.77-.1,1.55-.23,2.35-.37l.06,1.16c-.66,.12-1.65,.29-2.96,.5-.69,.11-1.18,.19-1.48,.24l-.29-1.21s.12-.02,.22-.03c.36-.04,.65-.08,.87-.11v-5.49c0-.7-.02-1.3-.07-1.83,0-.04,.02-.06,.07-.06,.33,.04,.77,.06,1.31,.06h1.33v-.5c0-.14,0-.32-.02-.54,.29-.01,.58-.01,.89,.01,.38,.03,.56,.07,.56,.14-.11,.14-.17,.29-.17,.45v.45h1.49c.63,0,1.13-.02,1.49-.06,.06,0,.09,.02,.09,.06-.06,.55-.09,1.3-.09,2.24v2.25l.79,.63c-.72,.56-1.48,1.06-2.29,1.51,.72,.5,1.64,.85,2.74,1.03-.29,.27-.54,.65-.77,1.13Zm-6.11-6.95h4.39v-.77h-4.39v.77Zm0,1.81h4.39v-.82h-4.39v.82Zm3.34,2.26c.61-.36,1.17-.75,1.68-1.18h-2.46c.22,.47,.48,.86,.78,1.18Z"/><path class="cls-1" d="M55.31,40.11c-.22-.4-.46-.73-.73-.98,.67-.35,1.23-.92,1.67-1.71-.17-.14-.35-.28-.55-.43l-.08,.32-.99-.53c.18-.66,.42-1.74,.73-3.23h-.41c-.1,0-.23,0-.4,.02-.02-.01-.03-.21-.03-.59s.01-.58,.03-.58c.17,.01,.33,.02,.5,.02h.51c.15-.81,.27-1.5,.35-2.06,.3,.03,.58,.09,.86,.18,.29,.1,.43,.19,.42,.28-.01,.07-.05,.13-.1,.18-.1,.1-.16,.24-.19,.42-.08,.45-.15,.78-.2,1.01h.92l.21-.03,.73,.11c-.06,.97-.15,1.83-.29,2.57-.13,.76-.32,1.44-.56,2.04,.5,.42,.87,.78,1.11,1.08l-.73,1c-.17-.24-.47-.57-.91-.99-.48,.79-1.1,1.43-1.86,1.91Zm1.42-3.75c.15-.42,.28-.85,.38-1.3,.1-.51,.18-1.02,.24-1.5h-.89c-.11,.58-.28,1.35-.49,2.28,.33,.22,.59,.4,.76,.52Zm2.84,3.71c-.06-.35-.2-.75-.44-1.22,.63,.03,1.04,.03,1.23,.02,.09,0,.15-.01,.18-.04,.03-.02,.04-.07,.04-.15v-3.05h-1.07c-.32,0-.68,.02-1.08,.05-.02-.03-.03-.24-.03-.64s.01-.61,.03-.64c.29,.04,.65,.05,1.08,.05h1.07v-1.21h.39c.33-.35,.66-.77,.98-1.25h-1.6c-.45,0-.97,.02-1.59,.07-.02-.03-.03-.25-.03-.64s.01-.6,.03-.62c.32,.03,.65,.04,.99,.04h3l.25-.07,.79,.62c-.67,1.01-1.34,1.83-2.01,2.47v.59h1.13c.33,0,.71-.02,1.13-.05,.02,.03,.03,.24,.03,.64s-.01,.61-.03,.64c-.31-.04-.69-.05-1.13-.05h-1.13v3.06c0,.32-.04,.57-.1,.74-.08,.18-.21,.32-.41,.41-.33,.17-.9,.24-1.71,.23Z"/><path class="cls-1" d="M67.42,40.11c-.36,0-.55-.02-.58-.05,.04-.33,.06-.78,.06-1.35v-4.07c-.2,.31-.4,.59-.6,.85-.05-.17-.12-.39-.23-.67-.12-.3-.22-.52-.3-.68,.38-.46,.72-1.03,1.04-1.7,.32-.67,.58-1.36,.78-2.08,.27,.08,.53,.17,.78,.27,.25,.1,.37,.16,.37,.18s-.02,.03-.05,.04c-.04,0-.07,.03-.08,.07,0,.03-.02,.07-.04,.12-.02,.05-.03,.09-.05,.12h1.16l.18-.04,.75,.2c-.29,.82-.63,1.72-1.04,2.69h.39l.18-.02,.64,.11c-.1,1.59-.35,2.86-.74,3.82,.32,.33,.72,.57,1.19,.72,.41,.12,.92,.18,1.53,.19,1.54,0,2.49,0,2.87-.02-.18,.31-.31,.68-.38,1.12h-2.56c-.72,0-1.31-.07-1.78-.21-.55-.15-1.01-.41-1.39-.77-.27,.44-.6,.81-.98,1.11-.13-.29-.32-.56-.57-.83v.42c0,.14,0,.28,.02,.42,0,.03-.19,.05-.55,.05Zm.53-1.05c.32-.24,.61-.59,.86-1.04-.31-.58-.56-1.3-.75-2.18l.92-.27c.09,.45,.21,.85,.34,1.2,.15-.54,.27-1.16,.35-1.85h-.49l-.19,.43-.99-.23c.38-.86,.78-1.84,1.2-2.94h-.81v-.63c-.12,.34-.27,.7-.44,1.07v6.44Zm4.81-.44c-.37,0-.56-.01-.57-.04,.01-.15,.02-.31,.02-.47v-.48h-.83c-.19,0-.46,.01-.82,.04-.02-.02-.03-.18-.03-.49s0-.47,.03-.49c.26,.03,.54,.04,.82,.04h.83v-.51h-.7c-.24,0-.47,.01-.7,.03-.02-.01-.03-.17-.03-.48s0-.47,.03-.48c.17,.02,.4,.03,.7,.03h.7v-.49h-.64c-.21,0-.43,.01-.64,.03-.02-.01-.03-.17-.03-.48s0-.47,.03-.48c.16,.02,.37,.03,.64,.03h.64v-.49h-.97c-.22,0-.54,.01-.97,.04-.02-.02-.03-.19-.03-.5s.01-.47,.03-.5c.32,.03,.64,.04,.97,.04h.97v-.46h-.64c-.21,0-.43,.01-.64,.03-.02-.01-.03-.17-.03-.48s0-.47,.03-.48c.16,.02,.37,.03,.64,.03h.64v-.39c0-.1,0-.25-.02-.43,.26-.01,.52-.01,.78,.01,.33,.03,.5,.07,.5,.14-.11,.11-.17,.22-.17,.33v.33h1.73v1.36h.25s.07,0,.12,0,.1,0,.12,0c.02,0,.03,.16,.03,.46s-.01,.46-.03,.46h-.1c-.07,0-.12-.01-.15-.01h-.25v1.39h-1.73v.49h.9c.2,0,.5-.01,.89-.04,.02,.02,.03,.18,.03,.49s-.01,.47-.03,.49c-.29-.03-.59-.04-.89-.04h-.9v.51h1.02c.23,0,.57-.01,1.01-.04,.02,.02,.03,.18,.03,.48s-.01,.46-.03,.47c-.17-.01-.34-.02-.51-.02h-1.52v.48c0,.16,0,.32,.02,.47,0,.03-.2,.04-.56,.04Zm.54-6.08h.71v-.46h-.71v.46Zm0,1.4h.71v-.49h-.71v.49Z"/><path class="cls-1" d="M78.32,40.12c-.1-.1-.26-.23-.47-.37-.21-.14-.38-.25-.52-.31,.37-.66,.62-1.52,.76-2.59,.09-.69,.14-1.56,.14-2.61v-1.51c0-.63-.02-1.14-.06-1.51,0-.05,.02-.07,.06-.07,.52,.05,1.13,.07,1.83,.07h1.83v-.44c0-.12,0-.29-.02-.48,.29-.01,.58-.01,.89,.01,.38,.03,.56,.07,.56,.14-.11,.13-.17,.25-.17,.39v.39h2.77c.21,0,.51-.01,.92-.04,.02,.02,.03,.22,.03,.59s-.01,.58-.03,.61c-.49-.05-1.05-.07-1.68-.07h-1.68v.51h2.56v1.3h.46c.11,0,.26,0,.46-.02,.02,0,.03,.16,.03,.45s0,.45-.03,.46c-.15-.01-.31-.02-.46-.02h-.46v1.34h-2.26c.16,.38,.35,.71,.58,1.01,.45-.28,.89-.6,1.3-.97,.22,.19,.42,.4,.58,.63,.17,.23,.22,.37,.15,.42-.06,.04-.12,.05-.2,.04-.12-.01-.26,.03-.42,.12-.29,.17-.55,.32-.76,.44,.51,.44,1.11,.75,1.77,.94-.29,.29-.54,.63-.74,1-1.08-.41-1.94-1.12-2.57-2.12v1.01c0,.31-.04,.54-.12,.69-.08,.16-.22,.28-.42,.36-.18,.08-.43,.13-.74,.16-.22,.01-.58,.02-1.07,.02-.04-.22-.14-.52-.3-.91-.51,.24-.88,.41-1.12,.51l-.56-.99c.51-.16,1.4-.49,2.66-.98l.21,.89c-.2,.1-.51,.25-.93,.45,.47,.02,.79,.02,.98,.01,.1,0,.16-.02,.2-.05,.04-.03,.05-.09,.05-.17v-2.52h-2.02c.65,.33,1.12,.63,1.42,.9l-.7,.73c-.35-.32-.83-.65-1.44-1l.63-.63h-.07s-.03,0-.04,.01h-.03s-.03-.15-.03-.43,.01-.43,.03-.46c.31,.04,.69,.05,1.13,.05h1.14v-.51h-1.37c-.46,0-.92,.02-1.37,.06-.02-.03-.03-.2-.03-.5s.01-.46,.03-.49c.33,.04,.79,.06,1.37,.06h1.37v-.48h-1.07c-.32,0-.68,.02-1.07,.05-.02-.03-.03-.18-.03-.46s.01-.44,.03-.46c.29,.04,.65,.05,1.07,.05h1.07v-.51h-2.92v1.94c0,2.65-.35,4.61-1.06,5.87Zm5.15-6h1.41v-.48h-1.41v.48Zm0,1.38h1.41v-.51h-1.41v.51Z"/><path class="cls-1" d="M51.27,52.61c-.91-.62-1.85-1.16-2.81-1.64l.74-.68h-3.07l.9,.67c-.39,.28-.87,.57-1.44,.89-.54,.29-1.04,.54-1.52,.75-.22-.25-.54-.54-.94-.85,.45-.17,.92-.39,1.42-.67,.5-.27,.92-.53,1.26-.78h-1.37c-.45,0-.9,.02-1.36,.06-.02-.03-.03-.25-.03-.64s0-.59,.03-.6c.15,.01,.31,.02,.47,.02h.48l-.08-2.8-.07-2.8,.68,.19c.5-.28,.9-.54,1.21-.78l.77,.76v-.37c0-.1,0-.24-.02-.41,.24-.01,.49-.01,.75,.01,.31,.03,.47,.07,.47,.14-.11,.13-.17,.26-.17,.41v.41h.78c.26,0,.53-.01,.78-.03,.02,.01,.03,.2,.03,.55s0,.53-.03,.55c-.19-.02-.45-.03-.78-.03h-.78v.7h1.52v3.5h1.27c0-.17,.02-.46,.05-.85h-.49c-.11,0-.27,0-.48,.02-.02-.01-.03-.19-.03-.54s0-.52,.03-.53c.17,.01,.33,.02,.5,.02h.51c.01-.39,.02-.68,.03-.89h-.52c-.12,0-.29,0-.51,.02-.02-.01-.03-.19-.03-.54s.01-.52,.03-.53c.17,.01,.34,.02,.52,.02h.53c0-.19,.01-.46,.01-.82h-.59c-.19,0-.39,.01-.59,.03-.02-.01-.03-.2-.03-.57s.01-.56,.03-.59c.31,.03,.7,.05,1.15,.05h1.16c-.01,2.52-.06,4.41-.14,5.67h.49c.12,0,.28,0,.49-.02,.02,0,.03,.21,.03,.6s-.01,.61-.03,.64c-.34-.04-.8-.06-1.39-.06h-1.4c1.24,.6,2.16,1.1,2.76,1.47l-1.2,.84Zm-6.13-3.47h1.39v-1.1c0-.4-.02-.78-.05-1.13,.25-.01,.51-.01,.78,.01,.33,.03,.49,.07,.49,.14-.17,.33-.25,.67-.25,1v1.07h.57v-2.53h-1.52v-2.68c-.55,.27-1.06,.5-1.54,.69l.02,.75h.58c.19,0,.39-.01,.57-.03,.02,.01,.03,.19,.03,.54s-.01,.53-.03,.54c-.13-.02-.32-.03-.56-.03h-.56l.02,.88h.55c.19,0,.38-.01,.55-.03,.02,.01,.03,.19,.03,.54s-.01,.53-.03,.54c-.12-.02-.3-.03-.53-.03h-.54l.03,.86Z"/><path class="cls-1" d="M55.15,51.79c-.22-.25-.47-.45-.75-.59,.25-.65,.38-1.57,.38-2.78v-.62c0-.25,0-.47-.03-.66,.21-.01,.43-.01,.67,.01,.29,.03,.44,.07,.44,.14-.14,.18-.21,.37-.21,.57v.57c0,.7-.03,1.27-.08,1.71-.08,.67-.22,1.22-.41,1.65Zm1.54,.85c-.38,0-.59-.02-.62-.05,.04-.36,.06-.85,.06-1.48v-4.46h-.76c-.26,0-.51,.01-.76,.03-.02-.01-.03-.21-.03-.58s.01-.58,.03-.62c.54,.06,1.23,.08,2.07,.08h1.04c.23,0,.57-.01,1.03-.04,.02,.02,.03,.22,.03,.58s-.01,.56-.03,.57c-.19-.02-.44-.03-.75-.03h-.75v2.97c0,1.24,.04,2.23,.12,2.97-.06,.03-.29,.05-.68,.05Zm-1.76-7.98s-.03-.24-.03-.61,.01-.57,.03-.59c.29,.03,.59,.04,.89,.04h1.77c.2,0,.5-.01,.89-.04,.02,.02,.03,.22,.03,.58s-.01,.56-.03,.58c-.29-.03-.59-.04-.89-.04h-.89c-.5,0-1.09,.02-1.77,.07Zm3.23,6.41c-.29,0-.45-.01-.47-.04,.03-.32,.04-.64,.04-.97v-.97c0-.76-.03-1.42-.08-1.97,.24-.01,.48-.01,.73,.01,.31,.03,.46,.07,.46,.14-.17,.31-.25,.61-.25,.92v1.89c0,.32,.01,.64,.04,.96-.02,.03-.18,.04-.47,.04Zm.49,1.33s-.03-.25-.03-.67,.01-.64,.03-.66c.33,.03,.67,.04,1.01,.04h1.01v-3.72h-.84c-.19,0-.47,.01-.84,.04-.02-.02-.03-.23-.03-.64s.01-.62,.03-.64c.28,.03,.56,.04,.84,.04h.84v-1.58c0-.58-.02-1.12-.07-1.62,.32-.01,.64-.01,.97,.01,.4,.03,.6,.07,.6,.14-.17,.33-.25,.67-.25,1v2.04h.88c.19,0,.49-.01,.88-.04,.02,.02,.03,.23,.03,.64s0,.62-.03,.64c-.29-.03-.58-.04-.88-.04h-.88v3.72h1.05c.24,0,.58-.01,1.04-.04,.02,.02,.03,.24,.03,.66s-.01,.64-.03,.67c-.33-.04-.78-.06-1.35-.06h-2.69c-.45,0-.9,.02-1.33,.06Z"/><path class="cls-1" d="M67.19,48.78s-.06-.02-.06-.07c.05-.19,.07-.56,.06-1.13v-1.61c-.15,.06-.38,.15-.69,.26-.2-.4-.4-.72-.63-.97,.83-.25,1.62-.6,2.39-1.04s1.36-.9,1.78-1.37h1.15c.56,.54,1.24,1.01,2.03,1.42,.76,.4,1.54,.7,2.35,.9-.15,.17-.37,.48-.64,.93-.03,.05-.05,.08-.06,.1-.2-.07-.4-.14-.58-.22v1.37c0,.57,.02,1.02,.06,1.36,0,.05-.02,.07-.06,.07-.51-.05-1.1-.07-1.77-.07h-3.56c-.67,0-1.26,.02-1.77,.07Zm.24-2.91h6.58c-.49-.21-.99-.45-1.49-.73v.35h-3.58v-.4c-.48,.29-.98,.54-1.51,.77Zm.91,6.78c-.4,0-.62-.02-.66-.05,.05-.51,.07-1.1,.07-1.77v-1.78h6.01v1.76c0,.67,.02,1.26,.07,1.76-.04,.03-.26,.05-.69,.05s-.63-.02-.64-.05c0,0,0-.03,0-.06,0-.03,0-.05,0-.07v-.12h-3.58v.15s0,.05,.01,.08v.05s-.21,.05-.62,.05Zm-.13-4.7h.71c-.02-.15-.07-.33-.14-.54-.07-.21-.14-.39-.22-.54l.79-.23h-1.15v1.31Zm.74,2.32h3.58v-.41h-3.58v.41Zm0,1.24h3.58v-.42h-3.58v.42Zm.21-3.56h1.03v-1.31h-.78c.08,.16,.17,.35,.25,.57,.07,.19,.12,.37,.16,.54l-.66,.2Zm.43-3.25h2.22c-.42-.27-.8-.56-1.14-.88-.26,.26-.62,.56-1.08,.88Zm1.59,3.25h.94l-.6-.17c.09-.21,.17-.4,.23-.56,.1-.28,.16-.47,.19-.58h-.75v1.31Zm1.2,0h.87v-1.31h-1.11l.8,.2c-.1,.2-.2,.4-.3,.6-.01,.03-.04,.08-.07,.15-.08,.17-.15,.3-.19,.36Z"/><path class="cls-1" d="M78.05,51.76c-.19-.22-.42-.4-.71-.56,.25-.65,.38-1.58,.38-2.8v-.62c0-.24,0-.46-.03-.65,.2-.01,.41-.01,.64,.01,.28,.03,.42,.07,.42,.14-.14,.18-.21,.37-.21,.57v.57c0,.7-.03,1.26-.08,1.7-.07,.61-.2,1.15-.4,1.63Zm1.44,.89c-.35,0-.55-.02-.58-.05,.04-.36,.06-.85,.06-1.48v-4.45h-.72c-.24,0-.48,.01-.71,.03-.02-.01-.03-.21-.03-.58s0-.58,.03-.63c.5,.06,1.13,.08,1.9,.08h.95c.22,0,.53-.01,.95-.04,.02,.02,.03,.22,.03,.59s0,.56-.03,.58c-.17-.02-.39-.03-.67-.03h-.68v2.97c0,1.23,.04,2.22,.12,2.96-.06,.03-.27,.05-.63,.05Zm-1.69-7.99s-.03-.24-.03-.61,0-.57,.03-.59c.28,.03,.56,.04,.84,.04h1.7c.19,0,.47-.01,.84-.04,.02,.02,.03,.22,.03,.58s-.01,.56-.03,.58c-.28-.03-.56-.04-.84-.04h-.86c-.47,0-1.03,.02-1.69,.07Zm3.04,6.21c-.28,0-.43-.01-.45-.04,.03-.29,.04-.59,.04-.91v-.92c0-.67-.02-1.3-.07-1.87,.22-.01,.45-.01,.69,.01,.29,.03,.44,.07,.44,.14-.17,.28-.25,.56-.25,.86v1.78c0,.31,.01,.62,.04,.91-.02,.03-.17,.04-.44,.04Zm.65-6.44s-.03-.23-.03-.59,.01-.56,.03-.62c.69,.08,1.57,.11,2.64,.11h1.32c.44,0,.88-.02,1.31-.06,.02,.03,.03,.22,.03,.57s0,.55-.03,.58c-.32-.04-.76-.06-1.31-.06h-2.65c-.44,0-.88,.02-1.31,.06Zm.58,8.22c-.36,0-.57-.02-.62-.05,.06-.57,.09-1.35,.09-2.33v-1.17c0-.45-.02-.84-.05-1.17,0-.03,.02-.05,.05-.05,.36,.04,.79,.05,1.29,.05h2.59c.5,0,.93-.02,1.29-.05,.04,0,.05,.02,.05,.05-.04,.33-.05,.72-.05,1.17v1.17c0,.98,.03,1.76,.09,2.33-.05,.03-.26,.05-.64,.05s-.57-.02-.57-.05v-.06s0-.08,0-.1v-.18h-3.01v.18s0,.06,0,.1v.06s-.19,.05-.54,.05Zm4.31-5.13c-.3-.03-.67-.05-1.11-.05h-3.34v-1.28c0-.5-.02-.92-.05-1.27,0-.06,.02-.09,.05-.09,.56,.06,1.3,.09,2.22,.09h2.22v1.28c0,.5,.02,.92,.05,1.27,0,.03-.02,.05-.05,.05Zm-3.78,2.1h.97v-.7h-.97v.7Zm0,1.67h.97v-.71h-.97v.71Zm.42-4.71h2.2v-.76h-2.2v.76Zm1.6,3.05h1v-.7h-1v.7Zm0,1.67h1v-.71h-1v.71Z"/><path class="cls-1" d="M91.57,52.63c-.4,0-.62-.02-.64-.05,.03-.31,.04-.62,.04-.93v-2.81c-.51,1.07-1.04,1.89-1.56,2.45-.09-.28-.29-.69-.61-1.21,.36-.36,.72-.82,1.07-1.37,.34-.54,.63-1.09,.87-1.64h-.86c-.2,0-.48,.01-.86,.04-.02-.02-.03-.22-.03-.61s.01-.59,.03-.61c.32,.03,.64,.04,.97,.04h.97v-1.29c-.58,.11-1.15,.21-1.71,.28-.06-.34-.18-.66-.35-.97,.77-.12,1.52-.27,2.23-.45,.78-.19,1.4-.4,1.88-.63,.22,.24,.4,.5,.54,.78,.15,.28,.18,.43,.1,.46-.06,.02-.12,.02-.19-.01-.12-.04-.26-.03-.42,.02-.29,.08-.59,.17-.91,.25v1.55h.89c.2,0,.49-.01,.88-.04,.02,.02,.03,.22,.03,.61s-.01,.59-.03,.61c-.29-.03-.58-.04-.88-.04h-.89v.56c.21,.17,.64,.52,1.27,1.06,.28,.24,.45,.38,.51,.43l-.7,1.06c-.22-.28-.58-.69-1.08-1.22v1.8c0,.67,.02,1.27,.07,1.79-.03,.03-.25,.05-.66,.05Zm3.42-2.64c-.4,0-.62-.01-.66-.04,.04-.35,.06-.84,.06-1.45v-2.92c0-.6-.02-1.1-.06-1.5,.29-.01,.6-.01,.92,.01,.38,.03,.57,.07,.57,.14-.17,.33-.25,.67-.25,1v2.37c0,.92,.03,1.71,.1,2.36-.05,.03-.28,.04-.69,.04Zm.43,2.6c-.06-.44-.21-.87-.43-1.28,.44,.02,.96,.03,1.53,.03,.19,0,.28-.09,.28-.26v-4.89c0-1.29-.04-2.35-.12-3.17,.33-.01,.66-.01,.99,.01,.4,.03,.59,.07,.59,.14-.17,.33-.25,.67-.25,1v6.93c0,.36-.04,.64-.12,.83-.08,.19-.23,.34-.44,.43-.35,.17-1.03,.25-2.03,.24Z"/></g></g></g></g></svg>