<?xml version="1.0" encoding="UTF-8"?><svg id="_設計" xmlns="http://www.w3.org/2000/svg" viewBox="0 0 129.11 129.11"><defs><style>.cls-1{font-family:GenSekiGothicTW-B, 'GenSekiGothic TW';font-size:12px;letter-spacing:.1em;}.cls-1,.cls-2{fill:#fff;}.cls-3{fill:#26a9ce;}</style></defs><circle class="cls-3" cx="64.55" cy="64.55" r="64.55"/><g><path class="cls-2" d="M37.22,48.27c3.91,0,5.42-2.13,5.42-5.52v-3.23c0-3.58-1.42-5.39-4.07-5.39-1.55,0-2.49,.71-3.04,1.78h-.03v-4.71c0-1.33,.42-2.26,1.74-2.26s1.71,.78,1.71,2.13v1.45h3.36v-1.16c0-3.23-1.07-5.49-5.13-5.49s-5.33,2.49-5.33,5.91v10.66c0,3.39,1.49,5.85,5.36,5.85m-1.71-9.2c.06-1.23,.58-2,1.74-2,1.26,0,1.74,.77,1.74,2.2v3.81c0,1.39-.52,2.2-1.78,2.2s-1.71-.84-1.71-2.2v-4.01Z"/><path class="cls-2" d="M86.7,58.79c-.09-.1-.22-.16-.36-.16H46.95c-.14,0-.26,.06-.35,.16-.09,.11-.12,.25-.1,.37l6.62,40.03c.04,.22,.23,.39,.45,.39h8.12l.56,6.52h-3.42s7.95,7.96,7.95,7.96l7.97-7.97h-3.42s.55-6.51,.55-6.51h8.27c.23,0,.42-.16,.45-.39l6.19-40.02c.02-.14-.02-.27-.1-.37Zm-15.22,32.05s-1.79,1.84-4.7,1.64c-2.92,.2-4.71-1.64-4.71-1.64-2.95-2.95-1.9-6.62-.87-8.51,.63-1.19,5.17-8,5.56-8.58v-.05s0,0,.02,.02l.02-.02v.05c.38,.58,4.92,7.39,5.56,8.58,1.03,1.9,2.08,5.56-.87,8.51Zm12.5-23.62c-1.07-.47-2.42-.3-3.72,.23-4.89,1.98-8.21,2.69-13.36,1.08-3.24-1.01-6.27-3.14-9.85-1.84-2.38,.85-4.59,1.67-7.28,1.65l-1.55-7.96h36.87l-1.12,6.84Z"/><text class="cls-1" transform="translate(48.22 32.77)"><tspan x="0" y="0">淨水與</tspan><tspan x="0" y="14.4">衛生設施</tspan></text></g></svg>