<?xml version="1.0" encoding="UTF-8"?><svg id="_圖層_2" xmlns="http://www.w3.org/2000/svg" viewBox="0 0 129.11 129.11"><defs><style>.cls-1{fill:#006889;}.cls-2{fill:#fff;}</style></defs><g id="_說明"><g><circle class="cls-1" cx="64.55" cy="64.55" r="64.55"/><g><g><path class="cls-2" d="M86.19,53.98s-1.25,1.66-.89,3.28c.37,1.62,2.21,2.58,2.21,2.58,0,0,1.25-1.66,.89-3.28-.37-1.62-2.21-2.58-2.21-2.58"/><path class="cls-2" d="M84.15,63.47s1.25-1.66,.89-3.28c-.37-1.62-2.21-2.58-2.21-2.58,0,0-1.25,1.66-.89,3.28,.37,1.62,2.21,2.58,2.21,2.58"/><path class="cls-2" d="M89.3,61.69s1.32,1.33,2.83,1.2c1.51-.13,2.62-1.68,2.62-1.68,0,0-1.32-1.33-2.83-1.2-1.51,.13-2.62,1.68-2.62,1.68"/><path class="cls-2" d="M91.46,54.57c-1.22,1.24-1.05,3.44-1.05,3.44,0,0,2.16,.19,3.39-1.05,1.22-1.24,1.05-3.44,1.05-3.44,0,0-2.16-.19-3.39,1.05"/><path class="cls-2" d="M88.76,66.63c1.5,.18,2.91-1.11,2.91-1.11,0,0-1.02-1.57-2.52-1.75-1.5-.18-2.91,1.11-2.91,1.11,0,0,1.02,1.57,2.52,1.75"/><path class="cls-2" d="M90.1,92.69h-11.21c-.88,0-1.59,.71-1.59,1.58s.71,1.59,1.59,1.59h11.21c.88,0,1.59-.71,1.59-1.59s-.71-1.58-1.59-1.58"/><path class="cls-2" d="M90.1,110.17h-11.21c-.88,0-1.59,.71-1.59,1.59s.71,1.59,1.59,1.59h11.21c.88,0,1.59-.71,1.59-1.59s-.71-1.59-1.59-1.59"/><path class="cls-2" d="M39.68,88.84c-.26-.08-.52-.15-.78-.2,0,0,.29,.09,.78,.2"/><path class="cls-2" d="M89.69,96.97h-10.39c-.5,0-.9,.41-.9,.9v3.15l-6.78,.75-9.91-.23v-6.05c1.32-.17,2.63-.43,3.94-.8,9.54-2.69,11.62-10.58,11.41-16.03-.21-5.56,1.57-7.71,4.13-8.67,.73-.27,1.45-.45,2.12-.56,.03,1.36,.31,2.95,.92,4.84,.23-.01,.45-.03,.68-.06-.64-1.93-.92-3.52-.93-4.88,1.32-.16,2.26-.07,2.26-.07,0,0-.89-.48-2.15-1.53,.43-2.63,2-4.25,3.61-5.9,.89-.91,1.8-1.85,2.53-2.97l-.56-.36c-.68,1.06-1.58,1.98-2.44,2.86-1.57,1.61-3.16,3.26-3.7,5.87-.51-.46-1.07-1.01-1.63-1.64-2.35-2.64-5.38-.7-9.7,3.32-4.32,4.02-9.75,4.16-15.05-1.27-7-7.16-13.1-7.12-17.29-6.72,2.86,1.22,3.87,3.9,5.32,10.7,1.52,7.14,5.35,10.37,10.59,10.81-2.92,1.03-3.06,2.68-6.96,5.37-3.05,2.1-7.34,1.44-9.08,1.04,3.19,1,6.98,4.35,10.36,5.51,1.97,.68,4.05,1.1,6.18,1.27v5.79l-17.75-.41v4.04l33.14-.76,6.78,.75v3.14c0,.5,.4,.9,.9,.9h10.39c.5,0,.9-.41,.9-.9v-10.31c0-.5-.41-.9-.9-.9Zm-31.83-1.27c.74,.01,1.48,0,2.22-.06v5.86l-2.22-.05v-5.75Z"/><path class="cls-2" d="M37.5,104.38c0,.85-.59,1.54-1.33,1.54h-.8c-.73,0-1.33-.69-1.33-1.54v-2.79c0-.85,.6-1.54,1.33-1.54h.8c.73,0,1.33,.69,1.33,1.54v2.79Z"/></g><g><polygon class="cls-2" points="18.55 30.03 18.55 33.88 18.58 33.88 21.16 31.2 21.2 31.2 21.2 47.96 24.88 47.96 24.88 26.06 21.94 26.06 18.55 30.03"/><path class="cls-2" d="M37.76,42.69v-3.23c0-3.58-1.42-5.39-4.07-5.39-1.55,0-2.49,.71-3.04,1.78h-.03v-4.71c0-1.32,.42-2.26,1.74-2.26s1.71,.77,1.71,2.13v1.46h3.36v-1.16c0-3.23-1.06-5.49-5.13-5.49s-5.33,2.49-5.33,5.91v10.66c0,3.39,1.49,5.85,5.36,5.85s5.42-2.13,5.42-5.52m-3.65,.32c0,1.39-.52,2.2-1.78,2.2s-1.71-.84-1.71-2.2v-4c.06-1.23,.58-2,1.74-2,1.26,0,1.74,.78,1.74,2.2v3.81Z"/><g><path class="cls-2" d="M86.19,53.98s-1.25,1.66-.89,3.28c.37,1.62,2.21,2.58,2.21,2.58,0,0,1.25-1.66,.89-3.28-.37-1.62-2.21-2.58-2.21-2.58"/><path class="cls-2" d="M84.15,63.47s1.25-1.66,.89-3.28c-.37-1.62-2.21-2.58-2.21-2.58,0,0-1.25,1.66-.89,3.28,.37,1.62,2.21,2.58,2.21,2.58"/><path class="cls-2" d="M89.3,61.69s1.32,1.33,2.83,1.2c1.51-.13,2.62-1.68,2.62-1.68,0,0-1.32-1.33-2.83-1.2-1.51,.13-2.62,1.68-2.62,1.68"/><path class="cls-2" d="M91.46,54.57c-1.22,1.24-1.05,3.44-1.05,3.44,0,0,2.16,.19,3.39-1.05,1.22-1.24,1.05-3.44,1.05-3.44,0,0-2.16-.19-3.39,1.05"/><path class="cls-2" d="M88.76,66.63c1.5,.18,2.91-1.11,2.91-1.11,0,0-1.02-1.57-2.52-1.75-1.5-.18-2.91,1.11-2.91,1.11,0,0,1.02,1.57,2.52,1.75"/><path class="cls-2" d="M90.1,92.69h-11.21c-.88,0-1.59,.71-1.59,1.58s.71,1.59,1.59,1.59h11.21c.88,0,1.59-.71,1.59-1.59s-.71-1.58-1.59-1.58"/><path class="cls-2" d="M90.1,110.17h-11.21c-.88,0-1.59,.71-1.59,1.59s.71,1.59,1.59,1.59h11.21c.88,0,1.59-.71,1.59-1.59s-.71-1.59-1.59-1.59"/><path class="cls-2" d="M39.68,88.84c-.26-.08-.52-.15-.78-.2,0,0,.29,.09,.78,.2"/><path class="cls-2" d="M89.69,96.97h-10.39c-.5,0-.9,.41-.9,.9v3.15l-6.78,.75-9.91-.23v-6.05c1.32-.17,2.63-.43,3.94-.8,9.54-2.69,11.62-10.58,11.41-16.03-.21-5.56,1.57-7.71,4.13-8.67,.73-.27,1.45-.45,2.12-.56,.03,1.36,.31,2.95,.92,4.84,.23-.01,.45-.03,.68-.06-.64-1.93-.92-3.52-.93-4.88,1.32-.16,2.26-.07,2.26-.07,0,0-.89-.48-2.15-1.53,.43-2.63,2-4.25,3.61-5.9,.89-.91,1.8-1.85,2.53-2.97l-.56-.36c-.68,1.06-1.58,1.98-2.44,2.86-1.57,1.61-3.16,3.26-3.7,5.87-.51-.46-1.07-1.01-1.63-1.64-2.35-2.64-5.38-.7-9.7,3.32-4.32,4.02-9.75,4.16-15.05-1.27-7-7.16-13.1-7.12-17.29-6.72,2.86,1.22,3.87,3.9,5.32,10.7,1.52,7.14,5.35,10.37,10.59,10.81-2.92,1.03-3.06,2.68-6.96,5.37-3.05,2.1-7.34,1.44-9.08,1.04,3.19,1,6.98,4.35,10.36,5.51,1.97,.68,4.05,1.1,6.18,1.27v5.79l-17.75-.41v4.04l33.14-.76,6.78,.75v3.14c0,.5,.4,.9,.9,.9h10.39c.5,0,.9-.41,.9-.9v-10.31c0-.5-.41-.9-.9-.9Zm-31.83-1.27c.74,.01,1.48,0,2.22-.06v5.86l-2.22-.05v-5.75Z"/><path class="cls-2" d="M37.5,104.38c0,.85-.59,1.54-1.33,1.54h-.8c-.73,0-1.33-.69-1.33-1.54v-2.79c0-.85,.6-1.54,1.33-1.54h.8c.73,0,1.33,.69,1.33,1.54v2.79Z"/></g><g><path class="cls-2" d="M47.75,35.93c-.42,0-.65-.02-.69-.05,.06-.49,.08-1.11,.08-1.86v-1.86c-.47,1.11-.95,1.94-1.44,2.49-.08-.26-.28-.65-.6-1.17,.34-.37,.67-.83,.98-1.4,.31-.55,.56-1.12,.76-1.7h-.76c-.26,0-.51,.01-.76,.03-.02-.01-.03-.22-.03-.6s.01-.59,.03-.62c.29,.03,.59,.04,.91,.04h.92v-1.36c-.51,.08-1,.16-1.47,.22-.06-.34-.17-.66-.32-.97,1.56-.22,2.82-.52,3.75-.9l.78,.97c-.41,.15-.92,.3-1.52,.44v1.6h.74c.26,0,.5-.01,.74-.03,.02,.01,.03,.22,.03,.6s0,.59-.03,.6c-.17-.02-.42-.03-.74-.03h-.74v.18c.19,.19,.47,.5,.84,.95,.34,.4,.58,.68,.71,.84l-.7,1.03c-.17-.33-.46-.78-.86-1.37v2.89c0,.32,.01,.64,.04,.96-.02,.03-.24,.05-.66,.05Zm2.95-.49c-.4,0-.63-.02-.67-.05,.06-.54,.08-1.23,.08-2.06v-4.13c0-.83-.03-1.52-.08-2.07,0-.06,.03-.08,.08-.08,.54,.06,1.22,.08,2.04,.08h1.02c.35,0,.69-.01,1.02-.04,.07,0,.1,.01,.1,.04-.07,.7-.1,1.54-.1,2.52v2.53c0,1.3,.04,2.34,.12,3.13-.06,.03-.31,.05-.74,.05s-.65-.02-.67-.05c.01-.13,.02-.25,.02-.38v-.38h-1.64v.42c0,.15,0,.28,.02,.41,0,.03-.22,.05-.63,.05Zm.61-2.07h1.64v-5.06h-1.64v5.06Z"/><path class="cls-2" d="M61.38,35.93c-.44,0-.67-.02-.71-.05,.05-.5,.07-1.07,.07-1.72v-1.72h-1.97c-.62,0-1.27,.03-1.96,.08-.02-.04-.03-.28-.03-.71s.01-.67,.03-.71c.52,.06,1.18,.08,1.96,.08h1.97v-3.16h-1.7c-.47,0-1.04,.02-1.7,.07-.02-.03-.03-.26-.03-.69s.01-.66,.03-.7c.54,.06,1.21,.08,2.02,.08h4.07c.63,0,1.31-.03,2.03-.08,.02,.04,.03,.27,.03,.7s0,.65-.03,.69c-.5-.05-1.08-.07-1.73-.07h-1.73v3.16h2.03c.64,0,1.31-.03,2.02-.08,.02,.04,.03,.28,.03,.71s-.01,.67-.03,.71c-.54-.06-1.21-.08-2.02-.08h-2.03v1.72c0,.65,.02,1.22,.07,1.72-.04,.03-.27,.05-.7,.05Zm-2.84-4.83c-.29-.26-.62-.49-.98-.69,.29-.27,.57-.61,.85-1.02,.26-.4,.47-.78,.6-1.14,.31,.09,.6,.21,.88,.34,.27,.14,.39,.24,.37,.3-.02,.05-.06,.08-.12,.1-.1,.04-.18,.13-.24,.26-.18,.31-.32,.53-.42,.68-.31,.46-.62,.84-.93,1.16Zm5.56-.05c-.13-.31-.36-.68-.68-1.14-.31-.45-.62-.84-.93-1.19l1.04-.51c.79,.84,1.36,1.59,1.69,2.24l-1.13,.59Z"/><path class="cls-2" d="M73.48,32.76c-.67-.83-1.42-1.59-2.24-2.29l1.08-.95c.35,.29,.76,.67,1.22,1.13,.42,.43,.78,.82,1.05,1.16l-.56,.48-.55,.48Z"/><path class="cls-2" d="M79.72,35.59s-.03-.28-.03-.7,.01-.63,.03-.65c.16,.02,.37,.03,.63,.03h.64v-2.32c0-.96-.03-1.75-.09-2.36,.33-.01,.66-.01,.99,.01,.41,.03,.62,.07,.62,.14-.17,.33-.25,.67-.25,1v3.53h1.78v-6.25h-1.98c-.61,0-1.27,.03-1.97,.08-.02-.04-.03-.27-.03-.69s0-.66,.03-.72c.79,.08,1.83,.12,3.13,.12h2.76c.88,0,1.8-.04,2.76-.11,.02,.06,.03,.29,.03,.71s0,.65-.03,.68c-.5-.05-1.07-.07-1.71-.07h-1.71v2.29h1.45c.48,0,.96-.02,1.44-.06,.02,.03,.03,.25,.03,.66s-.01,.64-.03,.67c-.36-.04-.83-.06-1.44-.06h-1.45v2.74h1.86c.58,0,1.19-.03,1.85-.08,.02,.04,.03,.27,.03,.69s-.01,.66-.03,.7c-.57-.06-1.35-.09-2.33-.09h-4.65c-.77,0-1.54,.03-2.32,.09Z"/><path class="cls-2" d="M92.28,35.88c-.06-.31-.18-.62-.34-.95,.43,.03,.81,.03,1.15,.01,.14,0,.21-.06,.21-.18v-.42c-.35,.03-.84,.07-1.47,.11-.22,.01-.39,.02-.49,.03l-.09-.95c.67-.03,1.36-.06,2.05-.09v-.46h-1.01c-.23,0-.57,.01-1.01,.04-.02-.02-.03-.19-.03-.5s.01-.47,.03-.5c.33,.03,.67,.04,1.01,.04h1.01v-.42c-.54,.05-1.07,.08-1.6,.09-.04-.22-.12-.47-.25-.74,1.56-.09,2.76-.23,3.6-.43h-1.88c-.58,0-1.21,.03-1.88,.08-.02-.04-.03-.23-.03-.55s0-.51,.03-.55c.51,.06,1.16,.08,1.95,.08h1.95v-.39h-1.45c-.49,0-.97,.02-1.45,.06-.02-.03-.03-.2-.03-.5s.01-.46,.03-.48c.35,.04,.84,.06,1.45,.06h1.45v-.38h-1.72c-.48,0-1.05,.02-1.72,.07-.02-.03-.03-.21-.03-.53s.01-.48,.03-.51c.29,.03,.59,.04,.9,.04h.91c-.1-.22-.23-.43-.39-.63l1.06-.34c.28,.29,.49,.61,.63,.97h2.05c.2-.35,.34-.68,.45-1,.33,.07,.65,.16,.95,.26,.3,.1,.43,.17,.41,.21-.02,.03-.05,.05-.09,.05-.08,.01-.14,.06-.19,.12-.08,.11-.16,.23-.26,.35h.89c.2,0,.5-.01,.89-.04,.02,.02,.03,.19,.03,.51s0,.49-.03,.53c-.51-.05-1.09-.07-1.75-.07h-1.75v.38h1.48c.5,0,.99-.02,1.48-.06,.02,.03,.03,.19,.03,.48s-.01,.46-.03,.5c-.36-.04-.86-.06-1.48-.06h-1.48v.39h2.96c.23,0,.56-.01,.99-.04,.02,.02,.03,.19,.03,.51s-.01,.49-.03,.51c-.33-.03-.67-.04-1.01-.04h-1.01c.67,.26,1.21,.56,1.62,.88l-.54,.62h.5c.11,0,.28,0,.5-.02,.02,0,.03,.17,.03,.47s-.01,.47-.03,.49c-.19-.02-.44-.03-.76-.03h-.77l.89,.31c-.29,.39-.68,.77-1.19,1.14,.24,.2,.5,.3,.76,.3,.12,0,.2-.06,.25-.17,.04-.1,.08-.3,.1-.6,.23,.21,.53,.37,.9,.48-.08,.57-.22,.95-.42,1.15-.17,.18-.47,.27-.9,.27-.65,0-1.23-.27-1.74-.8-.64,.33-1.33,.59-2.08,.8-.16-.35-.36-.68-.59-.98,.77-.17,1.46-.39,2.05-.66-.2-.35-.37-.76-.51-1.24h-1.99v.4l1.53-.08v.83s-1.53,.12-1.53,.12v.53c0,.28-.04,.48-.1,.62s-.2,.24-.39,.31c-.29,.1-.85,.16-1.68,.16Zm2.17-3.8h1.76c-.07-.34-.12-.79-.16-1.36h1.16c.02,.46,.08,.91,.18,1.36h1.69c-.51-.36-1-.63-1.49-.81l.63-.68h-3.02l.67,.7c-.4,.09-.87,.17-1.41,.25v.54Zm3.54,1.58c.16-.12,.3-.23,.41-.32,.11-.09,.22-.21,.33-.34h-1.06c.1,.27,.21,.49,.32,.67Z"/><path class="cls-2" d="M53.44,48.41c-.91-.62-1.85-1.16-2.81-1.64l.74-.68h-3.07l.9,.67c-.39,.28-.87,.57-1.44,.89-.54,.29-1.04,.54-1.52,.75-.22-.25-.54-.54-.94-.85,.45-.17,.92-.39,1.42-.67,.5-.27,.92-.53,1.26-.78h-1.37c-.45,0-.9,.02-1.36,.06-.02-.03-.03-.25-.03-.64s0-.59,.03-.6c.15,.01,.31,.02,.47,.02h.48l-.08-2.8-.07-2.8,.68,.19c.5-.28,.9-.54,1.21-.78l.77,.76v-.37c0-.1,0-.24-.02-.41,.24-.01,.49-.01,.75,.01,.31,.03,.47,.07,.47,.14-.11,.13-.17,.26-.17,.41v.41h.78c.26,0,.53-.01,.78-.03,.02,.01,.03,.2,.03,.55s0,.53-.03,.55c-.19-.02-.45-.03-.78-.03h-.78v.7h1.52v3.5h1.27c0-.17,.02-.46,.05-.85h-.49c-.11,0-.27,0-.48,.02-.02-.01-.03-.19-.03-.54s0-.52,.03-.53c.17,.01,.33,.02,.5,.02h.51c.01-.39,.02-.68,.03-.89h-.52c-.12,0-.29,0-.51,.02-.02-.01-.03-.19-.03-.54s.01-.52,.03-.53c.17,.01,.34,.02,.52,.02h.53c0-.19,.01-.46,.01-.82h-.59c-.19,0-.39,.01-.59,.03-.02-.01-.03-.2-.03-.57s.01-.56,.03-.59c.31,.03,.7,.05,1.15,.05h1.16c-.01,2.52-.06,4.41-.14,5.67h.49c.12,0,.28,0,.49-.02,.02,0,.03,.21,.03,.6s-.01,.61-.03,.64c-.34-.04-.8-.06-1.39-.06h-1.4c1.24,.6,2.16,1.1,2.76,1.47l-1.2,.84Zm-6.13-3.47h1.39v-1.1c0-.4-.02-.78-.05-1.13,.25-.01,.51-.01,.78,.01,.33,.03,.49,.07,.49,.14-.17,.33-.25,.67-.25,1v1.07h.57v-2.53h-1.52v-2.68c-.55,.27-1.06,.5-1.54,.69l.02,.75h.58c.19,0,.39-.01,.57-.03,.02,.01,.03,.19,.03,.54s-.01,.53-.03,.54c-.13-.02-.32-.03-.56-.03h-.56l.02,.88h.55c.19,0,.38-.01,.55-.03,.02,.01,.03,.19,.03,.54s-.01,.53-.03,.54c-.12-.02-.3-.03-.53-.03h-.54l.03,.86Z"/><path class="cls-2" d="M58.11,48.43c-.36,0-.55-.02-.58-.05,.04-.33,.06-.78,.06-1.35v-4.07c-.2,.31-.4,.59-.6,.85-.05-.17-.12-.39-.23-.67-.12-.3-.22-.52-.3-.68,.38-.46,.72-1.03,1.04-1.7,.32-.67,.58-1.36,.78-2.08,.27,.08,.53,.17,.78,.27,.25,.1,.37,.16,.37,.18s-.02,.03-.05,.04c-.04,0-.07,.03-.08,.07,0,.03-.02,.07-.04,.12-.02,.05-.03,.09-.05,.12h1.16l.18-.04,.75,.2c-.29,.82-.63,1.72-1.04,2.69h.39l.18-.02,.64,.11c-.1,1.59-.35,2.86-.74,3.82,.32,.33,.72,.57,1.19,.72,.41,.12,.92,.18,1.53,.19,1.54,0,2.49,0,2.87-.02-.18,.31-.31,.68-.38,1.12h-2.56c-.72,0-1.31-.07-1.78-.21-.55-.15-1.01-.41-1.39-.77-.27,.44-.6,.81-.98,1.11-.13-.29-.32-.56-.57-.83v.42c0,.14,0,.28,.02,.42,0,.03-.19,.05-.55,.05Zm.53-1.05c.32-.24,.61-.59,.86-1.04-.31-.58-.56-1.3-.75-2.18l.92-.27c.09,.45,.21,.85,.34,1.2,.15-.54,.27-1.16,.35-1.85h-.49l-.19,.43-.99-.23c.38-.86,.78-1.84,1.2-2.94h-.81v-.63c-.12,.34-.27,.7-.44,1.07v6.44Zm4.81-.44c-.37,0-.56-.01-.57-.04,.01-.15,.02-.31,.02-.47v-.48h-.83c-.19,0-.46,.01-.82,.04-.02-.02-.03-.18-.03-.49s0-.47,.03-.49c.26,.03,.54,.04,.82,.04h.83v-.51h-.7c-.24,0-.47,.01-.7,.03-.02-.01-.03-.17-.03-.48s0-.47,.03-.48c.17,.02,.4,.03,.7,.03h.7v-.49h-.64c-.21,0-.43,.01-.64,.03-.02-.01-.03-.17-.03-.48s0-.47,.03-.48c.16,.02,.37,.03,.64,.03h.64v-.49h-.97c-.22,0-.54,.01-.97,.04-.02-.02-.03-.19-.03-.5s.01-.47,.03-.5c.32,.03,.64,.04,.97,.04h.97v-.46h-.64c-.21,0-.43,.01-.64,.03-.02-.01-.03-.17-.03-.48s0-.47,.03-.48c.16,.02,.37,.03,.64,.03h.64v-.39c0-.1,0-.25-.02-.43,.26-.01,.52-.01,.78,.01,.33,.03,.5,.07,.5,.14-.11,.11-.17,.22-.17,.33v.33h1.73v1.36h.25s.07,0,.12,0,.1,0,.12,0c.02,0,.03,.16,.03,.46s-.01,.46-.03,.46h-.1c-.07,0-.12-.01-.15-.01h-.25v1.39h-1.73v.49h.9c.2,0,.5-.01,.89-.04,.02,.02,.03,.18,.03,.49s-.01,.47-.03,.49c-.29-.03-.59-.04-.89-.04h-.9v.51h1.02c.23,0,.57-.01,1.01-.04,.02,.02,.03,.18,.03,.48s-.01,.46-.03,.47c-.17-.01-.34-.02-.51-.02h-1.52v.48c0,.16,0,.32,.02,.47,0,.03-.2,.04-.56,.04Zm.54-6.08h.71v-.46h-.71v.46Zm0,1.4h.71v-.49h-.71v.49Z"/><path class="cls-2" d="M68.57,48.23s-.03-.26-.03-.65,.01-.59,.03-.63c.52,.05,1.13,.07,1.83,.07h1.83v-1.26h-1.33c-.45,0-.89,.02-1.32,.06-.02-.03-.03-.24-.03-.6s0-.57,.03-.59c.33,.04,.77,.06,1.32,.06h1.33v-1.19h-2.14v-.9c-.44,.29-.87,.55-1.3,.78-.24-.42-.49-.75-.74-1,.56-.24,1.14-.56,1.74-.96,.6-.4,1.14-.84,1.62-1.3h-.68c-.23,0-.46,.01-.68,.03-.02-.01-.03-.22-.03-.61s.01-.61,.03-.64c.5,.05,1.08,.07,1.74,.07h1.75c.45,.67,1.05,1.3,1.8,1.89,.78,.6,1.59,1.07,2.44,1.39-.33,.36-.6,.74-.81,1.14-.42-.2-.84-.45-1.28-.74v.85h-2.19v1.19h1.34c.45,0,.9-.02,1.34-.06,.02,.03,.03,.23,.03,.59s-.01,.57-.03,.6c-.33-.04-.78-.06-1.34-.06h-1.34v1.26h1.89c.59,0,1.22-.03,1.89-.08,.02,.04,.03,.25,.03,.64s-.01,.6-.03,.65c-.54-.06-1.27-.09-2.17-.09h-4.36c-.72,0-1.45,.03-2.17,.09Zm1.79-5.82h4.96c-.92-.67-1.74-1.43-2.45-2.28-.68,.81-1.52,1.57-2.51,2.28Z"/><path class="cls-2" d="M85.63,48.3c-.01-.17-.06-.38-.14-.61-.08-.23-.17-.43-.27-.6,.44,.04,.95,.06,1.52,.06,.19,0,.34-.06,.45-.18,.15-.17,.26-.68,.34-1.53,.08-.83,.14-2.18,.2-4.05h-2.18c-.29,.65-.59,1.2-.91,1.65-.1-.1-.33-.27-.71-.53-.03-.02-.06-.04-.07-.05v2.44c0,.95,.03,1.76,.1,2.43,0,.04-.03,.06-.1,.06-.33-.04-.79-.06-1.37-.06h-1.37v.39c0,.12,0,.25,.02,.38,0,.03-.2,.05-.58,.05s-.58-.02-.63-.05c.06-.51,.08-1.16,.08-1.93v-5.82h1.16c.16-.6,.26-1.17,.3-1.68,.34,.05,.66,.13,.97,.24,.32,.11,.47,.2,.44,.27-.02,.06-.06,.1-.11,.14-.1,.06-.18,.16-.23,.31-.02,.06-.05,.13-.08,.23-.08,.22-.15,.39-.19,.49h1.59v1.69c.59-.87,1.05-1.99,1.38-3.36,.31,.08,.59,.16,.84,.26,.28,.12,.41,.21,.4,.27-.01,.05-.04,.09-.09,.13-.08,.06-.13,.15-.17,.27-.06,.22-.14,.44-.22,.67h2.88c0,.19,0,.38-.01,.56-.07,2.46-.14,4.11-.22,4.98-.09,1-.24,1.63-.45,1.9-.13,.18-.28,.32-.44,.41-.13,.07-.31,.13-.54,.17-.3,.04-.83,.05-1.6,.02Zm-4.5-5.18h1.63v-1.69h-1.63v1.69Zm0,3.12h1.63v-2.04h-1.63v2.04Zm5.03-.56c-.15-.33-.37-.71-.64-1.16-.3-.49-.56-.9-.79-1.25l.95-.55c.74,1.05,1.24,1.82,1.5,2.32l-1.02,.65Z"/><path class="cls-2" d="M94.02,48.44c-.4,0-.61-.02-.65-.05,.05-.5,.07-1.08,.07-1.73v-1.73h-.84v1.32c0,.55,.02,.99,.06,1.31-.03,.03-.23,.05-.6,.05s-.56-.02-.58-.05c.03-.31,.04-.62,.04-.93v-2.82h1.93v-.76h-1.17c-.34,0-.73,.02-1.16,.05-.02-.03-.03-.23-.03-.61s0-.57,.03-.58c.12,.01,.25,.02,.39,.02h.39c-.31-.15-.61-.29-.92-.4,.4-.64,.72-1.54,.94-2.7,.3,.07,.57,.15,.81,.23,.26,.1,.39,.17,.39,.21,0,.04-.03,.07-.07,.09-.06,.04-.09,.1-.12,.19-.06,.21-.1,.36-.13,.47h.66v-.66c0-.27,0-.5-.03-.7,.27-.01,.55-.01,.84,.01,.36,.03,.54,.07,.54,.14-.14,.19-.21,.4-.21,.6v.6h.92c.21,0,.51-.01,.92-.04,.02,.02,.03,.22,.03,.6s-.01,.58-.03,.6c-.31-.03-.61-.04-.92-.04h-.92v.78h1.13c.34,0,.71-.02,1.12-.05,.02,.03,.03,.23,.03,.61s-.01,.58-.03,.61c-.3-.03-.67-.05-1.12-.05h-1.13v.76h1c.33,0,.67-.01,1-.04,.04,0,.06,.01,.06,.04-.04,.32-.06,.76-.06,1.32v1.33c0,.26-.02,.45-.07,.58-.06,.16-.16,.28-.3,.37-.21,.14-.61,.2-1.18,.19-.03-.33-.13-.68-.3-1.05,.29,.02,.5,.02,.64,.01,.08,0,.12-.04,.12-.12v-1.52h-.91v1.73c0,.65,.02,1.23,.07,1.73-.04,.03-.25,.05-.65,.05Zm-1.96-6.5h1.39v-.78h-1.03c-.04,.1-.09,.24-.18,.42-.01,.04-.04,.09-.07,.16-.04,.09-.08,.16-.1,.21Zm5.81,3.48c-.39,0-.6-.01-.64-.04,.04-.37,.06-.85,.06-1.46v-2.94c0-.6-.02-1.11-.06-1.51,.29-.01,.58-.01,.89,.01,.38,.03,.56,.07,.56,.14-.17,.33-.25,.67-.25,1v2.39c0,.92,.03,1.72,.1,2.38-.05,.03-.27,.04-.67,.04Zm.17,2.95c-.04-.37-.16-.79-.37-1.25,.35,.01,.76,.02,1.23,.02,.08,0,.14-.03,.18-.06,.03-.03,.05-.09,.05-.17v-4.95c0-1.29-.04-2.35-.12-3.17,.33-.01,.65-.01,.96,.01,.38,.03,.57,.07,.57,.14-.17,.33-.25,.67-.25,1v6.99c0,.34-.04,.6-.11,.78-.07,.18-.2,.32-.39,.43-.31,.16-.89,.24-1.75,.24Z"/><path class="cls-2" d="M103.44,48.37c-.1-.1-.26-.23-.47-.37-.21-.14-.38-.25-.52-.31,.38-.65,.63-1.51,.77-2.58,.09-.69,.14-1.55,.14-2.6v-1.46c0-.61-.02-1.1-.06-1.46,0-.05,.02-.07,.06-.07,.52,.05,1.13,.07,1.82,.07h1.83v-.47c0-.13,0-.29-.02-.5,.29-.01,.58-.01,.89,.01,.38,.03,.56,.07,.56,.14-.11,.13-.17,.26-.17,.41v.42h1.81c.51,0,1.11-.02,1.82-.07,.02,.04,.03,.24,.03,.63s-.01,.59-.03,.64c-.49-.06-1.1-.08-1.85-.08h-5.53v1.81c0,2.66-.36,4.61-1.07,5.85Zm7.94,.06c-1.2-.15-2.23-.42-3.11-.82-.91,.37-2.03,.64-3.36,.81-.12-.38-.28-.73-.49-1.04,1.01-.09,1.89-.25,2.64-.47-.47-.33-.86-.72-1.17-1.16l.48-.18h-.76c-.26,0-.51,.01-.76,.03-.02-.01-.03-.19-.03-.52s0-.51,.03-.54c.35,.04,.81,.06,1.38,.06h4.13l.22-.05,.75,.39c-.38,.79-.96,1.45-1.74,1.98,.72,.22,1.56,.37,2.51,.45-.28,.28-.52,.64-.72,1.06Zm-5.23-4.24v-1.63h-.69c-.23,0-.46,.01-.69,.03-.02-.01-.03-.19-.03-.52s0-.51,.03-.52c.17,.02,.4,.03,.69,.03h.69v-.34c0-.09,0-.22-.02-.39,.26-.01,.54-.01,.81,.01,.35,.03,.52,.07,.52,.14-.11,.1-.17,.19-.17,.29v.29h1.86v-.34c0-.09,0-.22-.02-.39,.28-.01,.56-.01,.86,.01,.36,.03,.54,.07,.54,.14-.11,.1-.17,.19-.17,.29v.29h.74c.25,0,.49-.01,.73-.03,.02,.01,.03,.19,.03,.52s-.01,.51-.03,.52c-.17-.02-.42-.03-.73-.03h-.74v1.63h-4.21Zm2.16,2.24c.46-.23,.88-.51,1.23-.85h-2.43c.3,.32,.7,.6,1.2,.85Zm-1.01-3.18h1.86v-.69h-1.86v.69Z"/></g></g></g></g></g></svg>