<?xml version="1.0" encoding="UTF-8"?><svg id="_圖層_2" xmlns="http://www.w3.org/2000/svg" viewBox="0 0 129.1 129.1"><defs><style>.cls-1{fill:#fff;}.cls-2{fill:#b1192d;}</style></defs><g id="_說明"><g><circle class="cls-2" cx="64.55" cy="64.55" r="64.55"/><path class="cls-1" d="M32.75,45.2h3.49v-3.55h1.49v-2.87h-1.49v-15.47h-3.62l-6.36,16.08v2.26h6.49v3.55Zm-3.26-6.42l3.29-9.01h.03v9.01h-3.33Z"/><g><polygon class="cls-1" points="63.9 72.41 44.42 61.16 44.42 97.55 63.9 103.43 63.9 72.41"/><polygon class="cls-1" points="66.04 72.49 66.04 103.45 85.65 97.55 85.65 61.16 66.04 72.49"/><path class="cls-1" d="M100.95,60.24c0-1.27-1.03-2.31-2.3-2.31s-2.31,1.03-2.31,2.31v2.48h4.61v-2.48Z"/><polygon class="cls-1" points="96.91 96.91 96.34 96.91 98.64 104.97 100.95 96.91 100.37 96.91 100.95 96.91 100.95 64.53 100.37 64.53 99.8 64.53 99.2 64.53 98.05 64.53 97.48 64.53 96.91 64.53 96.34 64.53 96.34 96.91 96.91 96.91"/><polygon class="cls-1" points="89.84 62.72 87.75 61.07 87.75 98.54 66.1 105.54 65.1 105.54 64.9 105.54 63.9 105.54 42.35 99.52 42.35 61.07 40.26 62.72 40.26 100.98 63.8 107.5 64.9 107.5 65.1 107.5 66.2 107.5 87.92 100.6 89.84 100.04 89.84 62.72"/></g><g><path class="cls-1" d="M48.4,44.76c-.4,0-.62-.02-.68-.05,.07-.72,.1-1.59,.1-2.61v-2.61c-.18,.29-.39,.58-.63,.85-.05-.16-.13-.38-.26-.66-.12-.3-.23-.52-.32-.68,.4-.49,.79-1.09,1.15-1.8,.36-.71,.65-1.46,.88-2.23,.31,.1,.58,.22,.83,.35,.26,.15,.38,.27,.35,.37-.02,.07-.07,.12-.14,.17-.11,.08-.2,.22-.26,.4-.18,.47-.33,.83-.45,1.08v5.52c0,.74,.03,1.35,.08,1.84-.04,.03-.26,.05-.67,.05Zm1.54,0c-.13-.32-.33-.62-.58-.9,.78-.08,1.55-.2,2.31-.38-.24-.15-.47-.34-.71-.56-.21,.11-.53,.25-.94,.42-.19-.33-.42-.58-.67-.75,1.04-.31,1.84-.71,2.39-1.2-.19-.11-.29-.35-.3-.71-.31,.43-.63,.77-.98,1.02l-.71-.58c.17-.1,.35-.24,.53-.41h-.77v-1.49h.93v-2.58h1.69s.03-.11,.04-.2c.02-.08,.04-.13,.04-.17h-1.18c-.35,0-.74,.02-1.17,.05-.02-.03-.03-.19-.03-.5s.01-.47,.03-.5c.39,.04,.91,.06,1.56,.06h3.14c.52,0,1.04-.02,1.56-.06,.02,.03,.03,.19,.03,.5s-.01,.48-.03,.51c-.33-.04-.78-.06-1.33-.06h-1.33l-.16,.36h1.1c.42,0,.79-.02,1.08-.05,.03,0,.05,.02,.05,.05-.04,.35-.05,.78-.05,1.28v1.29h.87v1.49h-.65c.18,.2,.32,.38,.41,.53l-.78,.43c-.11-.19-.33-.48-.66-.84-.05,.26-.14,.45-.27,.55-.13,.1-.34,.15-.64,.15h-.87c-.08,.1-.18,.21-.3,.3h2.08l.21-.04,.72,.42c-.32,.49-.78,.92-1.38,1.27,.71,.14,1.46,.23,2.24,.27-.25,.29-.46,.62-.63,.99-1.19-.12-2.18-.34-2.97-.65-.81,.28-1.79,.51-2.92,.67Zm2.79-3.89h.9c.1,0,.17-.02,.21-.07,.04-.04,.06-.14,.08-.29,.19,.1,.41,.17,.67,.22-.02-.02-.05-.05-.09-.09-.08-.09-.15-.15-.19-.19l.74-.39c.1,.08,.17,.15,.22,.2v-.33h-1.77c.16,.14,.29,.28,.4,.42l-.74,.44c-.17-.26-.45-.55-.84-.85h-1.76v.5c.1-.12,.19-.23,.26-.32l.64,.35v-.19s0-.06,0-.1c0-.05,0-.09,0-.11,.22-.01,.44-.01,.67,.01,.28,.03,.42,.07,.42,.14-.08,.07-.12,.14-.12,.21v.21c0,.1,.02,.17,.06,.2,.04,.03,.14,.05,.28,.05Zm-1.21-3.31h2.84v-.31h-2.84v.31Zm0,.83h2.84v-.33h-2.84v.33Zm0,.82h2.84v-.32h-2.84v.32Zm1.4,3.87c.4-.16,.75-.35,1.03-.56h-2.04c.27,.22,.61,.4,1.01,.56Z"/><path class="cls-1" d="M59.3,44.75c-.33-.38-.63-.68-.9-.91,1.14-.22,2.08-.51,2.82-.88h-1.51v-2.13c0-.89-.03-1.6-.09-2.13,0-.05,.03-.07,.09-.07,.49,.05,1.05,.07,1.69,.07h1.7c-.08-.13-.19-.27-.33-.42-.14-.15-.27-.26-.38-.34,.23-.15,.43-.32,.59-.52h-.92v.54c0,.22,0,.4,.03,.54-.01,.03-.21,.04-.57,.04s-.56-.01-.57-.04c.02-.14,.03-.32,.03-.54v-.54h-.9c-.19,.73-.52,1.31-.98,1.73-.09-.12-.21-.26-.36-.42-.17-.17-.32-.29-.44-.35,.58-.54,.88-1.28,.88-2.23v-.95l.77,.2c.88-.1,1.59-.24,2.13-.42,.18,.18,.33,.39,.44,.62s.12,.35,.03,.38c-.06,.02-.13,.01-.2-.02-.12-.05-.27-.05-.45-.01-.53,.1-1.08,.18-1.67,.22v.05c0,.14,0,.24-.01,.31h2.81v.84c.24-.32,.35-.72,.35-1.21v-.95l.82,.2c.98-.12,1.74-.26,2.28-.43,.19,.19,.33,.41,.44,.63,.11,.23,.12,.35,.03,.37-.06,.01-.13,0-.21-.03-.12-.06-.27-.06-.45-.02-.5,.1-1.12,.18-1.87,.24v.05c0,.13,0,.23-.01,.3h1.61c.45,0,.98-.02,1.6-.07,.02,.03,.03,.21,.03,.52s0,.47-.03,.48c-.15-.02-.37-.03-.64-.03h-.65v.55c0,.22,0,.4,.03,.54-.01,.03-.21,.04-.57,.04s-.56-.01-.57-.04c.02-.14,.03-.32,.03-.54v-.55h-1.03c-.2,.52-.54,.95-1,1.28h1.67c.63,0,1.19-.02,1.66-.07,.04,0,.05,.02,.05,.07-.04,.29-.05,.65-.05,1.06v3.19h-1.76c1.07,.38,2.04,.79,2.91,1.22l-1.41,.55c-.68-.4-1.57-.81-2.66-1.23l.92-.54h-2.98l.93,.42c-.4,.26-.9,.52-1.52,.78-.55,.23-1.11,.42-1.67,.58Zm1.58-4.85h4.44v-.45h-4.44v.45Zm0,1.16h4.44v-.45h-4.44v.45Zm0,1.16h4.44v-.46h-4.44v.46Z"/><path class="cls-1" d="M74.69,44.76c-.06-.15-.16-.34-.31-.57s-.28-.42-.39-.55c.93-.42,1.67-1.02,2.2-1.78-.26-.57-.49-1.28-.7-2.12-.2,.33-.35,.57-.47,.72-.17-.2-.4-.41-.68-.64-.45,.55-.93,1.03-1.43,1.43v.21c.28-.02,.7-.06,1.26-.1,.26-.02,.46-.04,.59-.05v1.06c-.38,.04-.96,.09-1.72,.16-.06,0-.11,.01-.14,.01v1.02c0,.28-.03,.49-.09,.63-.07,.16-.19,.28-.37,.36-.26,.12-.75,.18-1.47,.18-.05-.32-.16-.67-.34-1.05,.48,.01,.8,.01,.96,0,.11,0,.17-.05,.17-.15v-.89c-.33,.03-.79,.07-1.39,.13-.24,.03-.42,.04-.53,.05l-.12-1.11c.81-.06,1.49-.11,2.04-.16v-.81h.41c.23-.22,.41-.39,.53-.52h-.73c-.51,.44-1.04,.81-1.58,1.13-.24-.34-.51-.66-.81-.95,.32-.16,.68-.37,1.07-.64v-.5h.65c.17-.15,.36-.32,.56-.52h-1.03c-.24,0-.58,.01-1.02,.04-.02-.02-.03-.21-.03-.57s.01-.55,.03-.56c.18,.02,.43,.03,.74,.03h.75v-.7h-.57c-.2,0-.39,.01-.57,.03-.02-.01-.03-.2-.03-.55s.01-.54,.03-.55c.14,.02,.33,.03,.57,.03h.57v-.48c0-.13,0-.3-.02-.51,.26-.01,.54-.01,.81,.01,.34,.03,.51,.07,.51,.14-.11,.14-.17,.28-.17,.42v.43h.99v.71c.22-.38,.43-.85,.65-1.41,.3,.09,.57,.21,.82,.35,.27,.15,.39,.27,.34,.35-.03,.07-.08,.12-.16,.17-.12,.08-.22,.21-.29,.39-.26,.51-.48,.9-.66,1.18h.65v.71c.42-.9,.73-2.04,.94-3.4,.33,.05,.64,.12,.92,.22,.31,.11,.45,.21,.44,.29-.01,.06-.05,.12-.1,.18-.09,.08-.15,.2-.19,.37-.08,.38-.15,.66-.2,.84h2.04c.24,0,.46-.01,.68-.03,.02,.01,.03,.21,.03,.6s-.01,.59-.03,.6c-.1-.01-.2-.02-.3-.02h-.3c-.22,1.58-.59,2.87-1.11,3.88,.49,.78,1.09,1.36,1.8,1.74-.33,.3-.61,.66-.83,1.08-.66-.4-1.24-.96-1.73-1.68-.55,.68-1.27,1.25-2.15,1.71Zm-2.25-7.09h.33c.11-.15,.19-.27,.24-.34,.04-.06,.1-.14,.17-.26,.03-.04,.05-.07,.06-.09h-.8v.7Zm1.68,1.81c.11-.15,.19-.27,.25-.35,.09-.14,.17-.27,.24-.4h-1.22c-.15,.19-.3,.37-.44,.52h.59l.22-.06,.35,.29Zm2.79,.97c.26-.7,.44-1.51,.54-2.43h-1.16c.08,.49,.17,.91,.26,1.26,.12,.46,.24,.85,.35,1.17Z"/><path class="cls-1" d="M89.47,39.43c-.13-.17-.34-.4-.62-.67-2.24,.08-4.57,.15-7,.21l-.03-1.12,1.42-.02c.19-.26,.37-.56,.54-.89h-1.16c-.34,0-.73,.02-1.16,.05-.02-.03-.03-.23-.03-.6s.01-.58,.03-.62c.51,.06,1.17,.08,1.95,.08h1.95v-.45c0-.13,0-.29-.02-.48,.29-.01,.58-.01,.89,.01,.37,.03,.55,.07,.55,.14-.11,.12-.17,.25-.17,.39v.4h2.93c.21,0,.54-.01,.97-.04,.02,.02,.03,.22,.03,.58s-.01,.56-.03,.58c-.33-.03-.67-.04-1.01-.04h-1.01c.95,.7,1.63,1.3,2.04,1.78l-1.07,.7Zm-6.01,5.34c-.42,0-.66-.02-.72-.05,.08-.7,.12-1.59,.12-2.67v-1.35c0-.56-.02-1-.06-1.33,0-.05,.02-.07,.06-.07,.45,.05,.98,.07,1.57,.07h3.17c.6,0,1.13-.02,1.59-.07,.06,0,.09,.02,.09,.07-.06,.52-.09,1.22-.09,2.1v2.1c0,.29-.04,.51-.12,.66-.08,.15-.23,.26-.44,.34-.3,.1-.91,.16-1.85,.16-.06-.27-.18-.6-.37-.99,.55,.04,.98,.04,1.3,.02,.15,0,.23-.07,.23-.2v-.48h-3.87v.82c0,.29,.01,.56,.04,.82-.02,.03-.24,.05-.66,.05Zm.62-3.9h3.87v-.5h-3.87v.5Zm0,1.35h3.87v-.5h-3.87v.5Zm.54-4.39c.35,0,.89-.02,1.63-.03,.66,0,1.16-.01,1.5-.02-.2-.17-.42-.34-.67-.52l.49-.3h-2.25c-.12,.17-.32,.42-.59,.75-.05,.06-.08,.1-.1,.12Z"/></g></g></g></svg>