<?xml version="1.0" encoding="UTF-8"?><svg id="_圖層_2" xmlns="http://www.w3.org/2000/svg" viewBox="0 0 129.1 129.1"><defs><style>.cls-1{fill:#fff;}.cls-2{fill:#26a9ce;}</style></defs><g id="_說明"><g><circle class="cls-2" cx="64.55" cy="64.55" r="64.55"/><g><path class="cls-1" d="M28.84,46.16c3.91,0,5.42-2.13,5.42-5.52v-3.23c0-3.58-1.42-5.39-4.07-5.39-1.55,0-2.49,.71-3.04,1.78h-.03v-4.71c0-1.33,.42-2.26,1.74-2.26s1.71,.78,1.71,2.13v1.45h3.36v-1.16c0-3.23-1.07-5.49-5.13-5.49s-5.33,2.49-5.33,5.91v10.66c0,3.39,1.49,5.85,5.36,5.85m-1.71-9.2c.06-1.23,.58-2,1.74-2,1.26,0,1.74,.77,1.74,2.2v3.81c0,1.39-.52,2.2-1.78,2.2s-1.71-.84-1.71-2.2v-4.01Z"/><path class="cls-1" d="M86.7,58.79c-.09-.1-.22-.16-.36-.16H46.95c-.14,0-.26,.06-.35,.16-.09,.11-.12,.25-.1,.37l6.62,40.03c.04,.22,.23,.39,.45,.39h8.12l.56,6.52h-3.42s7.95,7.96,7.95,7.96l7.97-7.97h-3.42s.55-6.51,.55-6.51h8.27c.23,0,.42-.16,.45-.39l6.19-40.02c.02-.14-.02-.27-.1-.37Zm-15.22,32.05s-1.79,1.84-4.7,1.64c-2.92,.2-4.71-1.64-4.71-1.64-2.95-2.95-1.9-6.62-.87-8.51,.63-1.19,5.17-8,5.56-8.58v-.05s0,0,.02,.02l.02-.02v.05c.38,.58,4.92,7.39,5.56,8.58,1.03,1.9,2.08,5.56-.87,8.51Zm12.5-23.62c-1.07-.47-2.42-.3-3.72,.23-4.89,1.98-8.21,2.69-13.36,1.08-3.24-1.01-6.27-3.14-9.85-1.84-2.38,.85-4.59,1.67-7.28,1.65l-1.55-7.96h36.87l-1.12,6.84Z"/><g><path class="cls-1" d="M45.44,28.75c-.15-.15-.4-.34-.77-.55-.31-.19-.63-.35-.96-.5l.66-.93c.31,.11,.64,.25,.97,.43,.34,.19,.61,.36,.8,.52l-.7,1.03Zm-.39,4.8l-1.09-.73c.25-.42,.52-.93,.81-1.51,.31-.61,.58-1.22,.83-1.83,.28,.22,.51,.43,.71,.64,.23,.24,.33,.41,.29,.49-.03,.06-.08,.11-.15,.16-.11,.08-.21,.21-.28,.39-.34,.8-.72,1.6-1.13,2.4Zm.93-7.55c-.16-.16-.42-.35-.78-.58-.36-.22-.69-.39-.97-.51l.69-.94c.79,.33,1.38,.67,1.77,1.01l-.71,1.02Zm1.97,7.67c-.06-.36-.18-.73-.37-1.1,.58,.02,1,.02,1.26,.01,.08,0,.14-.01,.17-.04s.05-.08,.05-.15v-.87h-.92c-.21,0-.51,.01-.92,.04-.02-.02-.03-.21-.03-.55s.01-.53,.03-.55c.31,.03,.61,.04,.92,.04h.92v-.66h-1.26c-.38,0-.8,.02-1.26,.05-.02-.03-.03-.22-.03-.58s.01-.55,.03-.56c.16,.02,.37,.03,.63,.03h1.9v-.66h-1.72v-.67l-.02,.03c-.26-.22-.61-.42-1.04-.63,.51-.65,.89-1.46,1.16-2.43l.79,.2c1.51-.18,2.67-.41,3.48-.7,.22,.22,.4,.46,.54,.71s.17,.39,.08,.42c-.06,.01-.13,.01-.2-.01-.12-.05-.26-.05-.44,0-1.02,.24-2.15,.42-3.39,.52-.18,.49-.42,1-.73,1.53h1.79c-.08-.51-.2-.96-.36-1.36l1.01-.3c.23,.49,.38,.96,.45,1.43l-.74,.23h2.32c-.24-.56-.58-1.09-1-1.61l.94-.5c.25,.29,.49,.6,.71,.95,.22,.35,.39,.66,.49,.93l-.64,.35v1.54h.37c.09,0,.21,0,.37-.02,.02,0,.03,.19,.03,.55s-.01,.54-.03,.56c-.11-.01-.23-.02-.37-.02h-.37v1.03c0,.35,.01,.69,.04,1.02-.02,.03-.23,.04-.63,.04s-.59-.01-.59-.04v-.07c0-.06,.01-.09,.01-.11v-.19h-1.15v.9c0,.31-.04,.54-.11,.69-.08,.16-.21,.28-.41,.36-.19,.08-.43,.14-.74,.16-.21,.02-.55,.03-1.02,.03Zm2.28-4.88h1.15v-.66h-1.15v.66Zm0,1.72h1.15v-.66h-1.15v.66Z"/><path class="cls-1" d="M56.12,32.78c-.12-.16-.27-.34-.47-.53-.22-.21-.4-.36-.54-.45,.59-.41,1.1-.96,1.54-1.66s.77-1.5,1.01-2.41h-1.12c-.33,0-.7,.02-1.11,.05-.02-.03-.03-.25-.03-.68s0-.64,.03-.66c.17,.02,.39,.03,.67,.03h2l.22-.04,.83,.31c-.23,1.39-.62,2.61-1.16,3.67-.52,1.02-1.15,1.81-1.88,2.36Zm1.93,.91c-.06-.41-.21-.87-.48-1.39,.38,.02,.84,.03,1.4,.02h.14c.18,0,.27-.08,.27-.25v-6.09c0-.81-.03-1.5-.08-2.08,.33-.01,.67-.01,1,.01,.42,.03,.62,.07,.62,.14-.17,.28-.25,.57-.25,.87v.87c.19,.76,.43,1.46,.72,2.1,.84-.79,1.53-1.56,2.05-2.32,.3,.22,.56,.44,.78,.69,.23,.26,.31,.43,.25,.5-.05,.06-.11,.09-.2,.1-.13,.04-.27,.12-.41,.26-.68,.7-1.33,1.29-1.96,1.78,.79,1.34,1.77,2.3,2.94,2.87-.15,.13-.31,.3-.5,.53-.18,.23-.33,.44-.44,.63-1.38-.79-2.46-2.1-3.24-3.93v3.08c0,.38-.04,.67-.14,.87-.09,.21-.24,.36-.45,.46-.36,.19-1.04,.28-2.03,.28Z"/><path class="cls-1" d="M74.95,33.69c-.91-.62-1.85-1.16-2.81-1.64l.74-.68h-3.07l.9,.67c-.39,.28-.87,.57-1.44,.89-.54,.29-1.04,.54-1.52,.75-.22-.25-.54-.54-.94-.85,.45-.17,.92-.39,1.42-.67,.5-.27,.92-.53,1.26-.78h-1.37c-.45,0-.9,.02-1.36,.06-.02-.03-.03-.25-.03-.64s0-.59,.03-.6c.15,.01,.31,.02,.47,.02h.48l-.08-2.8-.07-2.8,.68,.19c.5-.28,.9-.54,1.21-.78l.77,.76v-.37c0-.1,0-.24-.02-.41,.24-.01,.49-.01,.75,.01,.31,.03,.47,.07,.47,.14-.11,.13-.17,.26-.17,.41v.41h.78c.26,0,.53-.01,.78-.03,.02,.01,.03,.2,.03,.55s0,.53-.03,.55c-.19-.02-.45-.03-.78-.03h-.78v.7h1.52v3.5h1.27c0-.17,.02-.46,.05-.85h-.49c-.11,0-.27,0-.48,.02-.02-.01-.03-.19-.03-.54s0-.52,.03-.53c.17,.01,.33,.02,.5,.02h.51c.01-.39,.02-.68,.03-.89h-.52c-.12,0-.29,0-.51,.02-.02-.01-.03-.19-.03-.54s.01-.52,.03-.53c.17,.01,.34,.02,.52,.02h.53c0-.19,.01-.46,.01-.82h-.59c-.19,0-.39,.01-.59,.03-.02-.01-.03-.2-.03-.57s.01-.56,.03-.59c.31,.03,.7,.05,1.15,.05h1.16c-.01,2.52-.06,4.41-.14,5.67h.49c.12,0,.28,0,.49-.02,.02,0,.03,.21,.03,.6s-.01,.61-.03,.64c-.34-.04-.8-.06-1.39-.06h-1.4c1.24,.6,2.16,1.1,2.76,1.47l-1.2,.84Zm-6.13-3.47h1.39v-1.1c0-.4-.02-.78-.05-1.13,.25-.01,.51-.01,.78,.01,.33,.03,.49,.07,.49,.14-.17,.33-.25,.67-.25,1v1.07h.57v-2.53h-1.52v-2.68c-.55,.27-1.06,.5-1.54,.69l.02,.75h.58c.19,0,.39-.01,.57-.03,.02,.01,.03,.19,.03,.54s-.01,.53-.03,.54c-.13-.02-.32-.03-.56-.03h-.56l.02,.88h.55c.19,0,.38-.01,.55-.03,.02,.01,.03,.19,.03,.54s-.01,.53-.03,.54c-.12-.02-.3-.03-.53-.03h-.54l.03,.86Z"/><path class="cls-1" d="M45.33,46.25c-.38,0-.6-.02-.65-.05,.06-.54,.09-1.27,.09-2.17v-2.17c-.15,.19-.34,.42-.59,.69-.06-.13-.15-.32-.29-.57-.14-.25-.25-.43-.34-.56,.36-.35,.71-.78,1.05-1.27,.35-.51,.64-1.01,.87-1.51l.92,.33v-.36h.97c.03-.13,.06-.32,.1-.56h-.4c-.09,0-.22,0-.39,.02-.02-.01-.03-.17-.03-.46s.01-.44,.03-.45c.15,.01,.31,.02,.46,.02h.47c.04-.25,.07-.49,.09-.72,.28,.02,.53,.05,.76,.09,.26,.04,.38,.07,.38,.1,0,.02-.02,.05-.06,.07-.06,.02-.09,.06-.09,.13,0,.03-.02,.09-.03,.16-.01,.07-.02,.13-.03,.17h1.53v1.43h.26s.08,0,.14,0,.1,0,.12,0c.02,0,.03,.17,.03,.5s0,.51-.03,.56c-.53-.06-1.24-.09-2.15-.09h-2.16v-.26c-.21,.42-.38,.73-.5,.93v4.47c0,.63,.02,1.13,.06,1.49-.03,.03-.23,.05-.62,.05Zm-1.12-6.86c-.19-.39-.39-.71-.59-.95,.32-.26,.64-.58,.95-.94,.33-.38,.57-.73,.73-1.04,.28,.1,.54,.24,.78,.4,.25,.17,.35,.28,.31,.34-.04,.05-.09,.08-.16,.1-.11,.04-.21,.12-.3,.25-.15,.2-.33,.43-.54,.68-.38,.44-.77,.82-1.18,1.16Zm4.71,6.86c-.37,0-.56-.02-.57-.05,.02-.12,.03-.3,.03-.53v-.54h-1.08c-.33,0-.69,.02-1.08,.05-.02-.03-.03-.2-.03-.52s.01-.48,.03-.49h.08c.07,0,.12,.01,.16,.01h.24v-1.56h1.69v-.51h-1.69v-1.1c0-.42-.02-.79-.05-1.08,0-.05,.02-.07,.05-.07,.52,.05,1.13,.07,1.81,.07h1.83v2.18h-.87v.51h.49c.11,0,.27,0,.48-.02,.02,0,.03,.17,.03,.48s-.01,.48-.03,.5c-.15-.01-.31-.02-.48-.02h-.49v.63h1.18v.82c.33,.01,.55,.01,.67,0,.1,0,.15-.05,.15-.15v-3.92h-.46c-.1,0-.25,0-.45,.02-.02-.01-.03-.21-.03-.59s0-.59,.03-.62c.33,.04,.79,.06,1.37,.06h.69c.23,0,.46-.01,.69-.03,.02,.01,.03,.21,.03,.59s-.01,.58-.03,.59c-.11-.01-.23-.02-.34-.02h-.35v3.93c0,.3-.03,.53-.08,.69-.06,.17-.17,.31-.33,.41-.25,.14-.72,.21-1.4,.21-.05-.35-.14-.71-.27-1.05h-1.04v.54c0,.23,0,.41,.03,.53-.01,.03-.21,.05-.57,.05Zm-1.37-4.94h1.83v-.58h-1.83v.58Zm.12,2.88h.71v-.63h-.71v.63Zm.71-5.58h.8v-.56h-.7c0,.08-.02,.17-.05,.29,0,.03-.02,.07-.03,.13-.01,.06-.02,.11-.03,.14Zm2.35-.4s-.03-.23-.03-.6,.01-.57,.03-.58c.15,.02,.34,.03,.59,.03h1.21c.2,0,.4-.01,.59-.03,.02,.01,.03,.21,.03,.58s-.01,.57-.03,.58c-.15-.02-.34-.03-.59-.03h-.61c-.36,0-.76,.02-1.2,.05Z"/><path class="cls-1" d="M55.41,46s-.03-.28-.03-.7,.01-.65,.03-.69c.52,.06,1.18,.08,1.97,.08h1.97v-2.1h-1.39c-.46,0-.92,.02-1.38,.06-.02-.03-.03-.26-.03-.67s.01-.63,.03-.66c.35,.04,.81,.06,1.38,.06h1.39v-1.84h-2.12c-.33,.65-.65,1.16-.95,1.51-.35-.29-.72-.54-1.09-.74,.4-.43,.76-.99,1.08-1.67,.31-.65,.56-1.34,.73-2.07,.33,.08,.63,.17,.92,.29,.29,.13,.43,.22,.41,.28-.01,.06-.05,.1-.1,.14-.08,.07-.15,.17-.19,.31-.1,.29-.18,.53-.26,.73h1.57v-.94c0-.29-.01-.62-.04-.98,.31-.01,.63-.01,.96,.01,.41,.03,.62,.07,.62,.14-.17,.29-.25,.59-.25,.89v.89h1.72c.48,0,1.05-.02,1.72-.07,.02,.04,.03,.26,.03,.68s-.01,.64-.03,.68c-.5-.05-1.07-.07-1.72-.07h-1.72v1.84h1.53c.51,0,1.02-.02,1.52-.06,.02,.03,.03,.25,.03,.66s0,.63-.03,.67c-.38-.04-.88-.06-1.52-.06h-1.53v2.1h1.98c.62,0,1.28-.03,1.98-.08,.02,.04,.03,.27,.03,.69s-.01,.66-.03,.7c-.57-.06-1.33-.09-2.29-.09h-4.6c-.76,0-1.53,.03-2.29,.09Z"/><path class="cls-1" d="M66.68,39.24s-.03-.23-.03-.57,0-.52,.03-.54c.33,.03,.67,.04,1,.04h2c.22,0,.56-.01,1-.04,.02,.02,.03,.2,.03,.53s-.01,.51-.03,.53c-.33-.03-.67-.04-1-.04h-1c-.63,0-1.29,.03-2,.08Zm4.25,6.95c-.17-.4-.38-.75-.64-1.07v.53h-2.14v.21s0,.07,.01,.13v.07s-.18,.05-.53,.05-.55-.02-.58-.05c.05-.51,.07-1.11,.07-1.77v-1.78h1.58c.6,0,1.13-.02,1.59-.07,.03,0,.05,.02,.05,.07-.04,.36-.05,.79-.05,1.29v1.3c.79-.2,1.47-.5,2.06-.9-.46-.51-.85-1.11-1.17-1.8l1.03-.34h-.71c-.24,0-.48,.01-.71,.03-.02-.01-.03-.21-.03-.58s.01-.57,.03-.57h.06s.09,.01,.12,.01h.18c-.24-.28-.52-.53-.86-.75v.4h-1.57c-.44,0-.96,.02-1.58,.07-.02-.03-.03-.22-.03-.55s.01-.51,.03-.55c.45,.05,.98,.07,1.58,.07h1.57v.5c.4-.28,.67-.63,.82-1.04,.11-.29,.17-.66,.17-1.1v-1.24h1.72c.64,0,1.21-.02,1.71-.07,.03,0,.05,.02,.05,.07-.03,.33-.05,.72-.05,1.17v1.17c0,.15,0,.24,.02,.27s.05,.05,.1,.05h.26c.07,0,.11-.06,.14-.18,.03-.14,.04-.43,.04-.87,.21,.17,.55,.31,1,.44-.05,.64-.15,1.08-.31,1.31-.15,.23-.39,.34-.74,.34h-.59c-.41,0-.69-.1-.83-.29-.15-.19-.22-.55-.22-1.07v-1.26h-1.15v.18c0,1.35-.42,2.32-1.26,2.91h3.6l.2-.05,.8,.3c-.32,1.2-.85,2.21-1.58,3.04,.59,.4,1.29,.7,2.11,.9-.29,.28-.55,.64-.79,1.07-.84-.26-1.59-.64-2.25-1.14-.66,.48-1.44,.86-2.34,1.14Zm-3.78-4.13s-.03-.21-.03-.53,.01-.49,.03-.5c.19,.02,.45,.03,.78,.03h1.58c.26,0,.53-.01,.78-.03,.02,.01,.03,.18,.03,.5s0,.48-.03,.5c-.19-.02-.45-.03-.78-.03h-.79c-.44,0-.96,.02-1.58,.07Zm.04-4.28s-.03-.21-.03-.53,0-.49,.03-.5c.19,.02,.44,.03,.77,.03h1.54c.26,0,.52-.01,.77-.03,.02,.01,.03,.18,.03,.5s-.01,.49-.03,.5c-.19-.02-.45-.03-.77-.03h-.77c-.51,0-1.03,.02-1.54,.06Zm.96,6.89h1.08v-1.2h-1.08v1.2Zm5.09-1.22c.39-.39,.71-.86,.97-1.41h-1.96c.25,.51,.58,.98,.99,1.41Z"/><path class="cls-1" d="M80.26,46.19h-.16c-.03-.42-.13-.79-.3-1.11,.22,.03,.46,.04,.74,.04,.13,0,.22-.05,.29-.16,.07-.11,.12-.42,.16-.93,.03-.52,.06-1.39,.08-2.61h-.8c-.08,1.04-.22,1.92-.4,2.64-.22,.85-.52,1.56-.92,2.12-.24-.35-.53-.64-.88-.87,.46-.64,.77-1.54,.94-2.7,.11-.77,.18-1.92,.2-3.43h-.49c-.12,0-.28,0-.49,.02-.02-.01-.03-.21-.03-.6s.01-.59,.03-.6c.19,.02,.45,.03,.78,.03h.78v-.79c0-.32-.01-.59-.03-.82,.28-.01,.57-.01,.87,.01,.36,.03,.54,.07,.54,.14-.14,.24-.21,.48-.21,.73v.74h1.6v.78c.4-.65,.71-1.44,.91-2.37,.31,.06,.61,.14,.89,.23,.29,.1,.42,.18,.41,.23-.01,.04-.04,.07-.08,.09-.08,.04-.13,.11-.16,.22-.06,.22-.12,.4-.17,.54h1.61c.45,0,.99-.02,1.61-.07,.02,.04,.03,.25,.03,.63s-.01,.59-.03,.61c-.31-.03-.61-.04-.92-.04h-2.75c-.2,.42-.4,.75-.58,1.01h.75v1l.55-.26v-.75c0-.31,0-.57-.03-.78,.24-.01,.49-.01,.74,.01,.31,.03,.47,.07,.47,.14-.11,.14-.17,.29-.17,.45v.46l.73-.34,.04-.03,.19-.14,.75,.27-.04,.17c0,.24,0,.57,0,1,0,1.08,0,1.7-.02,1.86-.02,.37-.17,.61-.45,.72-.17,.08-.45,.11-.83,.11-.04-.38-.12-.68-.23-.91,.08,0,.2,.01,.35,.01,.09,0,.14-.05,.15-.16,0-.04,.01-.32,.01-.82,0-.34,.01-.62,.01-.83l-.65,.31v1.46c0,.61,.02,1.09,.06,1.45-.03,.03-.21,.04-.56,.04s-.54-.01-.56-.04c.04-.33,.05-.74,.05-1.21v-1.22l-.55,.26v2.51c0,.22,.03,.35,.1,.41,.07,.06,.23,.08,.48,.08h1.58c.19,0,.33-.07,.39-.2,.07-.14,.12-.43,.15-.89,.26,.19,.58,.33,.98,.43-.07,.65-.2,1.1-.4,1.34-.2,.24-.54,.36-1.04,.36h-1.78c-.6,0-1.01-.1-1.22-.31-.21-.21-.31-.61-.31-1.21v-2l-.42,.2-.42-1.01c-.02,1.31-.06,2.24-.1,2.77-.05,.58-.13,.96-.25,1.12-.15,.23-.37,.37-.66,.43-.15,.03-.44,.05-.89,.05Zm1.9-4.38l.83-.4v-1.08l-.09,.1c-.34-.39-.64-.68-.91-.88,.1-.1,.21-.22,.32-.38h-1.95c-.01,.5-.02,.87-.03,1.12h1.84v1.51Z"/></g></g></g></g></svg>