<?xml version="1.0" encoding="UTF-8"?><svg id="_設計" xmlns="http://www.w3.org/2000/svg" viewBox="0 0 129.11 129.11"><defs><style>.cls-1{font-family:GenSekiGothicTW-B, 'GenSekiGothic TW';font-size:12px;letter-spacing:.1em;}.cls-1,.cls-2{fill:#fff;}.cls-3{fill:#8e1942;}</style></defs><circle class="cls-3" cx="64.55" cy="64.55" r="64.55"/><g><path class="cls-2" d="M37.73,43.18v-2.39c0-2.1-.74-3.62-2.45-4.39,1.45-.71,2.13-2,2.13-3.81v-.91c0-3.42-1.78-5.26-5.17-5.26s-5.1,1.84-5.1,5.26v.91c0,1.78,.65,3.1,2.07,3.81-1.71,.78-2.42,2.29-2.42,4.39v2.39c0,3.33,1.58,5.65,5.46,5.65s5.49-2.33,5.49-5.65m-7.14-11.72c0-1.33,.45-2.1,1.65-2.1s1.68,.77,1.68,2.1v1.48c0,1.32-.45,2.1-1.68,2.1s-1.65-.78-1.65-2.1v-1.48Zm3.46,12.11c0,1.32-.48,2.26-1.81,2.26s-1.78-.94-1.78-2.26v-3.55c0-1.32,.48-2.26,1.78-2.26s1.81,.94,1.81,2.26v3.55Z"/><path class="cls-2" d="M83.76,69.13l-11.04,10.5c-.42,.41-.63,.72-.63,1.58v29.42c0,.35,.28,.63,.63,.63h11.4c.35,0,.63-.28,.63-.63v-41.24c0-.35-.27-.98-.99-.26"/><path class="cls-2" d="M51.97,82.81l-11.04,10.5c-.42,.42-.63,.72-.63,1.58v15.75c0,.34,.28,.63,.63,.63h11.4c.35,0,.63-.28,.63-.63v-27.56c0-.35-.27-.98-.99-.26"/><path class="cls-2" d="M88.78,56.4c0-.08-.03-.17-.09-.24-.06-.06-.13-.08-.2-.09h-.06s-.09,0-.09,0l-8.45,1.91-.15,.02c-.06,.01-.12,.04-.16,.09-.12,.13-.12,.33,0,.45l.1,.1,1.93,1.93-19.15,19.15-8.84-8.84c-.1-.1-.26-.1-.36,0l-2.4,2.4s0,0,0,0l-14.18,14.18c-.1,.1-.1,.26,0,.36l2.4,2.4c.1,.1,.26,.1,.36,0l14-14,6.42,6.42s0,.02,.02,.03l2.4,2.4c.1,.1,.26,.1,.36,0l21.73-21.73,2.03,2.03c.12,.13,.33,.13,.45,0,.06-.06,.09-.13,.09-.21v-.03s1.86-8.63,1.86-8.63v-.09Z"/><path class="cls-2" d="M67.93,84.65l-5.34,5.38c-.1,.08-.25,.08-.34-.01l-4.84-4.93c-.89-.88-1.08-.17-1.08,.18v25.36c0,.35,.28,.63,.62,.63h11.4c.35,0,.63-.28,.63-.63v-25.78c0-.35-.27-.98-1.06-.2"/><text class="cls-1" transform="translate(43.28 33.5)"><tspan x="0" y="0">就業與</tspan><tspan x="0" y="14.4">經濟成長</tspan></text></g></svg>