<?xml version="1.0" encoding="UTF-8"?><svg id="_設計" xmlns="http://www.w3.org/2000/svg" viewBox="0 0 129.11 129.11"><defs><style>.cls-1{font-family:GenSekiGothicTW-B, 'GenSekiGothic TW';font-size:12px;letter-spacing:.1em;}.cls-1,.cls-2{fill:#fff;}.cls-3{fill:#4c8b38;}</style></defs><circle class="cls-3" cx="64.55" cy="64.55" r="64.55"/><g><path class="cls-2" d="M31.94,54.68c3.71,0,5.33-1.97,5.33-5v-3.23c0-2-.87-3.29-2.71-3.71,1.52-.48,2.52-1.71,2.52-3.55v-1.91c0-3.1-1.49-5-4.88-5-3.81,0-5.14,2.26-5.14,5.49v1.94h3.36v-2.23c0-1.36,.42-2.13,1.58-2.13s1.58,.77,1.58,1.97v2.36c0,1.16-.77,1.78-1.97,1.78h-1.39v2.81h1.55c1.29,0,1.81,.61,1.81,1.78v3.62c0,1.16-.52,1.97-1.65,1.97-1.26,0-1.71-.84-1.71-2.13v-3.13h-3.36v2.87c0,3.33,1.32,5.46,5.07,5.46"/><path class="cls-2" d="M102.48,89.17c0-3.06-1.96-5.53-4.93-5.53-1.48,0-3.28,1.63-4.25,2.63-.97-1-2.64-2.63-4.13-2.63-2.97,0-5.05,2.48-5.05,5.53,0,1.53,.6,2.91,1.58,3.91h0l7.61,7.63,7.6-7.62h0c.97-1.01,1.58-2.39,1.58-3.92Z"/><path class="cls-2" d="M70.07,113.16s-.05,0-.08,0c-.58-.04-1.06-.46-1.15-1.04l-3.87-22.52-5.86,10.86c-.26,.48-.79,.73-1.32,.64-.53-.09-.94-.52-1.02-1.05l-2.49-17.38-4.55,10.22c-.2,.45-.65,.74-1.14,.74H30.92c-.69,0-1.25-.56-1.25-1.25s.56-1.25,1.25-1.25h16.87l5.98-13.44c.23-.51,.76-.81,1.31-.73,.55,.08,.99,.51,1.06,1.06l2.56,17.92,5.78-10.71c.25-.47,.78-.73,1.3-.64,.53,.09,.94,.5,1.03,1.02l3.58,20.85,13.05-43.34c.15-.49,.59-.85,1.1-.89,.52-.04,1,.24,1.22,.7l6.87,14.23c.3,.62,.04,1.37-.58,1.67-.62,.3-1.37,.04-1.67-.58l-5.47-11.34-13.65,45.35c-.16,.53-.65,.89-1.2,.89Z"/><text class="cls-1" transform="translate(42.56 39.17)"><tspan x="0" y="0">良好健康</tspan><tspan x="0" y="14.4">與社會福利</tspan></text></g></svg>