<?xml version="1.0" encoding="UTF-8"?><svg id="_設計" xmlns="http://www.w3.org/2000/svg" viewBox="0 0 129.11 129.11"><defs><style>.cls-1{font-family:GenSekiGothicTW-B, 'GenSekiGothic TW';font-size:12px;letter-spacing:.1em;}.cls-1,.cls-2{fill:#fff;}.cls-3{fill:#ff3a21;}</style></defs><circle class="cls-3" cx="64.55" cy="64.55" r="64.55"/><g><g><path class="cls-2" d="M98.63,51.71h-13.5c-.09,0-.17,.08-.17,.17v4.48c0,.1,.08,.17,.17,.17h5.37l-5.97,5.97c-3.01-2.36-6.79-3.77-10.9-3.77-9.75,0-17.68,7.93-17.68,17.68,0,8.97,6.72,16.4,15.39,17.52v5.17h-5.32c-.1,0-.17,.08-.17,.17v4.81c0,.1,.08,.17,.17,.17h5.32v5.09c0,.09,.08,.17,.17,.17h4.8c.1,0,.17-.08,.17-.17v-5.09h5.32c.09,0,.17-.08,.17-.17v-4.81c0-.09-.08-.17-.17-.17h-5.32v-5.25c8.39-1.38,14.81-8.67,14.81-17.44,0-3.78-1.2-7.29-3.23-10.17l5.88-5.88v5.02c0,.09,.08,.17,.17,.17h4.48c.1,0,.18-.08,.18-.17v-13.5c0-.1-.08-.17-.18-.17m-24.99,37.71c-7.17,0-13.01-5.84-13.01-13.01s5.84-13.01,13.01-13.01,13.01,5.84,13.01,13.01-5.84,13.01-13.01,13.01"/><path class="cls-2" d="M81.59,71.07h-15.78c-.09,0-.17,.07-.17,.15v3.82c0,.09,.08,.16,.17,.16h15.78c.1,0,.17-.07,.17-.16v-3.82c0-.08-.08-.15-.17-.15"/><path class="cls-2" d="M81.59,77.89h-15.78c-.09,0-.17,.07-.17,.16v3.82c0,.09,.08,.15,.17,.15h15.78c.1,0,.17-.07,.17-.15v-3.82c0-.09-.08-.16-.17-.16"/></g><g><path class="cls-2" d="M36.79,26.65c-1.45,0-2.52,.52-3.1,1.52h-.03v-5.46h6.33v-3h-9.69v12.34h3.36v-.49c0-1.29,.58-2,1.61-2,1.13,0,1.58,.78,1.58,1.97v5.3c0,1.16-.42,1.97-1.55,1.97-1.26,0-1.71-.84-1.71-2.13v-2.75h-3.36v2.49c0,3.33,1.32,5.46,5.07,5.46s5.23-1.97,5.23-5.01v-5.36c0-3.46-1.78-4.84-3.75-4.84"/><text class="cls-1" transform="translate(46.07 40.56)"><tspan x="0" y="0">性別平等</tspan></text></g></g></svg>