<?xml version="1.0" encoding="UTF-8"?><svg id="_設計" xmlns="http://www.w3.org/2000/svg" viewBox="0 0 129.11 129.11"><defs><style>.cls-1{font-family:GenSekiGothicTW-B, 'GenSekiGothic TW';font-size:12px;letter-spacing:.1em;}.cls-1,.cls-2{fill:#fff;}.cls-3{fill:#b1192d;}</style></defs><circle class="cls-3" cx="64.55" cy="64.55" r="64.55"/><path class="cls-2" d="M35.82,45.2h3.49v-3.55h1.49v-2.87h-1.49v-15.47h-3.62l-6.36,16.08v2.26h6.49v3.55Zm-3.26-6.42l3.29-9.01h.03v9.01h-3.33Z"/><g><polygon class="cls-2" points="63.9 72.41 44.42 61.16 44.42 97.55 63.9 103.43 63.9 72.41"/><polygon class="cls-2" points="66.04 72.49 66.04 103.45 85.65 97.55 85.65 61.16 66.04 72.49"/><path class="cls-2" d="M100.95,60.24c0-1.27-1.03-2.31-2.3-2.31s-2.31,1.03-2.31,2.31v2.48h4.61v-2.48Z"/><polygon class="cls-2" points="96.91 96.91 96.34 96.91 98.64 104.97 100.95 96.91 100.37 96.91 100.95 96.91 100.95 64.53 100.37 64.53 99.8 64.53 99.2 64.53 98.05 64.53 97.48 64.53 96.91 64.53 96.34 64.53 96.34 96.91 96.91 96.91"/><polygon class="cls-2" points="89.84 62.72 87.75 61.07 87.75 98.54 66.1 105.54 65.1 105.54 64.9 105.54 63.9 105.54 42.35 99.52 42.35 61.07 40.26 62.72 40.26 100.98 63.8 107.5 64.9 107.5 65.1 107.5 66.2 107.5 87.92 100.6 89.84 100.04 89.84 62.72"/></g><text class="cls-1" transform="translate(46.37 43.81)"><tspan x="0" y="0">優質教育</tspan></text></svg>