<?xml version="1.0" encoding="UTF-8"?><svg id="_設計" xmlns="http://www.w3.org/2000/svg" viewBox="0 0 129.11 129.11"><defs><style>.cls-1{font-family:GenSekiGothicTW-B, 'GenSekiGothic TW';font-size:12px;letter-spacing:.1em;}.cls-1,.cls-2{fill:#fff;}.cls-3{fill:#ab802e;}</style></defs><circle class="cls-3" cx="64.55" cy="64.55" r="64.55"/><g><path class="cls-2" d="M94.96,73.4c-4.43-3.5-9.74-3.87-11.82-3.87-1.1,0-2.11,.1-2.85,.27l-.29,.07c-2.8,.66-7.5,1.77-12.96,8.55l-.16,.2c-.09,.13-.14,.27-.14,.41,0,.12,.03,.24,.1,.36l.12,.2c.9,1.51,1.65,2.82,2.25,3.93,.21,.41,.78,.55,1.17,.16,.04-.05,.08-.1,.1-.14,4.72-6.53,8.42-7.4,10.87-7.97l.3-.07c.34-.08,.88-.13,1.5-.13,1.14,0,5.09,.19,8.18,2.63,2.75,2.17,4.14,5.63,4.14,10.29,0,7.81-3.78,10.85-6.95,12.03-1.21,.45-2.51,.68-3.87,.68-3.26,0-5.78-1.31-5.81-1.32l-.23-.11c-2.73-1.18-6.8-3.65-10.65-11.38-7.89-15.85-14.52-17.35-18.91-18.34l-.23-.05c-.34-.08-1.28-.25-2.83-.25-2.54,0-7.43,.5-11.62,3.84-2.86,2.28-6.27,6.71-6.27,14.87,0,4.97,1.02,8.25,3.65,11.7,.49,.67,5.07,6.58,13.84,6.58,1.3,0,2.65-.13,4.01-.39,1.6-.31,4.08-1.1,6.84-3.13l2.31,2.08c.26,.24,.7,.21,.94-.04,.11-.12,.17-.28,.17-.44l1.79-11v-.13c0-.19-.08-.37-.21-.48-.12-.11-.27-.17-.46-.17h0l-10.71,2.96-.2,.03c-.14,.03-.25,.1-.34,.2-.12,.13-.18,.31-.17,.48,0,.18,.09,.34,.22,.46l2.22,2.01c-1.17,.72-2.33,1.19-3.47,1.41-.97,.18-1.92,.28-2.84,.28-6.07,0-9.05-3.98-9.17-4.15l-.06-.08c-1.85-2.42-2.47-4.49-2.47-8.18,0-4.67,1.37-8.14,4.07-10.29,3-2.4,6.87-2.58,7.98-2.58,.61,0,1.16,.05,1.52,.13l.24,.05c3.5,.79,8.3,1.88,14.95,15.24,3.51,7.05,7.92,11.67,13.45,14.1,.64,.33,4.08,1.97,8.48,1.97,2.06,0,4.05-.35,5.92-1.05,3.23-1.21,10.76-5.33,10.76-17.53,0-8.15-3.46-12.59-6.36-14.89Z"/><g><polygon class="cls-2" points="24.39 31.68 24.43 31.68 24.43 48.44 28.11 48.44 28.11 26.54 25.17 26.54 21.78 30.52 21.78 34.36 21.81 34.36 24.39 31.68"/><path class="cls-2" d="M30.3,31.07v2.65h3.36v-2.75c0-1.32,.65-1.71,1.42-1.71,.71,0,1.32,.29,1.32,1.65v1.81c0,1.81-.16,2.52-1.36,3.78l-2.07,2.2c-2,2.13-2.75,3.55-2.75,5.72v4.04h9.56v-3h-6.04v-1.03c0-1.71,.61-2.36,1.55-3.36l2.36-2.49c1.91-2.03,2.33-3.33,2.33-5.52v-2.13c0-3.13-1.52-4.62-4.81-4.62s-4.88,1.71-4.88,4.78"/></g><text class="cls-1" transform="translate(45.41 32.85)"><tspan x="0" y="0">永續消費</tspan><tspan x="0" y="14.4">與生產模式</tspan></text></g></svg>