<?xml version="1.0" encoding="UTF-8"?><svg id="_圖層_2" xmlns="http://www.w3.org/2000/svg" viewBox="0 0 129.1 129.1"><defs><style>.cls-1{fill:#fff;}.cls-2{fill:#8e1942;}</style></defs><g id="_說明"><g><circle class="cls-2" cx="64.55" cy="64.55" r="64.55"/><g><path class="cls-1" d="M29.96,41.35v-2.39c0-2.1-.74-3.62-2.45-4.39,1.45-.71,2.13-2,2.13-3.81v-.91c0-3.42-1.78-5.26-5.17-5.26s-5.1,1.84-5.1,5.26v.91c0,1.78,.65,3.1,2.07,3.81-1.71,.78-2.42,2.29-2.42,4.39v2.39c0,3.33,1.58,5.65,5.46,5.65s5.49-2.33,5.49-5.65m-7.14-11.72c0-1.33,.45-2.1,1.65-2.1s1.68,.77,1.68,2.1v1.48c0,1.32-.45,2.1-1.68,2.1s-1.65-.78-1.65-2.1v-1.48Zm3.46,12.11c0,1.32-.48,2.26-1.81,2.26s-1.78-.94-1.78-2.26v-3.55c0-1.32,.48-2.26,1.78-2.26s1.81,.94,1.81,2.26v3.55Z"/><path class="cls-1" d="M83.76,69.13l-11.04,10.5c-.42,.41-.63,.72-.63,1.58v29.42c0,.35,.28,.63,.63,.63h11.4c.35,0,.63-.28,.63-.63v-41.24c0-.35-.27-.98-.99-.26"/><path class="cls-1" d="M51.97,82.81l-11.04,10.5c-.42,.42-.63,.72-.63,1.58v15.75c0,.34,.28,.63,.63,.63h11.4c.35,0,.63-.28,.63-.63v-27.56c0-.35-.27-.98-.99-.26"/><path class="cls-1" d="M88.78,56.4c0-.08-.03-.17-.09-.24-.06-.06-.13-.08-.2-.09h-.06s-.09,0-.09,0l-8.45,1.91-.15,.02c-.06,.01-.12,.04-.16,.09-.12,.13-.12,.33,0,.45l.1,.1,1.93,1.93-19.15,19.15-8.84-8.84c-.1-.1-.26-.1-.36,0l-2.4,2.4s0,0,0,0l-14.18,14.18c-.1,.1-.1,.26,0,.36l2.4,2.4c.1,.1,.26,.1,.36,0l14-14,6.42,6.42s0,.02,.02,.03l2.4,2.4c.1,.1,.26,.1,.36,0l21.73-21.73,2.03,2.03c.12,.13,.33,.13,.45,0,.06-.06,.09-.13,.09-.21v-.03s1.86-8.63,1.86-8.63v-.09Z"/><path class="cls-1" d="M67.93,84.65l-5.34,5.38c-.1,.08-.25,.08-.34-.01l-4.84-4.93c-.89-.88-1.08-.17-1.08,.18v25.36c0,.35,.28,.63,.62,.63h11.4c.35,0,.63-.28,.63-.63v-25.78c0-.35-.27-.98-1.06-.2"/><g><path class="cls-1" d="M39.25,33.78c-.23-.23-.53-.46-.9-.69,.37-.54,.64-1.28,.82-2.22,.3,.07,.57,.16,.82,.26,.26,.11,.39,.2,.38,.27-.01,.05-.05,.09-.1,.14-.08,.07-.14,.17-.18,.31-.09,.31-.17,.55-.24,.72-.2,.5-.4,.9-.61,1.21Zm-.63-6.76s-.03-.23-.03-.62,.01-.58,.03-.6c.31,.03,.62,.04,.93,.04h.94v-.59c0-.23,0-.44-.03-.63,.29-.01,.59-.01,.91,.01,.38,.03,.57,.07,.57,.14-.14,.17-.21,.34-.21,.53v.54h.93c.21,0,.52-.01,.93-.04,.02,.02,.03,.22,.03,.6s0,.59-.03,.62c-.33-.03-.75-.05-1.24-.05h-2.48c-.38,0-.79,.02-1.24,.05Zm1.33,7.35c-.03-.3-.15-.67-.35-1.12,.23,0,.51,.01,.83,.01,.1,0,.16-.05,.16-.15v-2.64h-1.49v-1.47c0-.61-.02-1.1-.06-1.46,0-.03,.02-.04,.06-.04,.33,.03,.67,.04,1.01,.04h2.04c.34,0,.68-.01,1.01-.04,.04,0,.06,.01,.06,.04-.04,.36-.06,.85-.06,1.46v1.47h-1.41v2.67c0,.27-.03,.48-.09,.64-.06,.17-.18,.3-.34,.39-.16,.08-.35,.14-.58,.17-.17,.02-.43,.03-.78,.03Zm.25-4.91h1.79v-.9h-1.79v.9Zm3.41,4.96c-.11-.11-.27-.24-.48-.39-.21-.15-.39-.26-.55-.34,.36-.33,.67-.7,.93-1.13l-.96,.37c-.08-.48-.28-1.09-.59-1.83l.95-.33c.29,.6,.5,1.18,.64,1.73,.63-1.04,1-2.41,1.09-4.09h-.56c-.19,0-.37,.01-.55,.03-.02-.01-.03-.22-.03-.62s.01-.61,.03-.62c.14,.02,.33,.03,.57,.03h.57v-1.29c0-.49-.02-.93-.05-1.32,.29-.01,.59-.01,.9,.01,.38,.03,.57,.07,.57,.14-.17,.33-.25,.67-.25,1v1.47h1.08c.33,0,.69-.02,1.08-.05,.02,.03,.03,.24,.03,.64s-.01,.61-.03,.64c-.3-.03-.66-.05-1.09-.05h-1.1c0,.15-.02,.29-.03,.44h.8v4.04c0,.07,0,.12,.03,.16,.04,.05,.1,.07,.17,.07h.2c.08,0,.14-.02,.17-.06,.05-.05,.08-.13,.09-.24,.03-.29,.04-.69,.03-1.18,.22,.21,.5,.37,.87,.49-.01,.71-.06,1.19-.12,1.43-.06,.24-.17,.42-.35,.56-.15,.12-.36,.18-.62,.18h-.59c-.32,0-.57-.09-.74-.27-.09-.1-.15-.21-.18-.34-.04-.15-.05-.38-.05-.71v-2.06c-.36,1.47-.98,2.65-1.87,3.51Zm3.38-7.38c-.06-.22-.19-.5-.39-.85-.21-.38-.41-.67-.59-.88l.94-.44c.22,.24,.43,.52,.64,.82,.19,.31,.33,.58,.42,.83l-1.01,.5Z"/><path class="cls-1" d="M54.73,34.46c-.41,0-.63-.02-.65-.05,.03-.29,.04-.59,.04-.91v-.91c-.97,.78-2.11,1.34-3.42,1.69-.25-.43-.51-.78-.78-1.03,1.27-.26,2.35-.67,3.23-1.22h-1.47c-.49,0-.98,.02-1.46,.06-.02-.03-.03-.23-.03-.58s0-.55,.03-.59c.51,.06,1.16,.08,1.95,.08h1.95v-.46h-1.47c-.49,0-.98,.02-1.47,.06-.02-.03-.03-.21-.03-.52s.01-.48,.03-.51c.37,.04,.86,.06,1.47,.06h1.47v-.47h-1.73c-.48,0-1.05,.02-1.72,.07-.02-.03-.03-.22-.03-.55s0-.51,.03-.53c.32,.03,.64,.04,.97,.04h.97c-.1-.31-.21-.58-.34-.81l.12-.02h-1.07c-.31,0-.67,.02-1.06,.05-.02-.03-.03-.21-.03-.56s0-.52,.03-.54c.17,.02,.39,.03,.68,.03h.69c-.13-.35-.34-.79-.64-1.29l1.04-.37c.36,.54,.62,1.03,.78,1.47l-.5,.19h.93v-.85c0-.26-.01-.55-.04-.89,.28-.01,.57-.01,.88,.01,.37,.03,.55,.07,.55,.14-.17,.26-.25,.53-.25,.79v.8h.75v-.85c0-.26-.01-.55-.04-.89,.28-.01,.57-.01,.88,.01,.38,.03,.56,.07,.56,.14-.17,.26-.25,.53-.25,.79v.8h.91l-.36-.11c.26-.45,.47-.96,.65-1.51,.33,.08,.63,.18,.91,.32s.4,.24,.35,.31c-.03,.05-.07,.09-.14,.11-.1,.04-.19,.13-.27,.26-.06,.1-.14,.23-.25,.41-.06,.1-.1,.17-.12,.21h.67c.22,0,.44-.01,.66-.03,.02,.01,.03,.19,.03,.54s-.01,.53-.03,.55c-.32-.03-.64-.04-.96-.04h-.96c-.21,.38-.37,.66-.48,.83h1c.22,0,.56-.01,1-.04,.02,.02,.03,.2,.03,.53s-.01,.52-.03,.55c-.51-.05-1.1-.07-1.77-.07h-1.77v.47h1.53c.51,0,1.03-.02,1.53-.06,.02,.03,.03,.2,.03,.51s0,.48-.03,.52c-.38-.04-.89-.06-1.53-.06h-1.53v.46h2.98c.23,0,.56-.01,.99-.04,.02,.02,.03,.21,.03,.55s-.01,.54-.03,.57c-.36-.04-.86-.06-1.48-.06h-1.48c.89,.56,1.97,.94,3.24,1.14-.28,.26-.55,.64-.82,1.13-1.33-.34-2.47-.93-3.43-1.76v.94c0,.32,.01,.63,.04,.94-.02,.03-.23,.05-.64,.05Zm-1-6.25h1.91c.09-.18,.21-.46,.37-.83h-2.45c.16,.3,.28,.57,.35,.8l-.18,.03Z"/><path class="cls-1" d="M69.71,34.42c-.91-.62-1.85-1.16-2.81-1.64l.74-.68h-3.07l.9,.67c-.39,.28-.87,.57-1.44,.89-.54,.29-1.04,.54-1.52,.75-.22-.25-.54-.54-.94-.85,.45-.17,.92-.39,1.42-.67,.5-.27,.92-.53,1.26-.78h-1.37c-.45,0-.9,.02-1.36,.06-.02-.03-.03-.25-.03-.64s0-.59,.03-.6c.15,.01,.31,.02,.47,.02h.48l-.08-2.8-.07-2.8,.68,.19c.5-.28,.9-.54,1.21-.78l.77,.76v-.37c0-.1,0-.24-.02-.41,.24-.01,.49-.01,.75,.01,.31,.03,.47,.07,.47,.14-.11,.13-.17,.26-.17,.41v.41h.78c.26,0,.53-.01,.78-.03,.02,.01,.03,.2,.03,.55s0,.53-.03,.55c-.19-.02-.45-.03-.78-.03h-.78v.7h1.52v3.5h1.27c0-.17,.02-.46,.05-.85h-.49c-.11,0-.27,0-.48,.02-.02-.01-.03-.19-.03-.54s0-.52,.03-.53c.17,.01,.33,.02,.5,.02h.51c.01-.39,.02-.68,.03-.89h-.52c-.12,0-.29,0-.51,.02-.02-.01-.03-.19-.03-.54s.01-.52,.03-.53c.17,.01,.34,.02,.52,.02h.53c0-.19,.01-.46,.01-.82h-.59c-.19,0-.39,.01-.59,.03-.02-.01-.03-.2-.03-.57s.01-.56,.03-.59c.31,.03,.7,.05,1.15,.05h1.16c-.01,2.52-.06,4.41-.14,5.67h.49c.12,0,.28,0,.49-.02,.02,0,.03,.21,.03,.6s-.01,.61-.03,.64c-.34-.04-.8-.06-1.39-.06h-1.4c1.24,.6,2.16,1.1,2.76,1.47l-1.2,.84Zm-6.13-3.47h1.39v-1.1c0-.4-.02-.78-.05-1.13,.25-.01,.51-.01,.78,.01,.33,.03,.49,.07,.49,.14-.17,.33-.25,.67-.25,1v1.07h.57v-2.53h-1.52v-2.68c-.55,.27-1.06,.5-1.54,.69l.02,.75h.58c.19,0,.39-.01,.57-.03,.02,.01,.03,.19,.03,.54s-.01,.53-.03,.54c-.13-.02-.32-.03-.56-.03h-.56l.02,.88h.55c.19,0,.38-.01,.55-.03,.02,.01,.03,.19,.03,.54s-.01,.53-.03,.54c-.12-.02-.3-.03-.53-.03h-.54l.03,.86Z"/><path class="cls-1" d="M39.21,46.14c-.2-.14-.49-.28-.89-.44,.24-.51,.42-1.32,.52-2.42,.26,.05,.51,.11,.74,.2,.24,.09,.36,.17,.35,.24,0,.06-.03,.1-.07,.15-.08,.07-.12,.18-.15,.32-.02,.17-.07,.41-.14,.73-.11,.5-.24,.91-.38,1.22Zm1.26,.83c-.36,0-.57-.02-.62-.05,.06-.52,.09-1.23,.09-2.12v-2.12l-1.42,.11-.11-1.07,.73-.04c.09-.11,.23-.29,.41-.54,.02-.04,.04-.06,.05-.07-.27-.45-.66-.94-1.17-1.46l.59-.83s.13,.12,.24,.22c.33-.67,.58-1.28,.73-1.8,.28,.1,.53,.23,.76,.39,.24,.17,.34,.3,.3,.39-.04,.06-.09,.11-.16,.16-.12,.06-.23,.18-.32,.37-.22,.45-.45,.85-.68,1.21,.1,.13,.21,.26,.32,.41,.41-.67,.72-1.24,.92-1.69,.26,.12,.5,.28,.71,.46,.22,.19,.31,.32,.26,.4-.03,.06-.09,.1-.17,.12-.12,.05-.24,.15-.34,.31-.47,.71-.93,1.35-1.37,1.92l.89-.05c-.14-.31-.25-.53-.32-.67l.85-.36c.49,.87,.79,1.61,.91,2.21l-.91,.43c-.01-.1-.05-.26-.11-.48-.02-.06-.04-.11-.04-.14l-.51,.04v3.24c0,.42,.02,.78,.05,1.07-.03,.03-.22,.05-.57,.05Zm1.08-1.6c-.02-.24-.08-.54-.17-.91-.09-.37-.19-.69-.3-.97l.86-.26c.28,.67,.45,1.28,.52,1.84l-.91,.3Zm.5,1.32s-.03-.23-.03-.6,.01-.58,.03-.6c.33,.03,.73,.05,1.2,.05h1.21v-1.43h-.9c-.21,0-.51,.01-.9,.04-.02-.02-.03-.22-.03-.6s.01-.59,.03-.64c.68,.07,1.51,.1,2.47,.1h1.24c.37,0,.78-.02,1.23-.05,.02,.03,.03,.23,.03,.6s-.01,.57-.03,.59c-.32-.03-.64-.04-.96-.04h-.97v1.43h1.19c.35,0,.75-.02,1.18-.05,.02,.03,.03,.23,.03,.6s-.01,.58-.03,.6c-.38-.04-.88-.06-1.5-.06h-3c-.5,0-1,.02-1.49,.06Zm1.23-3.82c-.11-.3-.26-.62-.46-.96-.23-.41-.46-.77-.69-1.08,.45-.69,.81-1.32,1.06-1.89,.26,.06,.51,.16,.73,.29,.24,.14,.33,.25,.29,.33-.04,.06-.09,.1-.16,.14-.13,.05-.23,.15-.32,.31-.19,.31-.35,.58-.5,.8,.4,.54,.73,1.09,1.01,1.66l-.97,.4Zm-.98-3.98c-.02-.06-.03-.27-.03-.65s0-.58,.03-.61c.35,.04,.81,.06,1.39,.06h2.79c.47,0,.93-.02,1.39-.06,.02,.03,.03,.23,.03,.6s-.01,.58-.03,.61c-.34-.04-.8-.06-1.39-.06h-1.4c-.88,0-1.81,.04-2.78,.11Zm2.79,3.98c-.12-.28-.29-.6-.51-.96-.24-.38-.49-.74-.76-1.08,.49-.71,.87-1.34,1.12-1.89,.26,.06,.5,.16,.73,.3,.23,.14,.32,.25,.27,.32-.04,.06-.09,.1-.16,.13-.12,.06-.23,.16-.32,.32-.16,.25-.33,.52-.52,.8,.44,.55,.81,1.1,1.11,1.64l-.95,.42Zm1.83,0c-.11-.24-.3-.56-.55-.96-.28-.41-.55-.77-.8-1.08,.5-.72,.88-1.35,1.14-1.89,.26,.07,.5,.17,.72,.31,.23,.14,.32,.25,.27,.32-.03,.06-.09,.1-.17,.14-.12,.05-.23,.15-.32,.31-.24,.36-.41,.63-.52,.79,.51,.6,.91,1.14,1.18,1.62l-.94,.44Z"/><path class="cls-1" d="M51.54,41.95c-.13-.13-.37-.31-.71-.52-.35-.22-.65-.38-.89-.48l.67-.91c.76,.3,1.31,.6,1.64,.91l-.71,1Zm-.32,4.86l-1.09-.64c.21-.47,.43-.98,.65-1.52,.23-.56,.45-1.16,.67-1.83,.28,.19,.53,.38,.74,.56,.24,.23,.35,.39,.32,.47-.02,.07-.07,.13-.14,.18-.1,.08-.19,.21-.25,.4-.28,.81-.58,1.61-.9,2.38Zm.71-7.57c-.18-.18-.42-.37-.71-.55-.33-.22-.63-.39-.88-.5l.68-.92c.29,.13,.58,.28,.89,.46,.32,.19,.56,.36,.73,.51l-.71,1Zm.91,3.15c-.14-.21-.33-.41-.56-.6,.46-.31,.75-.8,.89-1.49h-.21s-.06,0-.1,0c-.04,0-.07,0-.09,0-.02,0-.03-.14-.03-.4s.01-.4,.03-.42c.35,.03,.7,.04,1.04,.04h1.05c-.08-.15-.15-.26-.19-.33l.43-.2h-1.23c-.36,0-.77,.02-1.22,.05-.02-.03-.03-.21-.03-.55s0-.53,.03-.55c.33,.04,.78,.06,1.35,.06h1.36v-.41c0-.12,0-.27-.02-.45,.28-.01,.58-.01,.88,.01,.37,.03,.55,.07,.55,.14-.11,.11-.17,.23-.17,.35v.35h2.13c.24,0,.48-.01,.71-.03,.02,.01,.03,.19,.03,.53s-.01,.52-.03,.55c-.33-.03-.72-.05-1.19-.05h-1.2l.43,.14-.28,.48,.41,.11c.42-.17,.75-.35,.99-.53,.16,.14,.31,.29,.46,.46,.14,.15,.2,.23,.19,.25-.01,.01-.04,0-.06,0-.04-.02-.08-.02-.12,.01-.03,.01-.07,.04-.14,.06-.05,.02-.08,.04-.1,.05,.19,.79,.46,1.32,.8,1.58-.24,.19-.44,.42-.59,.69-.41-.38-.7-1.04-.88-1.99-.04,.01-.09,.03-.17,.06-.08,.02-.14,.04-.18,.06v.88c.11-.01,.27-.04,.49-.07,.04,0,.06-.01,.08-.01l.04,.68c-.19,.04-.49,.09-.88,.16-.31,.06-.55,.1-.7,.12l-.19-.73,.38-.04v-1.49c-.1,.17-.2,.31-.27,.42l-.29-.1v1.05c0,.41,.02,.76,.05,1.05-.03,.03-.2,.04-.52,.04s-.5-.01-.53-.04c.03-.29,.05-.65,.05-1.06v-1.06l-.32,.15s0-.03-.01-.05c-.03-.08-.05-.15-.06-.19-.03,1.02-.09,1.6-.2,1.76-.12,.15-.27,.23-.46,.25-.19,.03-.39,.04-.58,.03-.01-.28-.07-.54-.18-.76,.12,.01,.24,.02,.37,.02,.08,.01,.14-.01,.19-.07,.03-.08,.05-.42,.07-1.02h-.33c-.16,.96-.54,1.66-1.14,2.1Zm.51,4.62c-.29-.27-.59-.49-.91-.65,.69-.55,1.03-1.43,1.03-2.65v-.71c0-.29,0-.53-.03-.74,.26-.01,.53-.01,.8,.01,.33,.03,.49,.07,.49,.14-.08,.07-.13,.14-.13,.22v.22h2.81v-.27c0-.07,0-.17-.02-.31,.27-.01,.56-.01,.87,.01,.38,.03,.56,.07,.56,.14-.17,.33-.25,.67-.25,1v2.36c0,.45,.02,.83,.05,1.15-.03,.03-.24,.05-.63,.05s-.6-.02-.62-.05c.02-.19,.03-.45,.03-.78v-.79h-3c-.21,.73-.56,1.29-1.06,1.67Zm1.23-2.63h2.84v-.57h-2.81c0,.18,0,.37-.03,.57Zm.99-4.24h.7l-.21-.07c.09-.17,.17-.35,.24-.52,.08-.18,.15-.37,.21-.55h-1.08c.23,.35,.39,.69,.48,.99l-.33,.16Z"/><path class="cls-1" d="M62.42,47.05c-.11-.13-.28-.28-.49-.46-.23-.19-.41-.32-.54-.39,.35-.56,.59-1.28,.72-2.17,.09-.6,.14-1.36,.14-2.25v-1.52c0-.64-.02-1.15-.06-1.52,0-.03,.02-.04,.06-.04,.35,.03,.7,.04,1.04,.04h3.13c-.03-.68-.04-1.2-.04-1.54h1.27c0,.46,0,.97,.02,1.54h1.56c-.3-.25-.73-.55-1.3-.91l.73-.74c.74,.38,1.3,.75,1.67,1.12l-.49,.53h.53c.18,0,.36-.01,.53-.03,.02,.01,.03,.23,.03,.65s-.01,.65-.03,.68c-.45-.05-.98-.07-1.58-.07h-1.58c.09,1,.23,1.95,.41,2.86,.43-.76,.76-1.53,.98-2.32,.33,.08,.63,.19,.9,.33,.29,.15,.42,.27,.39,.37-.03,.07-.08,.13-.15,.19-.11,.08-.2,.22-.26,.41-.38,.95-.86,1.81-1.42,2.59,.32,.79,.64,1.19,.96,1.19,.12,0,.21-.14,.28-.43,.07-.29,.11-.75,.14-1.4,.28,.3,.62,.53,1.03,.7-.1,.94-.26,1.58-.49,1.92-.22,.31-.58,.47-1.06,.47-.67,0-1.25-.46-1.73-1.38-.52,.55-1.1,1.02-1.73,1.42-.09-.13-.23-.31-.41-.52-.18-.22-.34-.38-.47-.5,.78-.43,1.47-.99,2.09-1.69-.33-1.12-.56-2.52-.71-4.2h-2.96v1.12h2.52c0,.15,0,.31-.01,.47-.01,1.16-.04,1.97-.08,2.42-.05,.52-.13,.86-.24,1-.17,.23-.4,.37-.71,.42-.21,.04-.6,.05-1.17,.03-.03-.43-.14-.82-.34-1.16,.33,.03,.63,.04,.89,.04,.13,0,.23-.04,.3-.12,.09-.13,.15-.78,.18-1.96h-1.33c-.06,2.21-.43,3.82-1.09,4.83Z"/><path class="cls-1" d="M81.72,46.94c-1.13-.26-2.07-.71-2.81-1.35-.71-.6-1.28-1.4-1.71-2.41h-1.18v2.21c.58-.08,1.32-.19,2.21-.33l.05,1.1c-1.18,.19-2.68,.43-4.49,.71l-.28-1.14c.11-.01,.29-.04,.55-.07,.31-.03,.54-.06,.7-.08v-2.39h-.84c-.19,0-.47,.01-.84,.04-.02-.02-.03-.22-.03-.59s.01-.57,.03-.59c.28,.03,.56,.04,.84,.04h.86v-2.27c0-.95-.03-1.71-.09-2.27,0-.05,.03-.07,.09-.07,.47,.05,1,.07,1.61,.07h3.23c.45,0,.99-.02,1.61-.07,.02,.04,.03,.23,.03,.58s-.01,.55-.03,.61c-.72-.07-1.58-.1-2.6-.1h-2.61v.55h2.46c.74,0,1.56-.03,2.46-.1,.02,.05,.03,.24,.03,.58s0,.53-.03,.59c-.68-.07-1.5-.1-2.46-.1h-2.46v.52h2.46c.74,0,1.56-.03,2.46-.1,.02,.05,.03,.24,.03,.58s0,.53-.03,.59c-.68-.07-1.5-.1-2.46-.1h-2.46v.54h3.14c1.04,0,2.09-.04,3.13-.12,.02,.06,.03,.28,.03,.66s-.01,.58-.03,.59c-.13-.02-.31-.03-.54-.03h-.55l.79,.56c-.54,.4-1.17,.79-1.89,1.18,.67,.42,1.46,.72,2.39,.9-.3,.31-.56,.68-.77,1.12Zm-2.44-2.67c.57-.34,1.09-.7,1.56-1.08h-2.38c.22,.39,.49,.75,.81,1.08Z"/></g></g></g></g></svg>