<?xml version="1.0" encoding="UTF-8"?><svg id="_圖層_2" xmlns="http://www.w3.org/2000/svg" viewBox="0 0 129.1 129.1"><defs><style>.cls-1{fill:#e8af0b;}.cls-2{fill:#fff;}</style></defs><g id="_說明"><g><g><circle class="cls-1" cx="64.55" cy="64.55" r="64.55"/><g><polygon class="cls-2" points="22.8 31.51 28.48 31.51 23.57 50.4 27.22 50.4 32.03 31.9 32.03 28.51 22.8 28.51 22.8 31.51"/><path class="cls-2" d="M65.99,72.02c-8.79,0-15.91,7.13-15.91,15.91s7.12,15.92,15.91,15.92,15.91-7.12,15.91-15.92-7.12-15.91-15.91-15.91m-1.18,6.29c0-.53,.53-1.11,1.18-1.11s1.18,.58,1.18,1.11v5.46c0,.53-.53,1.1-1.18,1.1s-1.18-.58-1.18-1.1v-5.46Zm1.18,17.78c-4.57,0-8.28-3.71-8.28-8.28,0-3.72,2.45-6.86,5.82-7.91v3.08c-1.75,.9-2.96,2.72-2.96,4.82,0,2.99,2.42,5.42,5.42,5.42s5.42-2.43,5.42-5.42c0-2.11-1.21-3.94-2.97-4.83v-3.08c3.38,1.04,5.83,4.19,5.83,7.91,0,4.57-3.71,8.28-8.28,8.28"/><path class="cls-2" d="M47.72,87.79c0-.72-.64-1.31-1.22-1.31h-6.97c-.59,0-1.23,.58-1.23,1.31s.65,1.31,1.23,1.31h6.97c.58,0,1.22-.59,1.22-1.31"/><path class="cls-2" d="M93.69,87.79c0-.72-.64-1.31-1.22-1.31h-6.97c-.59,0-1.23,.58-1.23,1.31s.65,1.31,1.23,1.31h6.97c.58,0,1.22-.59,1.22-1.31"/><path class="cls-2" d="M66,69.52c.72,0,1.31-.64,1.31-1.22v-6.97c0-.59-.59-1.23-1.31-1.23s-1.31,.64-1.31,1.23v6.97c0,.58,.59,1.22,1.31,1.22"/><path class="cls-2" d="M66,115.49c.72,0,1.31-.64,1.31-1.22v-6.97c0-.59-.59-1.23-1.31-1.23s-1.31,.65-1.31,1.23v6.97c0,.58,.59,1.22,1.31,1.22"/><path class="cls-2" d="M50.14,78.71c.36-.63,.09-1.45-.41-1.74l-6.05-3.46c-.51-.29-1.36-.11-1.72,.52-.36,.63-.09,1.46,.42,1.75l6.05,3.46c.51,.29,1.35,.1,1.71-.53"/><path class="cls-2" d="M90.03,101.55c.36-.63,.09-1.45-.41-1.74l-6.05-3.46c-.51-.29-1.36-.1-1.72,.52-.36,.63-.09,1.46,.42,1.75l6.05,3.46c.51,.29,1.35,.1,1.71-.53"/><path class="cls-2" d="M75.07,71.94c.63,.36,1.45,.09,1.74-.41l3.46-6.05c.29-.51,.11-1.36-.52-1.72-.63-.36-1.46-.09-1.75,.42l-3.46,6.05c-.29,.51-.1,1.35,.53,1.71"/><path class="cls-2" d="M52.24,111.83c.63,.36,1.45,.09,1.74-.41l3.46-6.05c.29-.51,.1-1.36-.52-1.72-.63-.36-1.46-.09-1.75,.42l-3.46,6.05c-.29,.51-.1,1.35,.53,1.71"/><path class="cls-2" d="M56.89,71.95c.63-.36,.81-1.21,.52-1.71l-3.47-6.04c-.29-.51-1.12-.78-1.75-.42-.63,.36-.82,1.21-.52,1.72l3.47,6.04c.29,.51,1.12,.77,1.75,.41"/><path class="cls-2" d="M79.8,111.8c.63-.36,.81-1.21,.52-1.71l-3.47-6.04c-.29-.51-1.12-.78-1.75-.42-.63,.36-.82,1.21-.52,1.72l3.47,6.04c.29,.51,1.12,.77,1.75,.41"/><path class="cls-2" d="M81.84,78.69c.36,.62,1.2,.81,1.71,.52l6.04-3.47c.51-.29,.78-1.12,.42-1.75-.36-.63-1.21-.82-1.72-.52l-6.04,3.47c-.51,.29-.77,1.12-.41,1.75"/><path class="cls-2" d="M41.99,101.6c.36,.62,1.2,.81,1.71,.52l6.04-3.47c.51-.29,.78-1.12,.42-1.75-.36-.63-1.21-.82-1.72-.52l-6.04,3.47c-.51,.29-.77,1.12-.41,1.75"/></g></g><g><path class="cls-2" d="M47.62,37.91c-.03-.18-.1-.4-.2-.67s-.2-.48-.3-.65c.42,.02,1,.03,1.73,.03h.12c.12,0,.2-.02,.26-.06,.05-.04,.08-.12,.08-.23v-6.2h-3.63c-1.04,0-2.09,.04-3.13,.12-.02-.06-.03-.31-.03-.75s0-.68,.03-.73c.58,.06,1.34,.09,2.29,.09h4.61c.78,0,1.55-.03,2.31-.09,.02,.05,.03,.29,.03,.71s-.01,.65-.03,.66c-.15-.02-.34-.03-.58-.03h-.59v6.22c0,.38-.05,.66-.15,.87s-.26,.35-.5,.46c-.24,.1-.56,.16-.96,.2-.3,.02-.75,.03-1.36,.03Zm-3.54-1.73c-.4,0-.62-.01-.65-.04,.03-.33,.05-.73,.05-1.2v-2.42c0-.47-.02-.88-.05-1.21,0-.06,.02-.09,.05-.09,.54,.06,1.27,.09,2.17,.09h1.08c.42,0,.79-.02,1.08-.05,.03,0,.04,.02,.04,.05-.03,.33-.04,.67-.04,1.01v1.01c0,.81,.03,1.48,.08,2.01,0,.05-.03,.07-.08,.07-.45-.05-.98-.07-1.58-.07h-1.57v.4c0,.14,0,.27,.02,.4,0,.03-.21,.04-.62,.04Zm.59-2.02h1.94v-1.67h-1.94v1.67Z"/><path class="cls-2" d="M54.9,37.97c-.32-.39-.64-.71-.95-.96,1.18-.24,2.12-.55,2.83-.93h-1.53v-4.59c-.06,.05-.16,.12-.28,.21-.08,.06-.14,.1-.18,.12-.1-.15-.25-.32-.43-.5-.18-.18-.34-.31-.48-.39,.61-.36,1.17-.8,1.66-1.31,.43-.45,.78-.93,1.05-1.43,.31,.06,.62,.13,.93,.22,.3,.08,.44,.13,.43,.15-.01,.02-.03,.03-.07,.03-.05,0-.08,.03-.1,.06-.06,.1-.1,.17-.14,.22h1.9l.2-.05,.83,.55c-.19,.35-.47,.75-.82,1.2h1.21c.47,0,.88-.02,1.21-.05,.04,0,.06,.02,.06,.05-.04,.34-.06,.8-.06,1.38v4.13h-1.71c1.14,.44,2.07,.85,2.78,1.22l-1.37,.63c-.69-.42-1.54-.84-2.57-1.25l.9-.59h-3.19l1.04,.48c-.8,.54-1.85,1-3.16,1.41Zm1.38-7.4h2.02c.15-.18,.34-.43,.57-.75h-1.93c-.17,.23-.4,.48-.67,.75Zm.17,1.55h4.46v-.59h-4.46v.59Zm0,1.48h4.46v-.58h-4.46v.58Zm0,1.5h4.46v-.6h-4.46v.6Z"/><path class="cls-2" d="M65.74,37.93c-.04-.36-.14-.74-.3-1.15,.38,.02,.66,.02,.83,.01,.12,0,.18-.06,.18-.18v-2.31c-.17,.06-.42,.13-.75,.22-.1,.03-.17,.05-.22,.06l-.26-1.19c.17-.03,.45-.1,.86-.21,.17-.04,.29-.07,.38-.09v-1.8h-.54c-.17,0-.35,.01-.53,.03-.02-.01-.03-.21-.03-.6s.01-.59,.03-.6c.13,.02,.3,.03,.53,.03h.54v-.98c0-.31-.01-.65-.04-1.02,.27-.01,.56-.01,.85,.01,.36,.03,.54,.07,.54,.14-.17,.31-.25,.62-.25,.93v.93h.93v.24c.65-.65,1.13-1.39,1.45-2.22,.28,.05,.54,.1,.78,.17,.24,.06,.36,.11,.35,.14,0,.02-.02,.03-.05,.03-.04,.01-.07,.04-.09,.08-.03,.08-.07,.16-.1,.24h1.43l.16-.04,.76,.51h-.01c-.19,.38-.34,.65-.46,.83h.98c.22,0,.54-.01,.97-.04,.02,.02,.03,.18,.03,.47s0,.44-.03,.46c-.19-.02-.44-.03-.75-.03h-.75v.23c0,.1,0,.16,.03,.18s.06,.04,.13,.04h.36c.06,0,.11-.02,.13-.06,.03-.04,.05-.13,.06-.26,.14,.08,.39,.16,.76,.23-.04,.28-.11,.47-.23,.58-.12,.11-.32,.16-.59,.16h-.66c-.39,0-.65-.06-.77-.18-.12-.12-.19-.35-.19-.69v-.23h-.53c-.06,.31-.17,.57-.33,.77-.17,.22-.42,.4-.74,.54h1.62c.45,0,.99-.02,1.61-.07,.02,.04,.03,.17,.03,.4s0,.36-.03,.4c-.47-.05-1.02-.07-1.64-.07h-1.64v-.63c-.1,.05-.23,.09-.37,.14-.06-.14-.16-.3-.32-.48v1.26h2.4c.72,0,1.52-.03,2.4-.1,.02,.05,.03,.19,.03,.43s-.01,.37-.03,.4c-.33-.03-.74-.05-1.21-.05h-3.62c-.11,1.72-.5,3.02-1.17,3.91-.09-.1-.23-.21-.42-.34-.19-.13-.34-.22-.47-.27,.42-.56,.71-1.27,.88-2.13,.11-.6,.17-1.33,.17-2.19v-1.33l-.1,.08c-.08-.12-.18-.23-.29-.34h-.83v1.5l.82-.24,.16,1.12c-.37,.12-.7,.22-.98,.3v2.64c0,.29-.03,.52-.08,.69-.06,.17-.17,.3-.31,.4-.26,.17-.74,.24-1.42,.23Zm4.09-6.15c.26-.08,.46-.19,.62-.31,.14-.13,.24-.29,.29-.47h-.91v.78Zm.71,6.21c-.35,0-.53-.02-.55-.05,.03-.31,.04-.62,.04-.93v-.94h4.23v.94c0,.31,.01,.62,.04,.93-.02,.03-.21,.05-.57,.05s-.54-.02-.54-.06v-.03s.01-.04,.01-.05v-.09h-2.14v.09s0,.03,.01,.05v.04s-.18,.05-.53,.05Zm-.49-7.84h1.5c.05-.1,.12-.26,.22-.48h-1.41c-.08,.15-.19,.31-.31,.48Zm.26,4.78s-.03-.17-.03-.39,.01-.35,.03-.37c.29,.03,.59,.04,.9,.04h1.81c.2,0,.5-.01,.91-.04,.02,.02,.03,.14,.03,.36s0,.34-.03,.37c-.29-.03-.59-.04-.91-.04h-.91c-.51,0-1.11,.02-1.8,.07Zm0,.9s-.03-.14-.03-.37,.01-.36,.03-.39c.52,.05,1.12,.07,1.8,.07h.91c.2,0,.5-.01,.91-.04,.02,.02,.03,.14,.03,.37s0,.34-.03,.36c-.29-.03-.59-.04-.91-.04h-1.81c-.21,0-.51,.01-.9,.04Zm.75,1.29h2.14v-.41h-2.14v.41Z"/><path class="cls-2" d="M82.82,37.82c-.01-.17-.06-.38-.14-.61-.08-.23-.17-.43-.27-.6,.44,.04,.95,.06,1.52,.06,.19,0,.34-.06,.45-.18,.15-.17,.26-.68,.34-1.53,.08-.83,.14-2.18,.2-4.05h-2.18c-.29,.65-.59,1.2-.91,1.65-.1-.1-.33-.27-.71-.53-.03-.02-.06-.04-.07-.05v2.44c0,.95,.03,1.76,.1,2.43,0,.04-.03,.06-.1,.06-.33-.04-.79-.06-1.37-.06h-1.37v.39c0,.12,0,.25,.02,.38,0,.03-.2,.05-.58,.05s-.58-.02-.63-.05c.06-.51,.08-1.16,.08-1.93v-5.82h1.16c.16-.6,.26-1.17,.3-1.68,.34,.05,.66,.13,.97,.24,.32,.11,.47,.2,.44,.27-.02,.06-.06,.1-.11,.14-.1,.06-.18,.16-.23,.31-.02,.06-.05,.13-.08,.23-.08,.22-.15,.39-.19,.49h1.59v1.69c.59-.87,1.05-1.99,1.38-3.36,.31,.08,.59,.16,.84,.26,.28,.12,.41,.21,.4,.27-.01,.05-.04,.09-.09,.13-.08,.06-.13,.15-.17,.27-.06,.22-.14,.44-.22,.67h2.88c0,.19,0,.38-.01,.56-.07,2.46-.14,4.11-.22,4.98-.09,1-.24,1.63-.45,1.9-.13,.18-.28,.32-.44,.41-.13,.07-.31,.13-.54,.17-.3,.04-.83,.05-1.6,.02Zm-4.5-5.18h1.63v-1.69h-1.63v1.69Zm0,3.12h1.63v-2.04h-1.63v2.04Zm5.03-.56c-.15-.33-.37-.71-.64-1.16-.3-.49-.56-.9-.79-1.25l.95-.55c.74,1.05,1.24,1.82,1.5,2.32l-1.02,.65Z"/><path class="cls-2" d="M43.3,49.81c-.12-.15-.27-.31-.46-.49-.22-.2-.39-.35-.53-.44,.49-.29,.92-.68,1.31-1.17,.39-.49,.7-1.04,.93-1.66h-.99c-.23,0-.56,.01-.99,.04-.02-.02-.03-.23-.03-.63s.01-.6,.03-.62c.15,.02,.35,.03,.62,.03h1.88l.22-.05,.81,.35c-.24,1.05-.61,1.99-1.12,2.81-.48,.78-1.04,1.39-1.68,1.83Zm2.07,.62c-.04-.38-.18-.79-.41-1.24,.54,.03,.99,.04,1.33,.02,.09,0,.15-.03,.19-.06,.04-.03,.05-.09,.05-.17v-4.98h-1.28c-.38,0-.81,.02-1.27,.05-.02-.03-.03-.25-.03-.65s.01-.63,.03-.67c.5,.06,1.13,.08,1.9,.08h1.9c-.92-.42-1.92-.77-2.99-1.05l.59-1.01c.62,.14,1.29,.33,2,.56,.76,.25,1.35,.49,1.76,.71l-.66,1.16c-.13-.08-.34-.19-.64-.33v.87c.17,.62,.41,1.23,.72,1.84,.81-.65,1.46-1.29,1.95-1.92,.29,.22,.54,.46,.75,.71,.22,.27,.3,.44,.23,.5-.06,.05-.12,.08-.2,.08-.13,.02-.28,.1-.43,.23-.63,.54-1.2,.99-1.72,1.35,.75,1.04,1.7,1.79,2.85,2.25-.31,.25-.59,.61-.86,1.08-1.39-.64-2.49-1.71-3.3-3.22v2.39c0,.35-.04,.61-.12,.78-.08,.19-.23,.33-.45,.44-.19,.09-.45,.15-.78,.18-.24,.02-.61,.03-1.13,.03Z"/><path class="cls-2" d="M54.53,49.64c-.29-.17-.58-.31-.87-.42,.24-.49,.41-1.3,.51-2.42,.26,.05,.5,.11,.72,.19,.24,.09,.36,.17,.35,.24,0,.06-.03,.1-.07,.15-.08,.07-.12,.18-.15,.32-.05,.31-.09,.55-.14,.72-.12,.54-.24,.94-.37,1.22Zm1.22,.85c-.35,0-.56-.02-.61-.05,.06-.52,.09-1.22,.09-2.1v-2.1c-.21,.02-.51,.05-.92,.07-.19,.01-.32,.02-.41,.03l-.11-1.04,.69-.03c.12-.15,.27-.38,.46-.69-.23-.39-.62-.88-1.16-1.46l.59-.82,.2,.19c.32-.65,.56-1.24,.72-1.78,.28,.1,.53,.22,.76,.36,.24,.17,.33,.29,.29,.38-.03,.06-.09,.11-.16,.16-.12,.06-.23,.18-.32,.36-.2,.4-.42,.79-.66,1.19,.15,.19,.26,.34,.32,.43,.38-.69,.65-1.24,.82-1.66,.26,.12,.49,.26,.71,.43,.22,.17,.31,.3,.27,.38-.04,.06-.09,.11-.17,.15-.12,.06-.23,.16-.32,.32-.22,.35-.46,.72-.7,1.1l.71-.26c.18,.36,.34,.75,.49,1.17,.15,.42,.24,.77,.28,1.06l-.86,.34s0-.04-.01-.07c-.03-.17-.05-.31-.07-.4l-.44,.03v3.2c0,.42,.02,.77,.05,1.06-.03,.03-.22,.05-.56,.05Zm-.23-5.27l.89-.04c-.1-.29-.2-.56-.31-.8-.03,.05-.07,.12-.14,.22-.07,.1-.12,.17-.15,.22-.09,.13-.18,.27-.28,.41Zm1.21,3.47c-.02-.15-.07-.4-.16-.76,0-.03-.01-.06-.02-.07,0-.02-.02-.06-.03-.1-.1-.36-.17-.62-.23-.78l.8-.23c.21,.58,.36,1.13,.46,1.66l-.82,.29Zm5.72,1.75c-.49-.33-1.11-.68-1.86-1.03l.52-.43h-1.7l.6,.41c-.64,.42-1.42,.76-2.34,1.03-.23-.26-.48-.5-.76-.7,.67-.18,1.29-.43,1.88-.74h-.82v-1.6c0-.6-.02-1.14-.07-1.6,0-.03,.02-.05,.07-.05,.33,.03,.72,.05,1.19,.05h2.4c.47,0,.87-.02,1.2-.05,.05,0,.07,.02,.07,.05-.05,.46-.07,.99-.07,1.6v1.6h-.95c.73,.33,1.28,.6,1.66,.83l-1.02,.63Zm-4.55-7.36s-.03-.16-.03-.41,.01-.38,.03-.4c.29,.03,.59,.04,.9,.04h.91v-.33h-1.15c-.35,0-.73,.02-1.15,.05-.02-.03-.03-.17-.03-.43s.01-.4,.03-.43c.31,.04,.7,.05,1.15,.05h1.15v-.27c0-.07,0-.17-.02-.31,.27-.01,.55-.01,.82,.01,.34,.03,.51,.07,.51,.14-.08,.07-.12,.14-.12,.22v.22h1.18c.35,0,.75-.02,1.18-.05,.02,.03,.03,.17,.03,.43s-.01,.4-.03,.43c-.33-.03-.72-.05-1.18-.05h-1.18v.33h.99c.22,0,.55-.01,.98-.04,.02,.02,.03,.15,.03,.4s-.01,.38-.03,.41c-.33-.03-.75-.05-1.24-.05h-2.48c-.38,0-.79,.02-1.24,.05Zm5.21,2.45c-.34-.04-.8-.06-1.38-.06h-4.12v-1.06c0-.42-.02-.77-.05-1.06,0-.08,.02-.11,.05-.11,.71,.08,1.62,.11,2.74,.11h2.75v1.06c0,.42,.02,.77,.05,1.06,0,.04-.02,.06-.05,.06Zm-4.57-.68h3.59v-.21h-.71c-.36,0-.6-.04-.71-.13-.11-.09-.17-.27-.17-.55v-.03h-.42c-.06,.24-.18,.42-.36,.56-.18,.14-.47,.25-.85,.33-.08-.17-.2-.32-.37-.45v.47Zm0-.49c.24-.04,.43-.09,.57-.16,.13-.07,.22-.16,.26-.27h-.83v.43Zm.48,2.35h2.64v-.32h-2.64v.32Zm0,.84h2.64v-.34h-2.64v.34Zm0,.84h2.64v-.35h-2.64v.35Zm2.52-4.2h.58v-.26h-.75v.05c0,.08,.01,.14,.03,.18,.04,.02,.08,.03,.14,.03Z"/><path class="cls-2" d="M69.37,44.27c-.06-.22-.12-.4-.18-.55-.26,.01-.64,.04-1.15,.07-.39,.03-.68,.05-.87,.06-.31,.01-.74,.04-1.3,.07-.22,.01-.37,.02-.47,.03l-.1-1.18c.15,0,.39,0,.72-.02h.08c.33-.77,.57-1.46,.74-2.1,.33,.07,.64,.17,.93,.3,.3,.14,.43,.25,.4,.33-.03,.06-.08,.12-.15,.17-.12,.07-.21,.19-.28,.36-.03,.06-.07,.14-.12,.25-.12,.29-.22,.49-.28,.63l1.37-.06c-.12-.22-.28-.51-.48-.86l1.02-.4c.64,.96,1.05,1.77,1.23,2.42l-1.12,.46Zm-2.9,6.22c-.38,0-.59-.02-.63-.05,.04-.36,.06-.86,.06-1.49v-3c0-.63-.02-1.13-.06-1.49,0-.06,.02-.08,.06-.08,.51,.06,1.16,.08,1.93,.08h1.93v4.74c0,.28-.03,.49-.09,.65-.07,.17-.19,.29-.35,.38-.15,.09-.36,.15-.62,.18-.17,.02-.44,.03-.81,.03-.08-.39-.21-.75-.39-1.1,.35,.02,.65,.02,.9,0,.11,0,.17-.05,.17-.16v-.7h-1.53v.99c0,.33,.01,.66,.04,.98-.02,.03-.22,.05-.6,.05Zm.56-4.47h1.53v-.54h-1.53v.54Zm0,1.53h1.53v-.62h-1.53v.62Zm5.03,2.83c-.59,0-.99-.11-1.2-.32-.19-.2-.29-.59-.29-1.18v-2.46c0-.25-.01-.54-.04-.86,.29-.01,.58-.01,.89,.01,.38,.03,.56,.07,.56,.14-.14,.21-.21,.42-.21,.65v.66c.83-.35,1.47-.67,1.92-.98,.21,.24,.38,.49,.51,.75,.14,.27,.17,.43,.08,.47-.06,.03-.13,.04-.22,.03-.12-.02-.27,0-.44,.08-.56,.24-1.18,.47-1.86,.68v.83c0,.18,.03,.3,.08,.34s.18,.07,.39,.07h1.17c.17,0,.29-.08,.34-.23,.06-.15,.1-.49,.12-1.02,.25,.19,.6,.34,1.06,.46-.07,.74-.2,1.23-.4,1.49-.19,.26-.54,.39-1.03,.39h-1.45Zm0-4.99c-.59,0-.99-.11-1.19-.32-.19-.21-.29-.6-.29-1.19v-2.36c0-.32-.01-.59-.03-.82,.29-.01,.58-.01,.89,.01,.38,.03,.56,.07,.56,.14-.14,.22-.21,.45-.21,.69v.7c.7-.28,1.31-.57,1.84-.87,.2,.23,.37,.48,.49,.74,.12,.28,.15,.43,.06,.47-.06,.03-.14,.03-.22,.01-.13-.03-.27,0-.44,.06-.49,.19-1.07,.39-1.73,.59v.62c0,.19,.03,.3,.08,.35,.05,.05,.18,.07,.37,.07h1.12c.16,0,.27-.06,.32-.19,.06-.13,.09-.42,.12-.87,.12,.09,.29,.18,.5,.27,.21,.08,.4,.15,.57,.19-.07,.67-.2,1.12-.4,1.36-.19,.24-.53,.36-1,.36h-1.41Z"/><path class="cls-2" d="M78.41,45.53c-.33-.33-.88-.69-1.65-1.06l.67-.91c.27,.1,.58,.25,.94,.45,.37,.22,.63,.39,.77,.53l-.73,.99Zm-.41,4.78l-1.12-.67c.23-.45,.47-.95,.71-1.52,.32-.76,.56-1.37,.72-1.84,.28,.2,.53,.4,.73,.59,.24,.23,.35,.39,.32,.47-.02,.07-.07,.13-.14,.17-.11,.08-.2,.22-.26,.4-.27,.74-.59,1.54-.97,2.4Zm.91-7.53c-.17-.17-.42-.37-.74-.58-.32-.21-.63-.39-.93-.53l.69-.92c.25,.11,.56,.27,.94,.48,.36,.22,.62,.41,.77,.55l-.73,.99Zm3.35,7.66c-.06-.33-.16-.69-.31-1.06,.24,0,.54,.01,.9,.01,.1,0,.16-.05,.16-.15v-2.25h-1.63v-3.75h1.5c0-.06,.02-.14,.04-.24,.04-.28,.07-.49,.08-.63h-1.98v1.76c0,2.89-.47,4.99-1.4,6.32-.1-.1-.26-.21-.48-.35-.21-.14-.4-.24-.54-.31,.51-.72,.86-1.65,1.05-2.81,.12-.77,.19-1.72,.19-2.86v-1.44c0-.6-.02-1.08-.06-1.44,0-.05,.02-.07,.06-.07,.47,.05,1,.07,1.6,.07h3.19c.45,0,.98-.02,1.6-.07,.02,.03,.03,.24,.03,.63s0,.58-.03,.6c-.31-.03-.62-.04-.93-.04h-.94c-.05,.15-.12,.36-.21,.65-.03,.1-.05,.17-.06,.22h1.85v3.75h-1.78v2.28c0,.28-.03,.5-.08,.64-.06,.16-.18,.28-.34,.35-.29,.13-.77,.19-1.46,.18Zm-.86-.51c-.22-.19-.54-.41-.94-.64,.45-.44,.81-1.07,1.08-1.89,.28,.07,.54,.16,.78,.27,.26,.11,.38,.19,.35,.25-.01,.04-.05,.08-.1,.1-.09,.05-.16,.14-.2,.26-.12,.28-.23,.48-.3,.62-.24,.44-.46,.78-.68,1.02Zm1.04-5.24h2.37v-.57h-2.37v.57Zm0,1.41h2.37v-.57h-2.37v.57Zm2.93,3.7c-.07-.26-.2-.59-.39-1.01-.18-.4-.37-.76-.56-1.08l1.04-.43c.49,.75,.82,1.43,1,2.03l-1.1,.49Z"/></g></g></g></svg>