<?xml version="1.0" encoding="UTF-8"?><svg id="_設計" xmlns="http://www.w3.org/2000/svg" viewBox="0 0 129.11 129.11"><defs><style>.cls-1{font-family:GenSekiGothicTW-B, 'GenSekiGothic TW';font-size:12px;letter-spacing:.1em;}.cls-1,.cls-2{fill:#fff;}.cls-3{fill:#006889;}</style></defs><circle class="cls-3" cx="64.55" cy="64.55" r="64.55"/><g><g><path class="cls-2" d="M86.19,53.98s-1.25,1.66-.89,3.28c.37,1.62,2.21,2.58,2.21,2.58,0,0,1.25-1.66,.89-3.28-.37-1.62-2.21-2.58-2.21-2.58"/><path class="cls-2" d="M84.15,63.47s1.25-1.66,.89-3.28c-.37-1.62-2.21-2.58-2.21-2.58,0,0-1.25,1.66-.89,3.28,.37,1.62,2.21,2.58,2.21,2.58"/><path class="cls-2" d="M89.3,61.69s1.32,1.33,2.83,1.2c1.51-.13,2.62-1.68,2.62-1.68,0,0-1.32-1.33-2.83-1.2-1.51,.13-2.62,1.68-2.62,1.68"/><path class="cls-2" d="M91.46,54.57c-1.22,1.24-1.05,3.44-1.05,3.44,0,0,2.16,.19,3.39-1.05,1.22-1.24,1.05-3.44,1.05-3.44,0,0-2.16-.19-3.39,1.05"/><path class="cls-2" d="M88.76,66.63c1.5,.18,2.91-1.11,2.91-1.11,0,0-1.02-1.57-2.52-1.75-1.5-.18-2.91,1.11-2.91,1.11,0,0,1.02,1.57,2.52,1.75"/><path class="cls-2" d="M90.1,92.69h-11.21c-.88,0-1.59,.71-1.59,1.58s.71,1.59,1.59,1.59h11.21c.88,0,1.59-.71,1.59-1.59s-.71-1.58-1.59-1.58"/><path class="cls-2" d="M90.1,110.17h-11.21c-.88,0-1.59,.71-1.59,1.59s.71,1.59,1.59,1.59h11.21c.88,0,1.59-.71,1.59-1.59s-.71-1.59-1.59-1.59"/><path class="cls-2" d="M39.68,88.84c-.26-.08-.52-.15-.78-.2,0,0,.29,.09,.78,.2"/><path class="cls-2" d="M89.69,96.97h-10.39c-.5,0-.9,.41-.9,.9v3.15l-6.78,.75-9.91-.23v-6.05c1.32-.17,2.63-.43,3.94-.8,9.54-2.69,11.62-10.58,11.41-16.03-.21-5.56,1.57-7.71,4.13-8.67,.73-.27,1.45-.45,2.12-.56,.03,1.36,.31,2.95,.92,4.84,.23-.01,.45-.03,.68-.06-.64-1.93-.92-3.52-.93-4.88,1.32-.16,2.26-.07,2.26-.07,0,0-.89-.48-2.15-1.53,.43-2.63,2-4.25,3.61-5.9,.89-.91,1.8-1.85,2.53-2.97l-.56-.36c-.68,1.06-1.58,1.98-2.44,2.86-1.57,1.61-3.16,3.26-3.7,5.87-.51-.46-1.07-1.01-1.63-1.64-2.35-2.64-5.38-.7-9.7,3.32-4.32,4.02-9.75,4.16-15.05-1.27-7-7.16-13.1-7.12-17.29-6.72,2.86,1.22,3.87,3.9,5.32,10.7,1.52,7.14,5.35,10.37,10.59,10.81-2.92,1.03-3.06,2.68-6.96,5.37-3.05,2.1-7.34,1.44-9.08,1.04,3.19,1,6.98,4.35,10.36,5.51,1.97,.68,4.05,1.1,6.18,1.27v5.79l-17.75-.41v4.04l33.14-.76,6.78,.75v3.14c0,.5,.4,.9,.9,.9h10.39c.5,0,.9-.41,.9-.9v-10.31c0-.5-.41-.9-.9-.9Zm-31.83-1.27c.74,.01,1.48,0,2.22-.06v5.86l-2.22-.05v-5.75Z"/><path class="cls-2" d="M37.5,104.38c0,.85-.59,1.54-1.33,1.54h-.8c-.73,0-1.33-.69-1.33-1.54v-2.79c0-.85,.6-1.54,1.33-1.54h.8c.73,0,1.33,.69,1.33,1.54v2.79Z"/></g><g><g><path class="cls-2" d="M86.19,53.98s-1.25,1.66-.89,3.28c.37,1.62,2.21,2.58,2.21,2.58,0,0,1.25-1.66,.89-3.28-.37-1.62-2.21-2.58-2.21-2.58"/><path class="cls-2" d="M84.15,63.47s1.25-1.66,.89-3.28c-.37-1.62-2.21-2.58-2.21-2.58,0,0-1.25,1.66-.89,3.28,.37,1.62,2.21,2.58,2.21,2.58"/><path class="cls-2" d="M89.3,61.69s1.32,1.33,2.83,1.2c1.51-.13,2.62-1.68,2.62-1.68,0,0-1.32-1.33-2.83-1.2-1.51,.13-2.62,1.68-2.62,1.68"/><path class="cls-2" d="M91.46,54.57c-1.22,1.24-1.05,3.44-1.05,3.44,0,0,2.16,.19,3.39-1.05,1.22-1.24,1.05-3.44,1.05-3.44,0,0-2.16-.19-3.39,1.05"/><path class="cls-2" d="M88.76,66.63c1.5,.18,2.91-1.11,2.91-1.11,0,0-1.02-1.57-2.52-1.75-1.5-.18-2.91,1.11-2.91,1.11,0,0,1.02,1.57,2.52,1.75"/><path class="cls-2" d="M90.1,92.69h-11.21c-.88,0-1.59,.71-1.59,1.58s.71,1.59,1.59,1.59h11.21c.88,0,1.59-.71,1.59-1.59s-.71-1.58-1.59-1.58"/><path class="cls-2" d="M90.1,110.17h-11.21c-.88,0-1.59,.71-1.59,1.59s.71,1.59,1.59,1.59h11.21c.88,0,1.59-.71,1.59-1.59s-.71-1.59-1.59-1.59"/><path class="cls-2" d="M39.68,88.84c-.26-.08-.52-.15-.78-.2,0,0,.29,.09,.78,.2"/><path class="cls-2" d="M89.69,96.97h-10.39c-.5,0-.9,.41-.9,.9v3.15l-6.78,.75-9.91-.23v-6.05c1.32-.17,2.63-.43,3.94-.8,9.54-2.69,11.62-10.58,11.41-16.03-.21-5.56,1.57-7.71,4.13-8.67,.73-.27,1.45-.45,2.12-.56,.03,1.36,.31,2.95,.92,4.84,.23-.01,.45-.03,.68-.06-.64-1.93-.92-3.52-.93-4.88,1.32-.16,2.26-.07,2.26-.07,0,0-.89-.48-2.15-1.53,.43-2.63,2-4.25,3.61-5.9,.89-.91,1.8-1.85,2.53-2.97l-.56-.36c-.68,1.06-1.58,1.98-2.44,2.86-1.57,1.61-3.16,3.26-3.7,5.87-.51-.46-1.07-1.01-1.63-1.64-2.35-2.64-5.38-.7-9.7,3.32-4.32,4.02-9.75,4.16-15.05-1.27-7-7.16-13.1-7.12-17.29-6.72,2.86,1.22,3.87,3.9,5.32,10.7,1.52,7.14,5.35,10.37,10.59,10.81-2.92,1.03-3.06,2.68-6.96,5.37-3.05,2.1-7.34,1.44-9.08,1.04,3.19,1,6.98,4.35,10.36,5.51,1.97,.68,4.05,1.1,6.18,1.27v5.79l-17.75-.41v4.04l33.14-.76,6.78,.75v3.14c0,.5,.4,.9,.9,.9h10.39c.5,0,.9-.41,.9-.9v-10.31c0-.5-.41-.9-.9-.9Zm-31.83-1.27c.74,.01,1.48,0,2.22-.06v5.86l-2.22-.05v-5.75Z"/><path class="cls-2" d="M37.5,104.38c0,.85-.59,1.54-1.33,1.54h-.8c-.73,0-1.33-.69-1.33-1.54v-2.79c0-.85,.6-1.54,1.33-1.54h.8c.73,0,1.33,.69,1.33,1.54v2.79Z"/></g><g><polygon class="cls-2" points="17.55 31.19 17.55 35.03 17.58 35.03 20.16 32.35 20.2 32.35 20.2 49.11 23.88 49.11 23.88 27.22 20.94 27.22 17.55 31.19"/><path class="cls-2" d="M36.76,43.85v-3.23c0-3.58-1.42-5.39-4.07-5.39-1.55,0-2.49,.71-3.04,1.78h-.03v-4.71c0-1.32,.42-2.26,1.74-2.26s1.71,.77,1.71,2.13v1.46h3.36v-1.16c0-3.23-1.06-5.49-5.13-5.49s-5.33,2.49-5.33,5.91v10.66c0,3.39,1.49,5.85,5.36,5.85s5.42-2.13,5.42-5.52m-3.65,.32c0,1.39-.52,2.2-1.78,2.2s-1.71-.84-1.71-2.2v-4c.06-1.23,.58-2,1.74-2,1.26,0,1.74,.78,1.74,2.2v3.81Z"/><text class="cls-1" transform="translate(39.08 33.98)"><tspan x="0" y="0">和平、正義</tspan><tspan x="0" y="14.4">與健全的制度</tspan></text></g></g></g></svg>