<?xml version="1.0" encoding="UTF-8"?><svg id="_圖層_2" xmlns="http://www.w3.org/2000/svg" viewBox="0 0 129.11 129.11"><defs><style>.cls-1{fill:#ff3a21;}.cls-2{fill:#fff;}</style></defs><g id="_說明"><g><circle class="cls-1" cx="64.55" cy="64.55" r="64.55"/><g><path class="cls-2" d="M36.85,26.65c-1.45,0-2.52,.52-3.1,1.52h-.03v-5.46h6.33v-3h-9.69v12.34h3.36v-.49c0-1.29,.58-2,1.61-2,1.13,0,1.58,.78,1.58,1.97v5.3c0,1.16-.42,1.97-1.55,1.97-1.26,0-1.71-.84-1.71-2.13v-2.75h-3.36v2.49c0,3.33,1.32,5.46,5.07,5.46s5.23-1.97,5.23-5.01v-5.36c0-3.46-1.78-4.84-3.75-4.84"/><g><path class="cls-2" d="M98.63,51.71h-13.5c-.09,0-.17,.08-.17,.17v4.48c0,.1,.08,.17,.17,.17h5.37l-5.97,5.97c-3.01-2.36-6.79-3.77-10.9-3.77-9.75,0-17.68,7.93-17.68,17.68,0,8.97,6.72,16.4,15.39,17.52v5.17h-5.32c-.1,0-.17,.08-.17,.17v4.81c0,.1,.08,.17,.17,.17h5.32v5.09c0,.09,.08,.17,.17,.17h4.8c.1,0,.17-.08,.17-.17v-5.09h5.32c.09,0,.17-.08,.17-.17v-4.81c0-.09-.08-.17-.17-.17h-5.32v-5.25c8.39-1.38,14.81-8.67,14.81-17.44,0-3.78-1.2-7.29-3.23-10.17l5.88-5.88v5.02c0,.09,.08,.17,.17,.17h4.48c.1,0,.18-.08,.18-.17v-13.5c0-.1-.08-.17-.18-.17m-24.99,37.71c-7.17,0-13.01-5.84-13.01-13.01s5.84-13.01,13.01-13.01,13.01,5.84,13.01,13.01-5.84,13.01-13.01,13.01"/><path class="cls-2" d="M81.59,71.07h-15.78c-.09,0-.17,.07-.17,.15v3.82c0,.09,.08,.16,.17,.16h15.78c.1,0,.17-.07,.17-.16v-3.82c0-.08-.08-.15-.17-.15"/><path class="cls-2" d="M81.59,77.89h-15.78c-.09,0-.17,.07-.17,.16v3.82c0,.09,.08,.15,.17,.15h15.78c.1,0,.17-.07,.17-.15v-3.82c0-.09-.08-.16-.17-.16"/></g><g><path class="cls-2" d="M52.81,41.52c-.42,0-.66-.02-.7-.05,.06-.49,.08-1.11,.08-1.86v-5.6c-.08,1.11-.23,2.03-.46,2.76l-.9-.33c.24-.68,.4-1.58,.5-2.71l.86,.12v-1.06c0-.4-.02-.77-.05-1.11,.3-.01,.61-.01,.94,.01,.39,.03,.58,.07,.58,.14-.17,.31-.25,.62-.25,.93v.94l.58-.25c.24,.47,.42,.9,.56,1.31,.24-.72,.42-1.57,.54-2.54,.32,.04,.62,.11,.89,.2,.29,.09,.42,.17,.42,.24,0,.05-.03,.1-.08,.15-.08,.07-.12,.17-.15,.31-.03,.16-.08,.4-.15,.72h.82v-1.02c0-.32-.01-.67-.04-1.06,.29-.01,.6-.01,.92,.01,.39,.03,.58,.07,.58,.14-.17,.32-.25,.64-.25,.97v.97h1.04c.24,0,.58-.01,1.04-.04,.02,.02,.03,.23,.03,.63s-.01,.6-.03,.63c-.35-.03-.7-.04-1.04-.04h-1.04v1.71h.94c.21,0,.52-.01,.94-.04,.02,.02,.03,.23,.03,.62s-.01,.6-.03,.62c-.31-.03-.62-.04-.94-.04h-.94v2.09h1.21c.37,0,.77-.02,1.21-.05,.02,.03,.03,.24,.03,.65s0,.62-.03,.66c-.46-.05-1-.07-1.62-.07h-1.62c-1.04,0-2.09,.04-3.13,.12-.02-.06-.03-.3-.03-.71s.01-.63,.03-.66c.33,.04,.79,.06,1.37,.06h1.37v-2.09h-.99c-.22,0-.55,.01-.98,.04-.02-.02-.03-.23-.03-.62s.01-.6,.03-.62c.32,.03,.65,.04,.98,.04h.99v-1.71h-1.13c-.16,.56-.35,1.04-.57,1.44-.29-.19-.65-.38-1.08-.56,.12-.21,.22-.41,.31-.6l-.58,.27c-.06-.28-.18-.68-.39-1.2v3.99c0,1.3,.04,2.34,.12,3.13-.06,.03-.31,.05-.73,.05Z"/><path class="cls-2" d="M63.21,41.48c-.21-.37-.48-.67-.81-.91,.61-.51,1.03-1.22,1.28-2.14,.17-.63,.29-1.5,.34-2.6h-1.02v-1.81c0-.69-.02-1.29-.07-1.81,0-.03,.02-.04,.07-.04,.35,.03,.7,.04,1.04,.04h2.11c.41,0,.76-.02,1.05-.05,.05,0,.07,.02,.07,.05-.05,.52-.07,1.13-.07,1.81v1.81h-1.99c0,.09-.02,.23-.03,.42s-.02,.34-.03,.43h2.15c0,.15,0,.3,0,.45-.06,1.29-.12,2.21-.18,2.74-.07,.58-.17,.95-.31,1.13-.18,.22-.44,.34-.77,.39-.29,.04-.7,.05-1.23,.03-.01-.38-.12-.74-.31-1.07,.28,.03,.61,.05,1,.05,.15,0,.27-.05,.34-.14,.15-.17,.25-1,.31-2.49h-1.14c-.26,1.66-.86,2.9-1.79,3.7Zm.9-6.75h1.92v-1.43h-1.92v1.43Zm4.46,4.17c-.4,0-.62-.01-.66-.04,.04-.37,.06-.85,.06-1.46v-2.94c0-.6-.02-1.11-.06-1.51,.29-.01,.6-.01,.92,.01,.38,.03,.57,.07,.57,.14-.17,.33-.25,.67-.25,1v2.39c0,.92,.04,1.72,.1,2.38-.05,.03-.28,.04-.69,.04Zm.42,2.58c-.06-.45-.21-.88-.43-1.28,.44,.01,.96,.02,1.53,.02,.19,0,.28-.08,.28-.25v-6.03c0-.79-.03-1.47-.08-2.04,.31-.01,.63-.01,.95,.01,.4,.03,.59,.07,.59,.14-.17,.33-.25,.67-.25,1v6.93c0,.37-.04,.65-.12,.84-.08,.19-.23,.34-.44,.43-.35,.16-1.03,.24-2.03,.24Z"/><path class="cls-2" d="M78.67,41.51c-.44,0-.67-.02-.71-.05,.05-.5,.07-1.07,.07-1.72v-1.72h-1.97c-.62,0-1.27,.03-1.96,.08-.02-.04-.03-.28-.03-.71s.01-.67,.03-.71c.52,.06,1.18,.08,1.96,.08h1.97v-3.16h-1.7c-.47,0-1.04,.02-1.7,.07-.02-.03-.03-.26-.03-.69s.01-.66,.03-.7c.54,.06,1.21,.08,2.02,.08h4.07c.63,0,1.31-.03,2.03-.08,.02,.04,.03,.27,.03,.7s0,.65-.03,.69c-.5-.05-1.08-.07-1.73-.07h-1.73v3.16h2.03c.64,0,1.31-.03,2.02-.08,.02,.04,.03,.28,.03,.71s-.01,.67-.03,.71c-.54-.06-1.21-.08-2.02-.08h-2.03v1.72c0,.65,.02,1.22,.07,1.72-.04,.03-.27,.05-.7,.05Zm-2.84-4.83c-.29-.26-.62-.49-.98-.69,.29-.27,.57-.61,.85-1.02,.26-.4,.47-.78,.6-1.14,.31,.09,.6,.21,.88,.34,.27,.14,.39,.24,.37,.3-.02,.05-.06,.08-.12,.1-.1,.04-.18,.13-.24,.26-.18,.31-.32,.53-.42,.68-.31,.46-.62,.84-.93,1.16Zm5.56-.05c-.13-.31-.36-.68-.68-1.14-.31-.45-.62-.84-.93-1.19l1.04-.51c.79,.84,1.36,1.59,1.69,2.24l-1.13,.59Z"/><path class="cls-2" d="M90.47,41.46c-.06-.31-.2-.7-.44-1.16,.35,.01,.78,.02,1.3,.02,.14,0,.21-.06,.21-.17v-1.11h-3.04c.56,.42,.97,.83,1.24,1.21l-.94,.77c-.14-.23-.36-.49-.66-.79s-.58-.54-.89-.77l.54-.42h-.95c-.21,0-.52,.01-.94,.04-.02-.02-.03-.21-.03-.57s0-.57,.03-.63c.73,.08,1.67,.11,2.81,.11h2.82v-.63h-4.51c-.5,0-1,.02-1.5,.06-.02-.03-.03-.23-.03-.59s.01-.56,.03-.6c.52,.06,1.19,.08,1.99,.08h2v-.59h-1.48c-.49,0-.99,.02-1.48,.06-.02-.03-.03-.23-.03-.58s0-.54,.03-.57c.37,.04,.86,.06,1.48,.06h1.48v-.5h.62s-.12-.07-.21-.12c-.19-.12-.32-.21-.39-.24,.11-.09,.24-.21,.38-.35h-1.38c.15,.26,.25,.48,.31,.66l-1.04,.44c-.05-.21-.21-.57-.47-1.1h-.1c-.29,.43-.61,.83-.95,1.19-.33-.28-.67-.51-1.01-.69,.33-.28,.63-.63,.92-1.05,.29-.41,.52-.84,.7-1.29,.29,.08,.57,.17,.84,.27,.27,.1,.4,.17,.4,.19,0,.01-.03,.02-.06,.03-.06,0-.1,.03-.12,.08-.06,.11-.1,.2-.12,.26h2.23v.85c.43-.51,.75-1.07,.95-1.68,.31,.08,.59,.17,.85,.26,.27,.09,.4,.15,.4,.17s-.03,.04-.06,.05c-.06,0-.1,.04-.11,.08-.01,.03-.04,.09-.06,.16-.02,.05-.04,.09-.05,.11h1.41c.47,0,.94-.02,1.41-.06,.02,.03,.03,.22,.03,.56s-.01,.53-.03,.55c-.28-.03-.56-.04-.84-.04h-.86c.18,.26,.31,.48,.4,.66l-1.04,.45c-.11-.29-.32-.66-.64-1.11h-.4c-.21,.33-.42,.59-.6,.8v.42h1.55c.52,0,1.04-.02,1.54-.06,.02,.03,.03,.22,.03,.57s-.01,.54-.03,.58c-.38-.04-.9-.06-1.54-.06h-1.55v.59h2.02c.63,0,1.3-.03,2.01-.08,.02,.04,.03,.24,.03,.6s0,.55-.03,.57c-.33-.03-.67-.04-1.01-.04h-1.02v.63h.87c.19,0,.48-.01,.86-.04,.02,.02,.03,.21,.03,.56s-.01,.54-.03,.56c-.28-.03-.56-.04-.86-.04h-.87v1.13c0,.31-.04,.55-.12,.71-.08,.17-.23,.3-.45,.39-.2,.08-.45,.14-.76,.16-.22,.02-.55,.03-1.01,.03Z"/></g></g></g></g></svg>