<?xml version="1.0" encoding="UTF-8"?><svg id="_設計" xmlns="http://www.w3.org/2000/svg" viewBox="0 0 129.11 129.11"><defs><style>.cls-1{font-family:GenSekiGothicTW-B, 'GenSekiGothic TW';font-size:12px;letter-spacing:.1em;}.cls-1,.cls-2{fill:#fff;}.cls-3{fill:#e8af0b;}</style></defs><g><circle class="cls-3" cx="64.55" cy="64.55" r="64.55"/><g><polygon class="cls-2" points="29.1 32.39 34.78 32.39 29.87 51.28 33.52 51.28 38.34 32.78 38.34 29.38 29.1 29.38 29.1 32.39"/><path class="cls-2" d="M65.99,72.02c-8.79,0-15.91,7.13-15.91,15.91s7.12,15.92,15.91,15.92,15.91-7.12,15.91-15.92-7.12-15.91-15.91-15.91m-1.18,6.29c0-.53,.53-1.11,1.18-1.11s1.18,.58,1.18,1.11v5.46c0,.53-.53,1.1-1.18,1.1s-1.18-.58-1.18-1.1v-5.46Zm1.18,17.78c-4.57,0-8.28-3.71-8.28-8.28,0-3.72,2.45-6.86,5.82-7.91v3.08c-1.75,.9-2.96,2.72-2.96,4.82,0,2.99,2.42,5.42,5.42,5.42s5.42-2.43,5.42-5.42c0-2.11-1.21-3.94-2.97-4.83v-3.08c3.38,1.04,5.83,4.19,5.83,7.91,0,4.57-3.71,8.28-8.28,8.28"/><path class="cls-2" d="M47.72,87.79c0-.72-.64-1.31-1.22-1.31h-6.97c-.59,0-1.23,.58-1.23,1.31s.65,1.31,1.23,1.31h6.97c.58,0,1.22-.59,1.22-1.31"/><path class="cls-2" d="M93.69,87.79c0-.72-.64-1.31-1.22-1.31h-6.97c-.59,0-1.23,.58-1.23,1.31s.65,1.31,1.23,1.31h6.97c.58,0,1.22-.59,1.22-1.31"/><path class="cls-2" d="M66,69.52c.72,0,1.31-.64,1.31-1.22v-6.97c0-.59-.59-1.23-1.31-1.23s-1.31,.64-1.31,1.23v6.97c0,.58,.59,1.22,1.31,1.22"/><path class="cls-2" d="M66,115.49c.72,0,1.31-.64,1.31-1.22v-6.97c0-.59-.59-1.23-1.31-1.23s-1.31,.65-1.31,1.23v6.97c0,.58,.59,1.22,1.31,1.22"/><path class="cls-2" d="M50.14,78.71c.36-.63,.09-1.45-.41-1.74l-6.05-3.46c-.51-.29-1.36-.11-1.72,.52-.36,.63-.09,1.46,.42,1.75l6.05,3.46c.51,.29,1.35,.1,1.71-.53"/><path class="cls-2" d="M90.03,101.55c.36-.63,.09-1.45-.41-1.74l-6.05-3.46c-.51-.29-1.36-.1-1.72,.52-.36,.63-.09,1.46,.42,1.75l6.05,3.46c.51,.29,1.35,.1,1.71-.53"/><path class="cls-2" d="M75.07,71.94c.63,.36,1.45,.09,1.74-.41l3.46-6.05c.29-.51,.11-1.36-.52-1.72-.63-.36-1.46-.09-1.75,.42l-3.46,6.05c-.29,.51-.1,1.35,.53,1.71"/><path class="cls-2" d="M52.24,111.83c.63,.36,1.45,.09,1.74-.41l3.46-6.05c.29-.51,.1-1.36-.52-1.72-.63-.36-1.46-.09-1.75,.42l-3.46,6.05c-.29,.51-.1,1.35,.53,1.71"/><path class="cls-2" d="M56.89,71.95c.63-.36,.81-1.21,.52-1.71l-3.47-6.04c-.29-.51-1.12-.78-1.75-.42-.63,.36-.82,1.21-.52,1.72l3.47,6.04c.29,.51,1.12,.77,1.75,.41"/><path class="cls-2" d="M79.8,111.8c.63-.36,.81-1.21,.52-1.71l-3.47-6.04c-.29-.51-1.12-.78-1.75-.42-.63,.36-.82,1.21-.52,1.72l3.47,6.04c.29,.51,1.12,.77,1.75,.41"/><path class="cls-2" d="M81.84,78.69c.36,.62,1.2,.81,1.71,.52l6.04-3.47c.51-.29,.78-1.12,.42-1.75-.36-.63-1.21-.82-1.72-.52l-6.04,3.47c-.51,.29-.77,1.12-.41,1.75"/><path class="cls-2" d="M41.99,101.6c.36,.62,1.2,.81,1.71,.52l6.04-3.47c.51-.29,.78-1.12,.42-1.75-.36-.63-1.21-.82-1.72-.52l-6.04,3.47c-.51,.29-.77,1.12-.41,1.75"/></g></g><text class="cls-1" transform="translate(44.2 35.77)"><tspan x="0" y="0">可負擔的</tspan><tspan x="0" y="14.4">永續能源</tspan></text></svg>