<?xml version="1.0" encoding="UTF-8"?><svg id="_圖層_2" xmlns="http://www.w3.org/2000/svg" viewBox="0 0 129.1 129.1"><defs><style>.cls-1{fill:#fff;}.cls-2{fill:#ab802e;}</style></defs><g id="_說明"><g><circle class="cls-2" cx="64.55" cy="64.55" r="64.55"/><g><path class="cls-1" d="M94.96,73.4c-4.43-3.5-9.74-3.87-11.82-3.87-1.1,0-2.11,.1-2.85,.27l-.29,.07c-2.8,.66-7.5,1.77-12.96,8.55l-.16,.2c-.09,.13-.14,.27-.14,.41,0,.12,.03,.24,.1,.36l.12,.2c.9,1.51,1.65,2.82,2.25,3.93,.21,.41,.78,.55,1.17,.16,.04-.05,.08-.1,.1-.14,4.72-6.53,8.42-7.4,10.87-7.97l.3-.07c.34-.08,.88-.13,1.5-.13,1.14,0,5.09,.19,8.18,2.63,2.75,2.17,4.14,5.63,4.14,10.29,0,7.81-3.78,10.85-6.95,12.03-1.21,.45-2.51,.68-3.87,.68-3.26,0-5.78-1.31-5.81-1.32l-.23-.11c-2.73-1.18-6.8-3.65-10.65-11.38-7.89-15.85-14.52-17.35-18.91-18.34l-.23-.05c-.34-.08-1.28-.25-2.83-.25-2.54,0-7.43,.5-11.62,3.84-2.86,2.28-6.27,6.71-6.27,14.87,0,4.97,1.02,8.25,3.65,11.7,.49,.67,5.07,6.58,13.84,6.58,1.3,0,2.65-.13,4.01-.39,1.6-.31,4.08-1.1,6.84-3.13l2.31,2.08c.26,.24,.7,.21,.94-.04,.11-.12,.17-.28,.17-.44l1.79-11v-.13c0-.19-.08-.37-.21-.48-.12-.11-.27-.17-.46-.17h0l-10.71,2.96-.2,.03c-.14,.03-.25,.1-.34,.2-.12,.13-.18,.31-.17,.48,0,.18,.09,.34,.22,.46l2.22,2.01c-1.17,.72-2.33,1.19-3.47,1.41-.97,.18-1.92,.28-2.84,.28-6.07,0-9.05-3.98-9.17-4.15l-.06-.08c-1.85-2.42-2.47-4.49-2.47-8.18,0-4.67,1.37-8.14,4.07-10.29,3-2.4,6.87-2.58,7.98-2.58,.61,0,1.16,.05,1.52,.13l.24,.05c3.5,.79,8.3,1.88,14.95,15.24,3.51,7.05,7.92,11.67,13.45,14.1,.64,.33,4.08,1.97,8.48,1.97,2.06,0,4.05-.35,5.92-1.05,3.23-1.21,10.76-5.33,10.76-17.53,0-8.15-3.46-12.59-6.36-14.89Z"/><g><polygon class="cls-1" points="21.77 29.5 21.81 29.5 21.81 46.26 25.49 46.26 25.49 24.36 22.55 24.36 19.16 28.33 19.16 32.18 19.19 32.18 21.77 29.5"/><path class="cls-1" d="M27.68,28.88v2.65h3.36v-2.75c0-1.32,.65-1.71,1.42-1.71,.71,0,1.32,.29,1.32,1.65v1.81c0,1.81-.16,2.52-1.36,3.78l-2.07,2.2c-2,2.13-2.75,3.55-2.75,5.72v4.04h9.56v-3h-6.04v-1.03c0-1.71,.61-2.36,1.55-3.36l2.36-2.49c1.91-2.03,2.33-3.33,2.33-5.52v-2.13c0-3.13-1.52-4.62-4.81-4.62s-4.88,1.71-4.88,4.78"/></g><g><path class="cls-1" d="M46.79,33.12c-.12-.15-.27-.31-.46-.49-.22-.2-.39-.35-.53-.44,.49-.29,.92-.68,1.31-1.17,.39-.49,.7-1.04,.93-1.66h-.99c-.23,0-.56,.01-.99,.04-.02-.02-.03-.23-.03-.63s.01-.6,.03-.62c.15,.02,.35,.03,.62,.03h1.88l.22-.05,.81,.35c-.24,1.05-.61,1.99-1.12,2.81-.48,.78-1.04,1.39-1.68,1.83Zm2.07,.62c-.04-.38-.18-.79-.41-1.24,.54,.03,.99,.04,1.33,.02,.09,0,.15-.03,.19-.06,.04-.03,.05-.09,.05-.17v-4.98h-1.28c-.38,0-.81,.02-1.27,.05-.02-.03-.03-.25-.03-.65s.01-.63,.03-.67c.5,.06,1.13,.08,1.9,.08h1.9c-.92-.42-1.92-.77-2.99-1.05l.59-1.01c.62,.14,1.29,.33,2,.56,.76,.25,1.35,.49,1.76,.71l-.66,1.16c-.13-.08-.34-.19-.64-.33v.87c.17,.62,.41,1.23,.72,1.84,.81-.65,1.46-1.29,1.95-1.92,.29,.22,.54,.46,.75,.71,.22,.27,.3,.44,.23,.5-.06,.05-.12,.08-.2,.08-.13,.02-.28,.1-.43,.23-.63,.54-1.2,.99-1.72,1.35,.75,1.04,1.7,1.79,2.85,2.25-.31,.25-.59,.61-.86,1.08-1.39-.64-2.49-1.71-3.3-3.22v2.39c0,.35-.04,.61-.12,.78-.08,.19-.23,.33-.45,.44-.19,.09-.45,.15-.78,.18-.24,.02-.61,.03-1.13,.03Z"/><path class="cls-1" d="M58.02,32.95c-.29-.17-.58-.31-.87-.42,.24-.49,.41-1.3,.51-2.42,.26,.05,.5,.11,.72,.19,.24,.09,.36,.17,.35,.24,0,.06-.03,.1-.07,.15-.08,.07-.12,.18-.15,.32-.05,.31-.09,.55-.14,.72-.12,.54-.24,.94-.37,1.22Zm1.22,.85c-.35,0-.56-.02-.61-.05,.06-.52,.09-1.22,.09-2.1v-2.1c-.21,.02-.51,.05-.92,.07-.19,.01-.32,.02-.41,.03l-.11-1.04,.69-.03c.12-.15,.27-.38,.46-.69-.23-.39-.62-.88-1.16-1.46l.59-.82,.2,.19c.32-.65,.56-1.24,.72-1.78,.28,.1,.53,.22,.76,.36,.24,.17,.33,.29,.29,.38-.03,.06-.09,.11-.16,.16-.12,.06-.23,.18-.32,.36-.2,.4-.42,.79-.66,1.19,.15,.19,.26,.34,.32,.43,.38-.69,.65-1.24,.82-1.66,.26,.12,.49,.26,.71,.43,.22,.17,.31,.3,.27,.38-.04,.06-.09,.11-.17,.15-.12,.06-.23,.16-.32,.32-.22,.35-.46,.72-.7,1.1l.71-.26c.18,.36,.34,.75,.49,1.17,.15,.42,.24,.77,.28,1.06l-.86,.34s0-.04-.01-.07c-.03-.17-.05-.31-.07-.4l-.44,.03v3.2c0,.42,.02,.77,.05,1.06-.03,.03-.22,.05-.56,.05Zm-.23-5.27l.89-.04c-.1-.29-.2-.56-.31-.8-.03,.05-.07,.12-.14,.22-.07,.1-.12,.17-.15,.22-.09,.13-.18,.27-.28,.41Zm1.21,3.47c-.02-.15-.07-.4-.16-.76,0-.03-.01-.06-.02-.07,0-.02-.02-.06-.03-.1-.1-.36-.17-.62-.23-.78l.8-.23c.21,.58,.36,1.13,.46,1.66l-.82,.29Zm5.72,1.75c-.49-.33-1.11-.68-1.86-1.03l.52-.43h-1.7l.6,.41c-.64,.42-1.42,.76-2.34,1.03-.23-.26-.48-.5-.76-.7,.67-.18,1.29-.43,1.88-.74h-.82v-1.6c0-.6-.02-1.14-.07-1.6,0-.03,.02-.05,.07-.05,.33,.03,.72,.05,1.19,.05h2.4c.47,0,.87-.02,1.2-.05,.05,0,.07,.02,.07,.05-.05,.46-.07,.99-.07,1.6v1.6h-.95c.73,.33,1.28,.6,1.66,.83l-1.02,.63Zm-4.55-7.36s-.03-.16-.03-.41,.01-.38,.03-.4c.29,.03,.59,.04,.9,.04h.91v-.33h-1.15c-.35,0-.73,.02-1.15,.05-.02-.03-.03-.17-.03-.43s.01-.4,.03-.43c.31,.04,.7,.05,1.15,.05h1.15v-.27c0-.07,0-.17-.02-.31,.27-.01,.55-.01,.82,.01,.34,.03,.51,.07,.51,.14-.08,.07-.12,.14-.12,.22v.22h1.18c.35,0,.75-.02,1.18-.05,.02,.03,.03,.17,.03,.43s-.01,.4-.03,.43c-.33-.03-.72-.05-1.18-.05h-1.18v.33h.99c.22,0,.55-.01,.98-.04,.02,.02,.03,.15,.03,.4s-.01,.38-.03,.41c-.33-.03-.75-.05-1.24-.05h-2.48c-.38,0-.79,.02-1.24,.05Zm5.21,2.45c-.34-.04-.8-.06-1.38-.06h-4.12v-1.06c0-.42-.02-.77-.05-1.06,0-.08,.02-.11,.05-.11,.71,.08,1.62,.11,2.74,.11h2.75v1.06c0,.42,.02,.77,.05,1.06,0,.04-.02,.06-.05,.06Zm-4.57-.68h3.59v-.21h-.71c-.36,0-.6-.04-.71-.13-.11-.09-.17-.27-.17-.55v-.03h-.42c-.06,.24-.18,.42-.36,.56-.18,.14-.47,.25-.85,.33-.08-.17-.2-.32-.37-.45v.47Zm0-.49c.24-.04,.43-.09,.57-.16,.13-.07,.22-.16,.26-.27h-.83v.43Zm.48,2.35h2.64v-.32h-2.64v.32Zm0,.84h2.64v-.34h-2.64v.34Zm0,.84h2.64v-.35h-2.64v.35Zm2.52-4.2h.58v-.26h-.75v.05c0,.08,.01,.14,.03,.18,.04,.02,.08,.03,.14,.03Z"/><path class="cls-1" d="M70.68,28.92c-.18-.17-.47-.37-.86-.59-.34-.21-.69-.39-1.04-.54l.64-.93c.35,.13,.7,.29,1.05,.48,.39,.21,.68,.4,.88,.56l-.67,1.02Zm-.51,4.7l-1.04-.81c.29-.44,.59-.93,.9-1.48,.35-.63,.67-1.22,.95-1.79,.26,.24,.49,.47,.67,.68,.21,.26,.3,.43,.26,.51-.03,.07-.09,.13-.16,.17-.12,.06-.22,.18-.3,.35-.44,.91-.87,1.7-1.27,2.38Zm1.08-7.48c-.17-.17-.45-.37-.83-.62-.38-.23-.73-.41-1.04-.55l.67-.92c.34,.13,.69,.3,1.05,.49,.38,.21,.66,.4,.87,.58l-.71,1.01Zm1.73,7.67c-.41,0-.63-.02-.67-.05,.05-.47,.07-1.02,.07-1.65v-4.95c-.25-.2-.53-.39-.84-.56,.25-.26,.5-.59,.75-.97s.43-.74,.56-1.06c.31,.1,.6,.23,.86,.39,.27,.17,.39,.29,.34,.38-.03,.06-.09,.11-.17,.15-.12,.06-.23,.17-.32,.34-.26,.44-.53,.82-.8,1.16h1.58v-1.48c0-.6-.02-1.11-.06-1.51,.31-.01,.62-.01,.95,.01,.4,.03,.59,.07,.59,.14-.17,.33-.25,.67-.25,1v1.85h1.69c-.29-.6-.75-1.26-1.38-1.96l.96-.59c.76,.81,1.27,1.5,1.52,2.05l-.83,.54v5.42c0,.31-.03,.54-.09,.71-.08,.17-.21,.3-.39,.39s-.42,.15-.71,.18c-.22,.02-.55,.03-.99,.03-.05-.37-.17-.76-.37-1.17,.31,.02,.69,.03,1.16,.03,.14,0,.21-.07,.21-.2v-.72h-2.75v1.03c0,.35,.01,.7,.04,1.03-.02,.03-.24,.05-.65,.05Zm.61-4.95h2.75v-.73h-2.75v.73Zm0,1.79h2.75v-.75h-2.75v.75Z"/><path class="cls-1" d="M81.27,33.79c-.26-.33-.55-.63-.88-.89,1.12-.19,2.02-.44,2.71-.73h-1.39v-3.1c-.19,.04-.45,.09-.76,.14-.13-.33-.32-.65-.57-.96,1.17-.15,1.98-.41,2.42-.77h-.89l-.04,.09-1.11-.07c.19-.44,.41-1.06,.65-1.88h1.94v-.42h-1.16c-.34,0-.73,.02-1.16,.05-.02-.03-.03-.17-.03-.42s.01-.39,.03-.42c.31,.03,.7,.05,1.16,.05h1.16v-.34c0-.06-.01-.11-.01-.15,.24-.01,.5-.01,.76,.01,.32,.03,.48,.07,.48,.14-.08,.06-.12,.11-.12,.17v.18h1.14v-.34c0-.06,0-.11,0-.15,.26-.01,.52-.01,.79,.01,.33,.03,.5,.07,.5,.14-.08,.06-.12,.11-.12,.17v.18h2.16v1.87h-2.16v.41h2.83c0,.1-.01,.21-.02,.32-.05,.67-.14,1.09-.28,1.24-.15,.15-.35,.24-.59,.25h-.06s-.07,.01-.09,.01v3.6h-1.54c1.11,.36,2.01,.69,2.7,1l-1.35,.59c-.7-.36-1.61-.73-2.73-1.11l.77-.49h-2.72l.8,.38c-.4,.24-.91,.48-1.52,.72-.56,.21-1.11,.38-1.67,.52Zm.91-7.04h1.11c.03-.08,.04-.15,.05-.2,0-.04,0-.11,0-.21h-1.03l-.14,.41Zm.72,2.53h4.4v-.41h-4.4v.41Zm0,1.08h4.4v-.42h-4.4v.42Zm0,1.1h4.4v-.43h-4.4v.43Zm.84-3.3h1.86v-.69h-1.36c-.11,.25-.28,.48-.5,.69Zm.69-1.42h1.17v-.41h-1.14s0,.05,0,.1c0,.05,0,.08,0,.1s0,.05,0,.1c0,.04,0,.08-.02,.11Zm.03-1.13h1.14v-.42h-1.14v.42Zm2.29,0h1.06v-.42h-1.06v.42Zm0,2.54h.89c-.02-.1-.06-.21-.13-.34,.25,.04,.44,.05,.56,.03,.1,0,.18-.02,.22-.07,.05-.06,.08-.16,.08-.3h-1.63v.69Z"/><path class="cls-1" d="M54.12,46.28c-.91-.62-1.85-1.16-2.81-1.64l.74-.68h-3.07l.9,.67c-.39,.28-.87,.57-1.44,.89-.54,.29-1.04,.54-1.52,.75-.22-.25-.54-.54-.94-.85,.45-.17,.92-.39,1.42-.67,.5-.27,.92-.53,1.26-.78h-1.37c-.45,0-.9,.02-1.36,.06-.02-.03-.03-.25-.03-.64s0-.59,.03-.6c.15,.01,.31,.02,.47,.02h.48l-.08-2.8-.07-2.8,.68,.19c.5-.28,.9-.54,1.21-.78l.77,.76v-.37c0-.1,0-.24-.02-.41,.24-.01,.49-.01,.75,.01,.31,.03,.47,.07,.47,.14-.11,.13-.17,.26-.17,.41v.41h.78c.26,0,.53-.01,.78-.03,.02,.01,.03,.2,.03,.55s0,.53-.03,.55c-.19-.02-.45-.03-.78-.03h-.78v.7h1.52v3.5h1.27c0-.17,.02-.46,.05-.85h-.49c-.11,0-.27,0-.48,.02-.02-.01-.03-.19-.03-.54s0-.52,.03-.53c.17,.01,.33,.02,.5,.02h.51c.01-.39,.02-.68,.03-.89h-.52c-.12,0-.29,0-.51,.02-.02-.01-.03-.19-.03-.54s.01-.52,.03-.53c.17,.01,.34,.02,.52,.02h.53c0-.19,.01-.46,.01-.82h-.59c-.19,0-.39,.01-.59,.03-.02-.01-.03-.2-.03-.57s.01-.56,.03-.59c.31,.03,.7,.05,1.15,.05h1.16c-.01,2.52-.06,4.41-.14,5.67h.49c.12,0,.28,0,.49-.02,.02,0,.03,.21,.03,.6s-.01,.61-.03,.64c-.34-.04-.8-.06-1.39-.06h-1.4c1.24,.6,2.16,1.1,2.76,1.47l-1.2,.84Zm-6.13-3.47h1.39v-1.1c0-.4-.02-.78-.05-1.13,.25-.01,.51-.01,.78,.01,.33,.03,.49,.07,.49,.14-.17,.33-.25,.67-.25,1v1.07h.57v-2.53h-1.52v-2.68c-.55,.27-1.06,.5-1.54,.69l.02,.75h.58c.19,0,.39-.01,.57-.03,.02,.01,.03,.19,.03,.54s-.01,.53-.03,.54c-.13-.02-.32-.03-.56-.03h-.56l.02,.88h.55c.19,0,.38-.01,.55-.03,.02,.01,.03,.19,.03,.54s-.01,.53-.03,.54c-.12-.02-.3-.03-.53-.03h-.54l.03,.86Z"/><path class="cls-1" d="M57.53,46.08s-.03-.28-.03-.7,.01-.65,.03-.69c.52,.06,1.18,.08,1.97,.08h1.97v-2.1h-1.39c-.46,0-.92,.02-1.38,.06-.02-.03-.03-.26-.03-.67s.01-.63,.03-.66c.35,.04,.81,.06,1.38,.06h1.39v-1.84h-2.12c-.33,.65-.65,1.16-.95,1.51-.35-.29-.72-.54-1.09-.74,.4-.43,.76-.99,1.08-1.67,.31-.65,.56-1.34,.73-2.07,.33,.08,.63,.17,.92,.29,.29,.13,.43,.22,.41,.28-.01,.06-.05,.1-.1,.14-.08,.07-.15,.17-.19,.31-.1,.29-.18,.53-.26,.73h1.57v-.94c0-.29-.01-.62-.04-.98,.31-.01,.63-.01,.96,.01,.41,.03,.62,.07,.62,.14-.17,.29-.25,.59-.25,.89v.89h1.72c.48,0,1.05-.02,1.72-.07,.02,.04,.03,.26,.03,.68s-.01,.64-.03,.68c-.5-.05-1.07-.07-1.72-.07h-1.72v1.84h1.53c.51,0,1.02-.02,1.52-.06,.02,.03,.03,.25,.03,.66s0,.63-.03,.67c-.38-.04-.88-.06-1.52-.06h-1.53v2.1h1.98c.62,0,1.28-.03,1.98-.08,.02,.04,.03,.27,.03,.69s-.01,.66-.03,.7c-.57-.06-1.33-.09-2.29-.09h-4.6c-.76,0-1.53,.03-2.29,.09Z"/><path class="cls-1" d="M69.66,46.4c-.1-.11-.25-.25-.45-.42-.21-.17-.37-.29-.5-.36,.6-.86,.9-2.18,.9-3.97v-1.74h1.27c-.13-.23-.24-.4-.32-.52,.67-.1,1.32-.23,1.95-.38-.59-.16-1.12-.29-1.58-.4l.53-.4h-.97c-.22,0-.54,.01-.96,.04-.02-.02-.03-.2-.03-.53s.01-.52,.03-.55c.49,.05,1.05,.07,1.7,.07h1.7v-.35c0-.09,0-.22-.02-.39,.28-.01,.57-.01,.87,.01,.36,.03,.54,.07,.54,.14-.11,.1-.17,.19-.17,.29v.3h1.79c.49,0,1.09-.02,1.78-.07,.02,.04,.03,.22,.03,.55s-.01,.51-.03,.53c-.26-.03-.54-.04-.82-.04h-.83l.23,.12c-.35,.22-.75,.43-1.18,.62,.54,.17,1.05,.34,1.52,.51l-.51,.44h1.04c.24,0,.58-.01,1.04-.04,.02,.02,.03,.2,.03,.55s-.01,.54-.03,.58c-.49-.06-1.11-.08-1.86-.08h-5.58v.75c0,2.12-.38,3.7-1.13,4.75Zm1.3-.25s-.03-.23-.03-.57,.01-.54,.03-.56c.38,.04,.88,.06,1.5,.06h1.51v-.79h-1.07c-.32,0-.68,.02-1.07,.05-.02-.03-.03-.2-.03-.52s0-.49,.03-.52c.29,.04,.65,.05,1.07,.05h1.07v-.67h-1.68c-.17,.28-.38,.54-.62,.79-.26-.24-.56-.46-.9-.66,.55-.49,.95-1.12,1.21-1.91,.28,.07,.54,.15,.77,.23,.25,.08,.37,.14,.37,.16,0,.02-.03,.04-.06,.05-.06,0-.09,.04-.11,.09-.02,.05-.05,.12-.09,.21-.01,.03-.02,.05-.03,.06h1.14v-.34c0-.09,0-.22-.02-.39,.27-.01,.55-.01,.84,.01,.36,.03,.53,.07,.53,.14-.11,.1-.17,.19-.17,.29v.29h1.24c.37,0,.78-.02,1.23-.05,.02,.03,.03,.21,.03,.54s-.01,.51-.03,.54c-.33-.03-.74-.05-1.23-.05h-1.24v.67h1.08c.33,0,.69-.02,1.08-.05,.02,.03,.03,.2,.03,.52s-.01,.49-.03,.52c-.3-.03-.66-.05-1.08-.05h-1.08v.79h1.49c.5,0,.99-.02,1.48-.06,.02,.03,.03,.22,.03,.56s0,.54-.03,.57c-.52-.05-1.12-.07-1.79-.07h-3.59c-.5,0-1.1,.02-1.79,.07Zm1.14-6.25h3.29c-.47-.17-.96-.33-1.48-.49-.59,.19-1.19,.35-1.8,.49Zm1.82-1.3c.33-.1,.66-.23,.99-.39h-2.46c.37,.09,.86,.22,1.47,.39Z"/><path class="cls-1" d="M82.06,46.32c-.4,0-.61-.02-.65-.05,.05-.51,.07-1.1,.07-1.76v-1.76c-.24,.67-.49,1.22-.76,1.66-.12-.36-.31-.78-.57-1.25,.26-.36,.52-.85,.77-1.47,.23-.57,.42-1.16,.56-1.78v-.27h-.55c-.19,0-.37,.01-.55,.03-.02-.01-.03-.22-.03-.6s.01-.59,.03-.6c.14,.02,.32,.03,.55,.03h.55v-.97c0-.3-.01-.64-.04-1.01,.29-.01,.58-.01,.89,.01,.38,.03,.56,.07,.56,.14-.17,.31-.25,.61-.25,.92v.92h.46c.11,0,.26,0,.46-.02,.02,0,.03,.2,.03,.58s-.01,.58-.03,.59c-.15-.01-.31-.02-.46-.02h-.46v.36c.14,.19,.36,.53,.67,1,.29,.43,.48,.73,.57,.91l-.72,.87c-.1-.27-.28-.66-.52-1.18v3.53c0,.45,.02,.84,.05,1.17-.03,.03-.24,.05-.64,.05Zm1.73-.04c-.04-.15-.13-.32-.25-.52-.12-.19-.24-.34-.35-.47,1.17-.24,1.94-.63,2.33-1.19h-.98c-.22,0-.54,.01-.97,.04-.02-.02-.03-.2-.03-.55s0-.54,.03-.56c.33,.03,.72,.05,1.17,.05h1.17c.04-.24,.07-.44,.08-.59h-1.95v-1.72c0-.65-.02-1.22-.07-1.72,0-.03,.02-.05,.07-.05,.35,.04,.77,.05,1.27,.05h2.57c.5,0,.92-.02,1.27-.05,.05,0,.07,.02,.07,.05-.05,.5-.07,1.07-.07,1.72v1.72h-1.96c-.01,.12-.04,.3-.07,.53,0,.03-.01,.05-.01,.06h1.28c.38,0,.81-.02,1.27-.05,.02,.03,.03,.22,.03,.56s-.01,.53-.03,.55c-.29-.03-.59-.04-.9-.04h-.9c.49,.58,1.17,.96,2.05,1.14-.26,.26-.51,.6-.74,1.02-1.1-.31-1.91-.95-2.43-1.94-.22,.47-.56,.85-1,1.16-.48,.33-1.13,.6-1.95,.8Zm1.73-7.37c-.39,0-.59-.01-.6-.04,.01-.1,.02-.19,.02-.29v-.3h-.59c-.2,0-.39,.01-.59,.03-.02-.01-.03-.19-.03-.54s0-.53,.03-.54c.15,.02,.34,.03,.59,.03h.59v-.35c0-.09,0-.22-.02-.39,.26-.01,.54-.01,.82,.01,.35,.03,.52,.07,.52,.14-.11,.1-.17,.19-.17,.29v.3h1.19v-.35c0-.09,0-.22-.02-.39,.27-.01,.55-.01,.83,.01,.35,.03,.53,.07,.53,.14-.11,.1-.17,.19-.17,.29v.3h.57c.19,0,.39-.01,.57-.03,.02,.01,.03,.19,.03,.54s0,.53-.03,.54c-.13-.02-.32-.03-.57-.03h-.57v.3c0,.1,0,.19,.02,.29,0,.03-.21,.04-.61,.04s-.6-.01-.62-.04c.01-.1,.02-.19,.02-.29v-.3h-1.19v.3c0,.1,0,.19,.02,.29,0,.03-.21,.04-.59,.04Zm-.36,1.45h2.81v-.46h-2.81v.46Zm0,1.26h2.81v-.46h-2.81v.46Z"/><path class="cls-1" d="M99.8,46.27c-.82,0-1.47-.67-1.94-2-.41-1.14-.68-2.73-.82-4.76h-3.82c-.38,0-.8,.02-1.26,.05-.02-.03-.03-.25-.03-.67s.01-.65,.03-.7c.7,.07,1.53,.1,2.5,.1h2.51c-.02-.56-.03-1.14-.03-1.72h1.31c-.01,.65-.01,1.22,0,1.72h1.61c-.22-.29-.62-.66-1.19-1.1l.8-.68c.63,.45,1.07,.83,1.35,1.16l-.7,.62h.48c.11,0,.27,0,.48-.02,.02,0,.03,.22,.03,.63s-.01,.63-.03,.67c-.34-.04-.8-.06-1.39-.06h-1.39c.11,1.56,.31,2.85,.59,3.87,.3,1.06,.63,1.59,.99,1.59,.22,0,.35-.63,.4-1.88,.32,.35,.67,.59,1.06,.73-.09,.96-.25,1.61-.49,1.96-.22,.33-.57,.49-1.07,.49Zm-7.51-.29l-.33-1.25c.08-.01,.21-.03,.4-.06,.65-.1,1.16-.19,1.53-.25v-2.51h-.77c-.26,0-.52,.01-.77,.03-.02-.01-.03-.22-.03-.63s.01-.62,.03-.65c.3,.03,.66,.05,1.09,.05h2.2c.33,0,.69-.02,1.09-.05,.02,.03,.03,.25,.03,.65s-.01,.62-.03,.64c-.26-.03-.54-.04-.81-.04h-.82v2.29c.58-.1,1.22-.23,1.9-.37l.09,1.11c-1.39,.31-2.99,.66-4.8,1.04Z"/></g></g></g></g></svg>